<?xml version="1.0" encoding="UTF-8" standalone="no"?>
<svg
   version="1.1"
   viewBox="0 0 931 782.5"
   width="931"
   height="782.5"
   id="svg7359"
   sodipodi:docname="magic-formulae-1.svg"
   inkscape:version="1.2.1 (9c6d41e410, 2022-07-14)"
   xmlns:inkscape="http://www.inkscape.org/namespaces/inkscape"
   xmlns:sodipodi="http://sodipodi.sourceforge.net/DTD/sodipodi-0.dtd"
   xmlns="http://www.w3.org/2000/svg"
   xmlns:svg="http://www.w3.org/2000/svg">
  <sodipodi:namedview
     id="namedview7361"
     pagecolor="#ffffff"
     bordercolor="#666666"
     borderopacity="1.0"
     inkscape:showpageshadow="2"
     inkscape:pageopacity="0.0"
     inkscape:pagecheckerboard="0"
     inkscape:deskcolor="#d1d1d1"
     showgrid="false"
     inkscape:zoom="0.92804941"
     inkscape:cx="655.13753"
     inkscape:cy="314.09966"
     inkscape:window-width="1920"
     inkscape:window-height="1011"
     inkscape:window-x="0"
     inkscape:window-y="0"
     inkscape:window-maximized="1"
     inkscape:current-layer="svg7359" />
  <!-- svg-source:excalidraw -->
  <defs
     id="defs7167">
    <style
       id="style7165">
      @font-face {
        font-family: &quot;Virgil&quot;;
        src: url(&quot;https://excalidraw.com/Virgil.woff2&quot;);
      }
      @font-face {
        font-family: &quot;Cascadia&quot;;
        src: url(&quot;https://excalidraw.com/Cascadia.woff2&quot;);
      }
    </style>
  </defs>
  <rect
     x="0"
     y="0"
     width="931"
     height="782.5"
     fill="#ffffff"
     id="rect7169" />
  <g
     stroke-linecap="round"
     transform="translate(292 458.5) rotate(0 41.5 41.5)"
     id="g7175">
    <path
       d="M4.51 21.14 C4.51 21.14, 4.51 21.14, 4.51 21.14 M4.51 21.14 C4.51 21.14, 4.51 21.14, 4.51 21.14 M0 35.26 C9.95 27.19, 19.31 15.04, 27.39 7.41 M2.24 37.63 C7.17 31.32, 13.36 22.78, 26.32 9.18 M4.69 46.77 C16.89 28.03, 31.72 12.16, 39.54 7.32 M3.81 45.2 C13.21 37.12, 22.16 27.28, 38.69 6.65 M5.28 53.04 C15.56 43.31, 29.35 31.13, 51.65 2.9 M7.63 54.13 C17.77 43.8, 27.25 31, 51.67 4.15 M7.64 67.64 C22.65 48.23, 42.31 28.27, 57.81 7.64 M7.78 66.81 C21.97 49.17, 34.49 33.45, 58.44 7.72 M14.28 72.54 C30.84 53.92, 47.47 36.43, 66.48 7.82 M12.71 71.19 C25.86 58.06, 38.64 43.71, 67.69 8.91 M18.72 76.96 C34.53 61.72, 47.59 45.17, 72.13 15.81 M19.57 76.56 C37.56 58.35, 53.35 39.22, 73.26 15.03 M27.92 82.58 C41.13 63.83, 60.66 42.01, 76.28 23.8 M26.6 81.92 C41.5 63.58, 55.79 46.32, 77.14 21.98 M36.31 83.18 C47.25 67.85, 58.37 59.34, 84.45 26.98 M37.09 82.61 C47.84 67.88, 58.65 55.04, 82.3 28.52 M46.75 83.83 C59.9 71.05, 70.93 55.88, 82.28 42.01 M46.2 82.65 C58.41 68.96, 69.03 56.87, 82.75 41.77 M55.68 88.24 C62.45 77.32, 67.92 68.71, 83.82 53.43 M54.19 87.05 C59.95 78.85, 67.19 70.1, 83.87 52.68 M6.7 65.46 C6.7 65.46, 6.7 65.46, 6.7 65.46 M6.7 65.46 C6.7 65.46, 6.7 65.46, 6.7 65.46 M29.43 76.34 C19.44 65.93, 11.1 57.75, 1.32 52.36 M31.2 76.59 C24.52 70.03, 16.04 62.46, 2.45 52.32 M49.43 81.8 C37.32 69.88, 25.28 62.27, 3.16 40.9 M49.64 81.72 C38.57 72.71, 27.73 62.46, 2.2 40.3 M58.15 78.71 C35.11 61.73, 19.27 44.05, 4.21 31.39 M57.52 77.43 C39.86 61.19, 20.53 45.94, 4.76 32.08 M66.18 73.61 C43.37 51.97, 20.59 35.4, 7.61 23.54 M65.48 73.53 C43.71 55.37, 23.48 36.13, 6.03 21.56 M73.31 71.09 C49.67 47.43, 27.76 30.3, 10.21 14.47 M72.48 68.63 C46.59 47.72, 23.18 26.65, 10.09 14.36 M75.52 62.95 C54.78 46.13, 37.25 28.04, 16.16 8.81 M76.62 62.43 C60.75 49.36, 45.81 33.87, 14.81 9.02 M79.64 56.69 C58.61 39.28, 43.05 22.28, 21.78 6.62 M79.83 55.18 C61.32 39.14, 42.87 22.57, 22.57 3.98 M83.4 48.28 C70.27 36.58, 56.92 21.59, 32.22 2.64 M83.79 47.6 C68.23 33.07, 50.38 18.13, 32.91 1.88 M83.58 37.46 C71.08 25.71, 54.98 12.74, 44.54 1.64 M84.07 37.18 C71.17 25.58, 57.53 13.51, 43.56 1.99 M82.16 24.23 C73.07 18.12, 65.45 10.44, 49.35 -4.91 M82.2 25.78 C74.06 17.01, 64.85 9.45, 49.95 -4.09"
       stroke="#fab005"
       stroke-width="1"
       fill="none"
       id="path7171" />
    <path
       d="M46.31 0.34 C53.29 0.33, 61.18 3.69, 67.01 8.22 C72.84 12.76, 78.95 20.47, 81.31 27.53 C83.67 34.6, 83.07 43.25, 81.17 50.62 C79.27 58, 75.37 66.47, 69.93 71.78 C64.48 77.09, 55.78 81.05, 48.5 82.5 C41.21 83.95, 33.16 83.29, 26.22 80.48 C19.28 77.66, 11.18 71.9, 6.85 65.6 C2.53 59.3, 0.64 50.13, 0.28 42.68 C-0.08 35.24, 1.08 27.27, 4.7 20.92 C8.32 14.58, 14.2 8, 21.97 4.62 C29.74 1.24, 45.71 0.76, 51.32 0.65 C56.93 0.54, 55.96 3.11, 55.63 3.96 M45.02 -0.19 C52.25 0.17, 61.83 5, 67.67 9.79 C73.5 14.59, 77.8 21.68, 80.02 28.57 C82.24 35.45, 82.74 43.92, 80.98 51.11 C79.22 58.31, 74.81 66.34, 69.44 71.74 C64.07 77.14, 55.84 82.07, 48.77 83.53 C41.71 84.98, 33.95 83.62, 27.04 80.46 C20.12 77.29, 12.02 70.84, 7.28 64.55 C2.54 58.27, -1.31 50.26, -1.4 42.74 C-1.49 35.23, 2.72 26, 6.72 19.46 C10.73 12.93, 16.16 6.78, 22.64 3.53 C29.12 0.28, 41.63 0.48, 45.61 -0.06 C49.6 -0.6, 46.68 -0.52, 46.57 0.3"
       stroke="#000000"
       stroke-width="2"
       fill="none"
       id="path7173" />
  </g>
  <g
     stroke-opacity="0.2"
     fill-opacity="0.2"
     stroke-linecap="round"
     transform="translate(296 689.5) rotate(0 41.5 41.5)"
     id="g7181">
    <path
       d="M6.17 21.26 C6.17 21.26, 6.17 21.26, 6.17 21.26 M6.17 21.26 C6.17 21.26, 6.17 21.26, 6.17 21.26 M2.17 38.99 C9.61 31.11, 15.7 20.36, 27.63 8.56 M1.68 38.42 C9.49 29.01, 18.98 17.78, 29.58 7.94 M6.37 46.12 C16.98 31.82, 29.99 21.2, 45.34 0.36 M5.48 45.14 C16.56 34.72, 25.49 21.48, 45.32 -0.85 M6.62 56.12 C21.12 42.66, 31.41 27.15, 52.94 4.32 M8.79 55.82 C23.6 38.2, 36.41 22.15, 53.17 3.51 M10.68 66.09 C26.52 46.75, 43.76 24.67, 60.65 5.03 M10.46 65.46 C27.68 46.34, 44.02 26.26, 62.14 7.23 M14.45 70.34 C26.5 56.84, 40.22 44.1, 66.95 11.89 M16.86 70.19 C30.33 55.54, 43.2 40.67, 67.72 10.96 M22.29 75.77 C40.66 55.06, 58.9 35.11, 73.01 15.94 M21.78 77.57 C40.12 56.71, 57.37 34.24, 72.83 16.57 M27.94 83.07 C43.31 65.88, 57.31 47.41, 76.67 24.28 M27.89 81.88 C41.31 65.78, 55.63 48.8, 77.27 24.59 M39.34 83.83 C47.67 71.61, 57.48 56.88, 83.73 30.32 M37.05 82.02 C49.77 67.76, 61.71 54.05, 83.67 30.35 M48.04 85.42 C58.91 72.56, 66.21 60.34, 84.8 43.23 M46.27 84.52 C58.12 72.41, 68.57 58.49, 83.74 42.48 M54.34 89.18 C61.83 78.61, 67.76 70.89, 83.57 53.48 M54.42 86.61 C66.17 74.2, 75.91 61.8, 83.14 54.37 M24.77 79.73 C24.77 79.73, 24.77 79.73, 24.77 79.73 M24.77 79.73 C24.77 79.73, 24.77 79.73, 24.77 79.73 M37.06 81.04 C29.3 71.91, 19.99 62.25, 11.9 57.69 M38.52 81.52 C32.61 75.69, 26.63 71.62, 12.01 58.95 M51.74 81.09 C37.92 70.39, 27.26 58.5, 3.88 39.32 M51 80.56 C33.04 64.85, 16.39 50.63, 2.9 40.22 M57.8 77.23 C38.24 60.73, 19 44.23, 6.67 30.94 M58.74 76.58 C43.04 63.68, 25.01 48.46, 4.32 30.66 M64.99 74.32 C52.54 62.23, 40.3 54.46, 8.8 20.93 M65.37 73.61 C45.86 55.53, 25.09 37.43, 8.02 21.45 M75.45 69.82 C48.47 47.65, 27.17 25.51, 11.65 13.88 M74.21 69.89 C49.47 46.52, 24.99 24.91, 11.66 16.28 M76.84 61.54 C57.44 45.7, 38.87 27.14, 16.64 10.6 M77.84 61.5 C55.8 45.09, 34.87 26.8, 17.49 10.3 M79.65 53.83 C67.58 43.37, 53.79 31.43, 21.84 2.34 M81.05 53.58 C58.67 34.59, 35.29 15.04, 23.53 4.33 M85.24 45.4 C62.04 28.54, 40.97 10.35, 28.97 0.55 M85.3 48.11 C70.06 36.42, 58.14 24.26, 28.1 -0.42 M83.12 37.02 C69.5 24.04, 52.1 9.25, 40.06 -4.85 M85.65 36.55 C74.84 27.36, 64.87 18.83, 38.98 -4.13 M84.87 26.41 C74.9 17.01, 69.96 12.75, 48.17 -2.99 M83.09 24.74 C69.65 13.49, 56.02 1.08, 49.67 -4.87"
       stroke="#fab005"
       stroke-width="1"
       fill="none"
       id="path7177" />
    <path
       d="M45.46 0.41 C52.65 0.81, 62.34 4.85, 68.18 9.71 C74.02 14.56, 78.4 22.48, 80.5 29.56 C82.6 36.64, 82.47 44.96, 80.78 52.17 C79.08 59.38, 75.63 67.8, 70.35 72.81 C65.07 77.81, 56.71 81.07, 49.1 82.21 C41.49 83.36, 31.55 82.69, 24.69 79.66 C17.82 76.62, 11.88 70.19, 7.9 63.99 C3.92 57.78, 1.07 49.57, 0.81 42.41 C0.55 35.25, 2.47 27.5, 6.37 21.03 C10.26 14.56, 16.95 7.14, 24.19 3.61 C31.43 0.09, 45.26 0.25, 49.8 -0.13 C54.35 -0.51, 51.65 0.4, 51.45 1.32 M52.39 0.82 C59.25 1.66, 66.86 6.32, 71.61 11.76 C76.36 17.2, 79.46 25.76, 80.87 33.46 C82.28 41.16, 82.38 51.15, 80.05 57.93 C77.73 64.71, 72.86 70.2, 66.92 74.14 C60.98 78.07, 51.85 80.95, 44.41 81.55 C36.98 82.15, 28.96 81.11, 22.3 77.74 C15.64 74.36, 7.91 67.91, 4.47 61.3 C1.03 54.7, 1.17 45.7, 1.66 38.09 C2.16 30.49, 3.1 21.73, 7.45 15.67 C11.8 9.6, 20.61 4.14, 27.75 1.7 C34.89 -0.74, 46.57 1.12, 50.28 1.01 C53.99 0.91, 49.82 0.28, 50.02 1.07"
       stroke="#000000"
       stroke-width="2"
       fill="none"
       id="path7179" />
  </g>
  <g
     stroke-linecap="round"
     transform="translate(555 339.5) rotate(0 41.5 41.5)"
     id="g7187">
    <path
       d="M9.16 17.23 C9.16 17.23, 9.16 17.23, 9.16 17.23 M9.16 17.23 C9.16 17.23, 9.16 17.23, 9.16 17.23 M-0.72 39.64 C6.52 31.59, 14.09 24.46, 31.59 3.4 M-0.08 39.41 C11.77 26.98, 22.61 13.37, 30 4.35 M3.11 48.29 C12.99 40.42, 19.85 28.9, 42.3 4.69 M1.88 48.32 C11.48 39.65, 19.82 29.78, 42.24 5.18 M6.72 57.78 C18.54 43.27, 34.34 26.39, 51.28 1.76 M5.49 59.15 C17.78 45.34, 29.16 31.17, 53.11 3.06 M9.27 65.88 C22.61 51.71, 33.67 37.1, 59.89 6.37 M10.11 63.79 C22.43 52.29, 33.39 36.84, 59.42 7.51 M17.35 72.5 C37.82 45.59, 59.57 22.72, 66.99 10.15 M15.16 70.3 C29.68 55.38, 42.46 40.97, 67.62 11.44 M20.84 76.45 C41.31 51.64, 64.96 28.79, 75.75 13.54 M20.94 77.68 C39.15 55.89, 58.17 34.71, 75.69 14.04 M26.82 83.59 C39.76 66.53, 52.46 49.53, 80.3 21.22 M25.71 83.89 C43.12 63.77, 58.02 44.3, 78.83 22.07 M34.2 86.18 C49.54 64.98, 69.1 46.28, 80.78 31.1 M35.33 85.21 C47.42 69.77, 60.91 57.38, 81.6 30.89 M45.18 82.61 C58.78 69.42, 70.08 58.42, 88.88 36.83 M45.76 83.82 C56.06 72.42, 64.84 63.45, 86.53 36.81 M62.32 76.64 C71.21 69.08, 75.25 61.88, 79.88 54.68 M63.25 77.06 C68.4 71.48, 71.92 66.8, 81.17 55.98 M20.55 78.48 C20.55 78.48, 20.55 78.48, 20.55 78.48 M20.55 78.48 C20.55 78.48, 20.55 78.48, 20.55 78.48 M35.4 80.55 C27.6 74.24, 14.64 66.07, 8.04 57.12 M36.33 81.21 C28.84 74.97, 23.82 70.11, 7.83 57.55 M48.37 81.74 C33.26 68.48, 22.03 57.44, 3.54 44.38 M47.36 80.76 C36.1 70.48, 25.61 63.33, 5.66 43.76 M56.13 75.94 C38.12 64.83, 23.68 49.24, 5.26 33.67 M55.05 76.96 C41.62 65.72, 29.65 53.52, 5.53 33.32 M64.02 73.12 C45.45 60.3, 28.28 42.08, 8.8 24.09 M63.86 73.18 C47.36 58.66, 29.85 44.68, 8.56 26.24 M71.69 66.98 C53.85 54.12, 38.63 43.52, 11.72 16.88 M70.85 67.92 C52.32 52.18, 34.15 37.11, 9.7 15.46 M73.84 63.59 C63.92 51.34, 50.01 40.29, 16.01 12.56 M75.42 63.36 C58.31 47.63, 42.86 33.94, 17.22 11.99 M78.03 56.12 C68.43 43.55, 55.26 33.14, 22.63 5.28 M80.28 56.04 C67.26 45.54, 55.92 36.33, 22.29 5.14 M83.34 48.21 C66.37 33.81, 50.71 18.17, 29.67 -0.7 M85.1 50.15 C63.71 32.21, 43.15 13.44, 28.29 0.99 M87.43 38.76 C69.64 24.27, 50.36 7.85, 40.77 -1.64 M86.66 40.3 C70.68 27.63, 56.49 14.5, 40.19 -0.36 M84.26 30.46 C70.02 16.78, 59.8 5.41, 52.64 -0.04 M85.64 27.93 C74.11 19.31, 60.64 7.46, 51.21 -0.54"
       stroke="#40c057"
       stroke-width="1"
       fill="none"
       id="path7183" />
    <path
       d="M26.82 2.6 C33.14 -0.42, 42.26 -0.94, 49.62 0.56 C56.97 2.06, 65.59 6.18, 70.93 11.6 C76.28 17.01, 80.08 25.77, 81.68 33.06 C83.29 40.35, 83.16 48.51, 80.54 55.34 C77.92 62.17, 71.89 69.53, 65.97 74.02 C60.05 78.5, 52.54 81.46, 45.02 82.25 C37.49 83.03, 27.44 82.34, 20.83 78.73 C14.23 75.12, 8.84 67.21, 5.39 60.57 C1.95 53.93, -0.5 46.12, 0.14 38.88 C0.79 31.64, 4.54 23.25, 9.25 17.12 C13.97 11, 24.55 4.49, 28.42 2.11 C32.29 -0.27, 31.99 2.24, 32.49 2.84 M34.36 -0.18 C41.07 -2.04, 49.54 -1.04, 56.63 2.01 C63.73 5.07, 72.58 11.62, 76.92 18.13 C81.27 24.65, 82.98 33.43, 82.72 41.1 C82.47 48.78, 79.35 57.93, 75.4 64.2 C71.45 70.48, 65.46 75.49, 59.02 78.73 C52.58 81.98, 44.05 84.51, 36.77 83.67 C29.49 82.83, 21.02 78.82, 15.34 73.68 C9.65 68.55, 4.74 60.28, 2.66 52.87 C0.58 45.47, 0.79 36.2, 2.85 29.26 C4.91 22.32, 9.44 16, 15 11.21 C20.56 6.42, 33.06 2.12, 36.22 0.52 C39.37 -1.08, 34.14 1.07, 33.93 1.63"
       stroke="#000000"
       stroke-width="2"
       fill="none"
       id="path7185" />
  </g>
  <g
     stroke-linecap="round"
     transform="translate(292 347.5) rotate(0 41.5 41.5)"
     id="g7193">
    <path
       d="M11.79 12.9 C11.79 12.9, 11.79 12.9, 11.79 12.9 M11.79 12.9 C11.79 12.9, 11.79 12.9, 11.79 12.9 M4.88 33.36 C8.62 29.23, 15.56 21.31, 30.88 2.05 M3.04 33.97 C10.74 26.49, 16.23 19.08, 32.65 2.31 M2.3 45.16 C19.36 29.45, 30.96 16.3, 42.02 2.47 M4.72 46.57 C15.38 33.24, 26.44 21.08, 42.22 2.39 M3.07 58.27 C16.97 45.06, 31.32 28.2, 53.21 4.17 M4.82 58.02 C13.51 46.9, 23.03 35.45, 52.57 2.89 M10.09 64.95 C30.45 43.46, 49.45 19.4, 61.07 6.88 M10.55 64.98 C30.03 42, 47.74 18.51, 60.37 6.79 M12.6 71.29 C24.34 59.06, 37.42 43.43, 67.38 12.92 M15.11 71.17 C31.79 51.59, 49.42 30.43, 66.55 10.46 M20.63 77.95 C30.34 63.59, 45.19 47.7, 73.2 15.86 M20.07 77.15 C32.12 61.01, 45.09 46.23, 74.3 15.34 M25.81 78.35 C42.67 61.05, 61.32 41.67, 80.27 21.45 M28.08 79.56 C39.44 66.92, 48.61 54.46, 80.46 19.94 M35.47 83.34 C46.71 67.67, 62 54.04, 83.05 29.42 M34.94 82.88 C51.81 63.84, 67.47 44.15, 83.44 28.73 M42.58 88.22 C57.55 69.07, 76.15 49.58, 83.96 39.1 M43.51 87.51 C58.96 68.42, 73.77 49.46, 84.45 38.82 M55.09 84.64 C65.22 74.23, 69.59 65.81, 80.94 53.63 M56.87 82.73 C61.88 76.06, 68.23 69.49, 80.98 55.17 M17.93 75.4 C17.93 75.4, 17.93 75.4, 17.93 75.4 M17.93 75.4 C17.93 75.4, 17.93 75.4, 17.93 75.4 M37.03 81.19 C31.3 74.66, 20.76 67.68, 3.24 54.73 M39.7 83.48 C29.89 75.57, 19.54 67.74, 4.27 54.4 M43.51 78.14 C29.89 64.59, 18.78 52.53, 4.92 42.39 M44.57 77.26 C33.57 66.27, 19.63 55.55, 3.68 42.07 M53.48 75.52 C36.56 60.3, 13.73 39.72, 1.25 28.91 M54.98 75.5 C38.61 59.85, 21.55 46.81, 3.67 29.55 M66.54 72.93 C44.94 56, 24.38 41.49, 5.31 23.29 M65.36 73.99 C49.27 60.85, 32.12 46.83, 5.68 22.06 M70.57 68.47 C57.21 57.29, 41.07 43.17, 9.28 18.1 M71.36 67.9 C54.56 54.05, 39.52 40.72, 10.65 16.87 M76.24 62.47 C55.19 43.12, 31.77 25.29, 13.39 7.92 M76.3 62.62 C53.94 43.02, 31.09 24.32, 13.91 8.76 M80.69 55.1 C67.3 46.65, 58.07 33.46, 20.39 6.56 M82.8 56.39 C57.9 35.45, 34.23 15.02, 21.54 4.36 M85.02 46.23 C68.8 35.41, 56.17 20.31, 28.5 1.25 M84.18 47.23 C70.4 34.57, 56.84 23.07, 29.28 1.35 M85.15 36.57 C70.02 22.22, 52.31 11.68, 38.16 -2.88 M83.29 37.19 C70.31 23.79, 54.82 12.6, 37.24 -3.99 M76.14 21.25 C70.9 12.81, 62.91 8.81, 53.95 0.95 M78.73 20.91 C69.06 14.52, 61.19 6.14, 55.73 2.08"
       stroke="#fab005"
       stroke-width="1"
       fill="none"
       id="path7189" />
    <path
       d="M32.29 1.29 C39.13 -0.71, 48.09 0.63, 55.11 2.9 C62.14 5.17, 69.76 9, 74.47 14.93 C79.19 20.85, 82.64 30.96, 83.41 38.45 C84.18 45.95, 82.7 53.28, 79.08 59.88 C75.45 66.49, 68.17 74.13, 61.65 78.08 C55.14 82.04, 47.26 84.07, 39.98 83.63 C32.69 83.18, 24.23 79.99, 17.96 75.43 C11.7 70.87, 5.26 63.35, 2.38 56.26 C-0.5 49.16, -0.86 40.06, 0.69 32.86 C2.23 25.66, 6.11 18.58, 11.64 13.07 C17.16 7.57, 29.52 1.76, 33.84 -0.15 C38.16 -2.07, 37.19 0.65, 37.53 1.6 M48.18 0.48 C55.08 1.16, 62.09 6.5, 67.58 11.4 C73.06 16.29, 78.62 23.11, 81.09 29.87 C83.57 36.63, 84.4 44.89, 82.44 51.95 C80.47 59.02, 75.07 67.02, 69.28 72.27 C63.48 77.52, 55.35 82.46, 47.66 83.44 C39.97 84.42, 30.08 81.18, 23.14 78.15 C16.19 75.12, 9.62 71.2, 5.99 65.25 C2.35 59.3, 1.37 50.18, 1.34 42.46 C1.3 34.74, 2.14 25.33, 5.76 18.94 C9.38 12.55, 15.96 7.35, 23.05 4.1 C30.14 0.86, 44.35 0.11, 48.28 -0.54 C52.22 -1.19, 46.78 -0.79, 46.67 0.2"
       stroke="#000000"
       stroke-width="2"
       fill="none"
       id="path7191" />
  </g>
  <g
     stroke-opacity="0.2"
     fill-opacity="0.2"
     stroke-linecap="round"
     transform="translate(296 578.5) rotate(0 41.5 41.5)"
     id="g7199">
    <path
       d="M18.47 6.78 C18.47 6.78, 18.47 6.78, 18.47 6.78 M18.47 6.78 C18.47 6.78, 18.47 6.78, 18.47 6.78 M9.83 29.78 C19.76 17.82, 26.84 7.97, 33.3 3.46 M9.26 28.59 C17.74 20.32, 24.4 12.28, 32.69 2.71 M2.36 49.6 C9.36 41.55, 20 29.15, 43.97 1.29 M1.38 50.59 C17.51 32.32, 30.88 15.17, 42.76 1.75 M6.75 58.91 C18.51 44.36, 28.2 30.59, 52.85 4.71 M6.45 58.66 C15.55 45.07, 26.28 33.42, 52.04 4.81 M9.6 65.07 C22.29 50.89, 32.23 37.83, 59.24 7.36 M8.97 66.36 C21.4 51.77, 32.82 39.98, 61.45 5.78 M13.34 72.01 C26.67 58.85, 40.83 39.72, 70.37 8.65 M13.18 73.83 C27.29 57.4, 41.19 40.49, 69.43 10.18 M19.45 77.94 C31.86 63.86, 44.97 49.66, 73.04 16.84 M21.25 78.04 C42.32 52.97, 61.72 30, 73.67 15.62 M28.2 82.89 C42.91 64.77, 56.44 47.06, 79.25 21.49 M27.01 81.85 C48.5 57.38, 69.13 33.83, 79.56 20.96 M35.59 86.02 C55.51 61.65, 73.03 39.93, 84.67 27.16 M33.78 85.84 C51.05 65.69, 68.9 47.38, 84.7 27.37 M46.99 86.89 C53.98 74.37, 61.54 67.27, 86.98 38.16 M46.09 85.14 C54.58 75.54, 61.28 67.24, 86.23 37.75 M59.05 84.12 C68.29 69.71, 80.4 58.28, 85.42 52.6 M56.48 84.62 C65.58 73.22, 74.73 63.39, 86.32 50.2 M9.54 69.81 C9.54 69.81, 9.54 69.81, 9.54 69.81 M9.54 69.81 C9.54 69.81, 9.54 69.81, 9.54 69.81 M32.28 79.92 C22.49 72.04, 11.87 61.06, 1.05 51.17 M32.76 78.88 C24.28 72.24, 17.71 65.12, 2.31 52.18 M44.5 78.64 C31.21 68.49, 16.18 56.21, 4.07 45.14 M43.97 78.41 C32.59 69.32, 21.96 59.49, 4.96 44.61 M55.35 77.2 C39.08 63.49, 23.68 51.71, 5.83 34.96 M54.69 78.88 C45.36 68.57, 34.2 58.74, 5.54 33.69 M64.01 72.51 C42.87 55.29, 26.37 41.64, 4.44 24.83 M63.31 73.76 C45.36 56.65, 26.34 42.25, 4.96 24.87 M71.1 68.02 C57.51 60.03, 43.35 48.03, 9.33 19.97 M71.16 69.89 C57.27 59.36, 44.37 47.77, 11.73 18.22 M76.93 65.18 C54.45 45.49, 29.28 23.37, 16.58 12.19 M76.89 64.54 C56.65 46.54, 35.55 29.42, 16.29 10.61 M79.55 56.72 C66.68 43.63, 52.24 30.65, 18.2 6.27 M79.3 57.15 C59.31 38.03, 38.43 21.49, 20.19 5.54 M82.21 48.51 C73.92 39.95, 63.81 30.44, 31.57 1.3 M84.91 48.75 C63.47 32.75, 42.56 13.48, 30.6 3.08 M88.2 43.67 C73.81 28.86, 57.81 16.1, 37.29 -1.76 M87.73 42.62 C74.03 32.19, 61.58 20.42, 38.01 -1.09 M87.33 28.61 C72.92 21.63, 64.03 9.42, 46.7 -3.04 M85.66 29.83 C69.84 15.25, 52.98 1.48, 44.82 -4.07"
       stroke="#fab005"
       stroke-width="1"
       fill="none"
       id="path7195" />
    <path
       d="M41.37 0.4 C48.64 -0.17, 57.6 2.18, 64.04 5.97 C70.48 9.77, 76.9 16.17, 80.02 23.16 C83.13 30.15, 83.77 40.3, 82.73 47.94 C81.69 55.58, 78.67 63.56, 73.76 69.01 C68.85 74.45, 60.56 78.42, 53.27 80.59 C45.97 82.77, 37.31 83.88, 30 82.06 C22.68 80.24, 14.35 75.33, 9.38 69.67 C4.41 64.01, 0.99 55.43, 0.2 48.07 C-0.6 40.71, 1.61 32.33, 4.61 25.5 C7.61 18.67, 11.4 11.46, 18.2 7.1 C25 2.75, 40.1 0.23, 45.43 -0.63 C50.75 -1.49, 49.99 1.02, 50.15 1.94 M58.88 4.18 C65.32 6.24, 71.7 11.84, 75.72 18.14 C79.74 24.43, 82.74 34.04, 83.01 41.94 C83.29 49.84, 81.64 59.15, 77.35 65.52 C73.05 71.9, 64.52 77.12, 57.25 80.18 C49.97 83.24, 40.9 85.19, 33.72 83.88 C26.54 82.56, 19.41 77.24, 14.15 72.3 C8.89 67.35, 4.15 61.59, 2.15 54.22 C0.15 46.84, 0.12 35.43, 2.15 28.04 C4.19 20.64, 8.81 14.58, 14.35 9.83 C19.9 5.09, 27.98 0.68, 35.43 -0.45 C42.89 -1.57, 55.32 2, 59.07 3.09 C62.83 4.18, 58.15 5.28, 57.97 6.09"
       stroke="#000000"
       stroke-width="2"
       fill="none"
       id="path7197" />
  </g>
  <g
     stroke-linecap="round"
     transform="translate(555 228.5) rotate(0 41.5 41.5)"
     id="g7205">
    <path
       d="M20.82 4.85 C20.82 4.85, 20.82 4.85, 20.82 4.85 M20.82 4.85 C20.82 4.85, 20.82 4.85, 20.82 4.85 M11.01 28.07 C14.95 24.04, 19.83 19.54, 32.35 3.1 M10.78 29.51 C20.03 19.11, 28.09 7.57, 33.3 1.01 M2.8 51.07 C19.42 32.54, 32.33 16.47, 45.71 -0.6 M2.83 49.46 C16.81 34.99, 29.5 20.94, 46.21 0.92 M5.93 57.28 C22.16 41.88, 35.97 21.9, 51.58 2.98 M7.3 57.96 C16.98 45.94, 26.29 35.16, 52.88 3.39 M12.1 65.41 C27.05 47.17, 41.5 29.83, 60.46 5.75 M10 65.45 C28.99 45.38, 43.95 25.93, 61.6 7.97 M16.78 73.49 C25.58 60.53, 38.33 44.49, 67.85 9.65 M14.59 73.47 C27.87 58.32, 41.59 42.09, 69.14 11.59 M20.67 76.27 C30.85 66.42, 42.97 53.23, 72.22 18.26 M21.9 77.11 C35.09 61.62, 48.88 46.06, 72.72 17.2 M29.15 80.93 C47.34 57.42, 65.63 39.22, 77.02 23.86 M29.45 81.78 C46.9 58.9, 65.04 39.22, 77.87 23.93 M40.25 79.87 C53.55 65.26, 69.33 44.05, 84.77 28.66 M39.27 81.09 C47.34 71.39, 58.48 58.96, 84.56 29.37 M46.78 83.88 C60.48 68.3, 76.36 54.29, 85.19 38.64 M47.99 83.07 C57.35 71.28, 69.14 59.84, 85.16 40.44 M54.98 88.53 C61.32 78.85, 67.91 70.36, 84.34 50.85 M55.41 87.61 C61.33 79.24, 68.15 71.7, 85.63 51.81 M9.94 67.83 C9.94 67.83, 9.94 67.83, 9.94 67.83 M9.94 67.83 C9.94 67.83, 9.94 67.83, 9.94 67.83 M31.37 77.87 C23.61 66.09, 14.15 58.97, 0.61 47.84 M32.02 75.53 C22.28 69.45, 14.23 61.02, 1.04 49.4 M46.9 76.75 C29.21 65.68, 14.42 50.02, 4.11 40.3 M45.92 76.74 C34.23 68.07, 26.05 60.43, 3.49 41.34 M55.8 74.74 C41.73 60.94, 22.35 47.48, 6.25 31.94 M56.82 76.38 C39.51 62.6, 21.59 46.92, 5.91 32.7 M63.15 70.31 C52.78 58.72, 36.07 49.83, 4.65 22.02 M63.21 72.61 C41.63 54.04, 21.5 36.71, 6.8 21.57 M70 67.91 C47.89 48.51, 27.65 30.86, 12.01 16.1 M70.94 69.03 C53.73 54.22, 36.88 37.77, 10.59 15.31 M77.14 63.5 C63.93 51.71, 52.02 38.58, 17.66 9.56 M76.91 61.29 C56.92 45.29, 37.97 28.35, 17.09 9.23 M80.11 56.29 C58.01 37.4, 37.99 17.5, 21.01 2 M80.02 53.87 C56.53 35.19, 35.36 15.85, 20.87 3.98 M82.73 46.79 C61.6 29.43, 39.69 11.18, 29.43 2.57 M84.67 47.2 C69.09 34.01, 52.95 20.28, 31.12 2 M80.95 36.9 C65.59 21.87, 48.72 8.85, 39.06 -0.61 M82.49 34.82 C66.3 21.75, 50.01 8.25, 40.34 -0.05 M82.39 21.52 C67.86 13.76, 55.76 3.34, 48.2 -4.58 M79.87 24.02 C73.82 16.18, 64.87 10.27, 47.71 -6.33"
       stroke="#40c057"
       stroke-width="1"
       fill="none"
       id="path7201" />
    <path
       d="M42.91 -0.71 C50.03 -1, 58.67 3.12, 64.73 7.44 C70.78 11.76, 76.24 18.27, 79.24 25.19 C82.24 32.11, 84.04 41.61, 82.7 48.97 C81.37 56.33, 76.49 63.8, 71.23 69.35 C65.96 74.9, 58.34 80.48, 51.1 82.28 C43.87 84.08, 34.65 82.54, 27.81 80.14 C20.96 77.75, 14.77 73.61, 10.04 67.92 C5.32 62.24, 0.34 53.36, -0.55 46.03 C-1.43 38.7, 1.18 30.79, 4.73 23.94 C8.29 17.08, 14.06 8.77, 20.79 4.89 C27.52 1.01, 40.67 1.15, 45.12 0.67 C49.57 0.19, 47.6 1.48, 47.48 2.03 M37.86 -1.39 C44.75 -2.23, 53.33 2.18, 59.95 5.97 C66.57 9.76, 73.7 15.17, 77.57 21.36 C81.44 27.56, 83.5 35.67, 83.17 43.12 C82.83 50.57, 80.11 59.77, 75.54 66.06 C70.97 72.36, 62.72 78.16, 55.74 80.91 C48.76 83.65, 40.86 84.1, 33.65 82.55 C26.45 81, 18.13 76.76, 12.52 71.61 C6.91 66.46, 1.83 58.89, -0.02 51.65 C-1.87 44.4, -1.45 35.16, 1.43 28.15 C4.32 21.13, 11.1 14.41, 17.29 9.55 C23.48 4.68, 34.96 0.51, 38.57 -1.03 C42.17 -2.58, 38.99 -0.86, 38.91 0.27"
       stroke="#000000"
       stroke-width="2"
       fill="none"
       id="path7203" />
  </g>
  <g
     stroke-opacity="0.3"
     fill-opacity="0.3"
     stroke-linecap="round"
     transform="translate(556 576.5) rotate(0 41.5 41.5)"
     id="g7211">
    <path
       d="M7.85 18.75 C7.85 18.75, 7.85 18.75, 7.85 18.75 M7.85 18.75 C7.85 18.75, 7.85 18.75, 7.85 18.75 M1.11 39.45 C13.03 28.91, 23.16 15.94, 29.21 6.83 M1.64 38.96 C12.58 25.45, 23.02 14.08, 29.01 6.3 M5.74 42.73 C17.79 34.15, 28.21 21.24, 40.45 5.34 M6.22 43.62 C19.16 30.19, 29.18 17.32, 40.36 5.17 M8.26 53.66 C24.4 35.91, 35.51 20.23, 51.27 2.57 M9.02 53.33 C24.69 35.09, 41.96 16.83, 51.9 4.44 M11.5 66.37 C20.91 51.54, 30.69 42.19, 61.63 7.99 M9.38 65.08 C23.04 52.01, 35.43 36.61, 60.18 7.86 M14.21 72.72 C29.98 58.35, 40.98 40.54, 66.5 10 M15.32 72.21 C30.35 54.87, 43.98 38.89, 68.37 10.3 M22.6 77.86 C33.59 60.9, 45.54 45.93, 73.37 13.42 M20.69 76.78 C33.58 62.22, 46.65 46.92, 74.25 15.3 M26.18 83.57 C46.32 61.93, 63.41 40.28, 80.88 21.69 M27.45 83.03 C45.44 62.15, 63.21 42.05, 78.39 22.23 M34.24 84.19 C47.95 67.24, 63.7 54.13, 84.01 31.22 M35.78 84.12 C48.7 70.93, 59.06 56.83, 83.88 30.58 M46.82 82.64 C55.31 73.12, 67.81 60.51, 86.17 37.69 M47.47 84.26 C59.14 68.85, 72.64 53.14, 87.91 37.2 M64.39 75.74 C68.01 70.19, 70.53 69.16, 81.31 56.22 M65.24 74.91 C71.13 67.23, 78.35 59.61, 82.5 54.53 M22.76 78.99 C22.76 78.99, 22.76 78.99, 22.76 78.99 M22.76 78.99 C22.76 78.99, 22.76 78.99, 22.76 78.99 M36.06 79.69 C28.89 74.71, 19.64 66.49, 12.54 57 M37.94 81.81 C28.06 73.46, 21.26 66.24, 10.73 57.3 M47.6 80.61 C36.79 70.08, 25.4 58.4, 1.07 38.44 M48.78 81.03 C35.61 68.72, 22.37 56.76, 0.83 38.73 M55.29 76.73 C40.08 63.72, 26.48 50.24, 4.93 29.77 M55.91 76.04 C36.24 58.38, 15.8 40.48, 3.9 31.23 M65.21 72.93 C52.78 58.39, 37.86 46.15, 6.27 20.95 M65.85 72.8 C43.68 54.36, 22.69 36.35, 6.21 23.07 M72.09 67.67 C50.36 51.07, 28.83 30.98, 10.03 17.18 M72.43 69.01 C51.46 51.43, 31.43 33.04, 11.31 14.64 M76.92 60.61 C53.86 44.57, 33.12 21.59, 16.23 10.64 M76.88 61.75 C56.01 43.64, 33.21 23.79, 15.74 9.26 M83.04 54.22 C69.35 44.26, 56.39 32.65, 22.77 6.34 M81.5 56.04 C70.38 45.59, 57.29 34.79, 22.4 4.85 M87.88 48.91 C69.49 34.33, 51 21.24, 29.72 0.36 M85.92 49.92 C75.61 40.11, 63.34 28.92, 28.37 -0.73 M87.78 38.77 C73.8 26.92, 60.6 17.16, 41.43 -0.56 M87.42 39.2 C68.61 22.79, 52.16 9.28, 39.6 -2.2 M86.67 28.37 C77.91 19.66, 66.08 12.23, 52.04 -1.04 M86.17 28.18 C73.91 16.29, 60.43 6.07, 51.84 -1.88"
       stroke="#40c057"
       stroke-width="1"
       fill="none"
       id="path7207" />
    <path
       d="M49.45 0.12 C56.81 0.78, 65.14 5.66, 70.56 10.96 C75.99 16.26, 80.11 24.65, 82 31.94 C83.88 39.22, 84.16 47.79, 81.88 54.66 C79.59 61.54, 74.16 68.57, 68.29 73.19 C62.41 77.82, 54.21 81.44, 46.63 82.41 C39.04 83.38, 29.48 82.33, 22.78 79 C16.07 75.67, 10.01 69.01, 6.38 62.42 C2.75 55.84, 0.75 46.75, 0.99 39.48 C1.22 32.21, 3.71 24.79, 7.8 18.81 C11.89 12.82, 17.67 6.21, 25.54 3.57 C33.42 0.93, 49.19 2.54, 55.05 2.96 C60.91 3.38, 61.08 5.56, 60.71 6.09 M37.67 0.22 C44.66 -0.76, 54.68 2.49, 61.17 5.78 C67.66 9.07, 73.01 13.54, 76.61 19.95 C80.21 26.37, 83.11 36.72, 82.75 44.28 C82.4 51.85, 78.79 59.36, 74.46 65.34 C70.12 71.32, 63.81 77.52, 56.74 80.19 C49.68 82.86, 39.53 82.65, 32.08 81.36 C24.63 80.06, 17.39 77.48, 12.06 72.43 C6.72 67.37, 1.62 58.44, 0.1 51.01 C-1.43 43.57, 0.03 35.09, 2.9 27.82 C5.78 20.54, 11.48 12.03, 17.35 7.35 C23.22 2.66, 34.96 0.82, 38.13 -0.29 C41.29 -1.39, 36.34 -0.02, 36.34 0.72"
       stroke="#000000"
       stroke-width="2"
       fill="none"
       id="path7209" />
  </g>
  <g
     stroke-linecap="round"
     transform="translate(292 228.5) rotate(0 41.5 41.5)"
     id="g7217">
    <path
       d="M8.19 17.72 C8.19 17.72, 8.19 17.72, 8.19 17.72 M8.19 17.72 C8.19 17.72, 8.19 17.72, 8.19 17.72 M0.46 39.11 C7.73 32.58, 11.2 25.3, 27.15 4.73 M0.35 38.99 C8.76 30.24, 16.43 18.86, 29.12 5.82 M6.45 44.08 C18.12 28.25, 32.22 15.55, 41.38 5.1 M5.1 44.28 C19.42 30.06, 32.81 13.86, 41.6 3.93 M7.41 56.39 C23.67 34.47, 39.83 18.71, 53.53 2.67 M8.2 53.75 C22.4 38.25, 37.57 20.97, 53.02 3.74 M9.52 65.04 C27.52 43.17, 43.97 24.56, 60.42 8.88 M10.21 64.28 C27.13 46.09, 43.69 26, 59.94 7.85 M17.35 70.73 C33.72 47.7, 50.32 28.51, 66.87 10.25 M16.37 71.08 C29.77 53.94, 43.74 37.68, 66.65 10.04 M20.78 74.91 C36.57 57.86, 52.51 38.23, 74.64 15.58 M21.38 75.73 C32.56 63.45, 45.93 47.71, 73.97 15.62 M26.79 83.46 C48.39 60.75, 67.31 34.46, 78.38 21.31 M25.21 82.97 C39.97 66.91, 54.15 50.36, 79.22 21.79 M35.52 85.13 C49.32 67.35, 63.69 51.38, 84.3 30.37 M35.03 84.17 C52.8 64.71, 71.31 42.79, 82.76 29.58 M44.47 86.45 C55.31 70.23, 67.27 56.64, 86.93 37.8 M45.4 85.34 C60.46 67.56, 72.97 51.24, 86.72 36.55 M62.35 78.3 C65.67 72.88, 73.92 68.07, 79.34 56.51 M62.02 76.71 C68.27 68.62, 76.03 61.34, 81.16 55.58 M22.02 78.32 C22.02 78.32, 22.02 78.32, 22.02 78.32 M22.02 78.32 C22.02 78.32, 22.02 78.32, 22.02 78.32 M38.03 80.54 C28.37 74.04, 19.94 67.12, 10.21 57.55 M38.42 82.38 C28.07 72.81, 18.63 64.1, 8.61 57.16 M48.01 79.71 C32.32 65.59, 18.82 52.17, 0.35 36.98 M47.54 79.24 C32.21 66.85, 15.19 51.04, 1.63 39.62 M55.9 76.04 C37.95 60.23, 19.62 44.12, 2.67 30 M56.02 76.68 C37.04 60.18, 15.26 40.94, 4 30.21 M63.73 73.39 C48.52 60.91, 34.19 46.31, 7.76 23.23 M63.7 73.33 C46.4 57.57, 30.64 43.67, 7.28 22.77 M71.11 70.45 C51.19 52.19, 35.72 37.11, 10.27 16.3 M71.49 68.98 C46.56 47.41, 23.87 25.3, 10.05 15.98 M74.79 60.17 C64.23 50.25, 48.99 40.71, 16.88 10.6 M77 60.99 C61.82 49, 46.94 35.64, 15.9 9.21 M81.12 56.19 C60.34 36.31, 40.73 20.69, 21.93 4.68 M80.87 53.84 C62.59 39.55, 45.02 23.51, 22.96 4.91 M80.36 43.65 C59.93 26.2, 39.43 9.83, 29.84 -0.56 M81.03 44.93 C61.54 27.47, 40.98 10.61, 30.23 -1.05 M80.83 35.68 C66.35 23.97, 53.75 10.29, 41.25 -1.29 M82.81 34.21 C70.36 24.53, 56.59 13.01, 39.72 -1.82 M87.59 27.38 C72.37 14.72, 59.13 6.05, 53.29 -1.28 M85.46 27.18 C78.44 21.21, 71.01 15.2, 52.6 -0.96"
       stroke="#fab005"
       stroke-width="1"
       fill="none"
       id="path7213" />
    <path
       d="M49.71 1.23 C56.99 2.33, 65.79 7.38, 71.24 12.42 C76.68 17.46, 80.96 24.33, 82.36 31.44 C83.76 38.55, 82.09 47.99, 79.62 55.07 C77.15 62.15, 73.38 69.15, 67.55 73.93 C61.72 78.71, 52.24 83.03, 44.64 83.75 C37.04 84.48, 28.56 82.07, 21.97 78.28 C15.37 74.48, 8.78 67.43, 5.09 60.99 C1.4 54.54, -0.76 46.87, -0.2 39.6 C0.37 32.33, 4.18 23.36, 8.5 17.37 C12.81 11.38, 18.66 6.37, 25.69 3.68 C32.73 0.99, 46.1 1.48, 50.69 1.24 C55.28 0.99, 53.16 1.67, 53.24 2.22 M29.91 3.12 C36.41 0.51, 44.59 0.65, 51.78 2.15 C58.97 3.64, 67.76 6.43, 73.06 12.08 C78.35 17.73, 82.33 28.43, 83.56 36.04 C84.78 43.64, 83.58 50.94, 80.43 57.69 C77.28 64.45, 71.04 72.28, 64.65 76.54 C58.26 80.81, 49.45 83.25, 42.09 83.3 C34.73 83.35, 26.58 80.88, 20.49 76.82 C14.4 72.77, 8.95 65.59, 5.57 58.94 C2.18 52.3, -0.58 44.11, 0.17 36.93 C0.93 29.74, 5.12 21.61, 10.11 15.85 C15.11 10.08, 26.96 4.32, 30.14 2.33 C33.32 0.35, 29.17 3.09, 29.18 3.91"
       stroke="#000000"
       stroke-width="2"
       fill="none"
       id="path7215" />
  </g>
  <g
     stroke-linecap="round"
     transform="translate(555 109.5) rotate(0 41.5 41.5)"
     id="g7223">
    <path
       d="M11.25 12.43 C11.25 12.43, 11.25 12.43, 11.25 12.43 M11.25 12.43 C11.25 12.43, 11.25 12.43, 11.25 12.43 M1.96 33.83 C10.14 26.22, 17.76 17.12, 33.68 2.17 M3.4 34.85 C15.38 20.17, 26.13 6.65, 31.6 0.79 M5.41 46.78 C12.06 35.54, 21.16 26.65, 36.81 5.67 M3.8 45.82 C11.72 37.07, 20.08 28.92, 38.33 5.72 M3.49 57.89 C14.5 46.18, 20.98 33.9, 47.38 4.48 M4.16 57.89 C15.31 43.45, 27.72 29.34, 47.79 6.32 M9.49 64.12 C20.74 49.32, 32.84 35.15, 58.45 6.13 M9.53 64.55 C19.88 50.38, 30.84 38.6, 60.68 4.69 M14.78 68.68 C26.27 56.55, 34.74 43.81, 65.31 8.99 M14.75 69.47 C27.25 55.95, 38.64 42.97, 67.25 9.06 M18.45 74.54 C33.56 61.63, 45.36 46.22, 73.19 14.54 M19.28 75.86 C33.08 60.19, 46.86 44.32, 72.13 16.02 M27.38 79.37 C45.13 56.18, 68.25 32.31, 78.83 21.85 M28.22 79.39 C45.66 56.84, 66.29 33.94, 78.91 20.96 M32.94 81.66 C47.36 68.85, 55.15 58.19, 81.04 26.93 M34.16 82.26 C51.43 65.26, 65.98 46.21, 81.75 29.33 M42.17 86.31 C53.37 76.09, 66.07 61.35, 82.59 37.85 M41.36 86.72 C53.6 74.28, 66.12 58.39, 84.39 37.71 M57 82.73 C60.57 76.25, 65.35 69.19, 78.3 54.13 M56.07 83.07 C62.4 75.12, 69.56 66.9, 79.27 55.13 M16.72 73.75 C16.72 73.75, 16.72 73.75, 16.72 73.75 M16.72 73.75 C16.72 73.75, 16.72 73.75, 16.72 73.75 M40.22 83.71 C26.14 74.48, 16.65 63.11, 3.87 52.79 M37.87 81.31 C26.94 71.57, 14.08 61.83, 5.44 53.86 M47.69 79.09 C32.04 64.78, 12.38 51.25, 3.56 40.82 M47.69 79.13 C32.16 68.02, 18.04 53.53, 4.59 42.32 M55.49 78.85 C44.49 66.21, 34.3 57.48, 3.06 31.49 M57.14 77.48 C40.32 61.12, 21.49 45.85, 3.82 29.98 M63.3 75.21 C50.72 61.04, 41.16 50.87, 7.52 24.51 M65.61 72.4 C42.2 53.38, 20.5 35.3, 7.07 24.16 M70.31 66.88 C54.1 55.25, 40.47 40.32, 10.62 15.25 M71.44 67.59 C54.96 53.85, 37.59 38.18, 9.83 14.49 M77.85 62.38 C59.15 47.1, 38.21 30.39, 14.6 9.23 M75.64 61.7 C63.86 51.65, 51.11 40.5, 14.28 9.26 M83.24 54.8 C66.21 40.69, 47.14 24.82, 19.84 5.55 M80.82 55.03 C57.46 35.62, 33.83 14.01, 21.83 4.92 M82.66 45.89 C66.09 28.63, 47.7 12.74, 30.68 -0.32 M83.08 47.53 C65.78 31.72, 47.88 16.74, 30.11 0.67 M86.09 36.65 C67.43 20.77, 51.41 6.21, 37.12 -2.58 M84.01 37.33 C67.8 22.92, 51.78 8.77, 37.67 -3.53 M75.82 20.17 C69.91 12.72, 61.1 6.08, 50.67 -5.13 M78.33 21.59 C67.01 11.53, 57.91 3.82, 48.92 -3.14"
       stroke="#40c057"
       stroke-width="1"
       fill="none"
       id="path7219" />
    <path
       d="M32.25 0.49 C39.13 -1.63, 49.31 -0.64, 56.36 2.15 C63.41 4.94, 70.08 11.23, 74.54 17.23 C78.99 23.23, 82.61 30.88, 83.08 38.16 C83.56 45.45, 80.96 54.4, 77.39 60.94 C73.83 67.48, 68.35 73.63, 61.7 77.42 C55.04 81.22, 44.97 84.3, 37.47 83.69 C29.98 83.08, 22.53 78.35, 16.71 73.74 C10.89 69.14, 5 62.89, 2.54 56.08 C0.09 49.27, 0.49 40.2, 1.97 32.89 C3.45 25.58, 5.57 17.52, 11.42 12.24 C17.28 6.95, 32.16 3.08, 37.1 1.17 C42.05 -0.74, 41.15 0.28, 41.09 0.8 M32.84 -0.84 C39.98 -2.58, 51.35 -0.32, 58.45 2.87 C65.55 6.05, 71.57 11.91, 75.43 18.27 C79.29 24.64, 81.39 33.67, 81.61 41.06 C81.83 48.45, 80.29 56.18, 76.76 62.62 C73.22 69.06, 66.97 76.29, 60.4 79.71 C53.84 83.12, 44.75 84.29, 37.37 83.13 C29.98 81.96, 21.75 77.71, 16.09 72.72 C10.43 67.74, 5.67 60.06, 3.41 53.22 C1.15 46.38, 0.64 38.71, 2.52 31.67 C4.39 24.64, 9.54 16.11, 14.66 10.98 C19.77 5.86, 30 2.63, 33.2 0.91 C36.39 -0.81, 33.26 0.15, 33.81 0.66"
       stroke="#000000"
       stroke-width="2"
       fill="none"
       id="path7221" />
  </g>
  <g
     stroke-opacity="0.3"
     fill-opacity="0.3"
     stroke-linecap="round"
     transform="translate(556 457.5) rotate(0 41.5 41.5)"
     id="g7229">
    <path
       d="M9.16 15.91 C9.16 15.91, 9.16 15.91, 9.16 15.91 M9.16 15.91 C9.16 15.91, 9.16 15.91, 9.16 15.91 M2.53 38.68 C11.87 29.21, 18.78 17.88, 29.17 7.23 M2.04 37.33 C10.07 26.46, 20.24 16.3, 28.63 5.34 M5.18 43.64 C18.51 32.4, 27.49 19.66, 41.16 4.53 M6.08 43.79 C15.71 31.19, 25.92 20.08, 40.99 3.97 M7.79 54.78 C18.11 38.24, 30.56 24.71, 51.21 4.5 M7.45 52.66 C20.37 39.45, 33.21 24.74, 53.09 2.02 M9.34 66.68 C23.28 46.14, 42.77 27.45, 60.25 5.67 M8.06 66.3 C23.75 49.85, 37.08 32.71, 60.12 6.19 M15.73 72.58 C30.84 54.13, 42.49 36.63, 65.87 10 M15.21 71.08 C26.39 56.54, 38.89 44.52, 66.17 9.86 M21 76.83 C38.83 52.52, 58.67 29, 72.24 13.82 M19.93 76.42 C38.47 55.93, 56.21 35.02, 74.13 15.4 M26.09 84.03 C36.69 69.96, 47.29 58.61, 77.07 23.32 M25.55 83.41 C37.87 68.34, 50.94 53.05, 77.62 22.35 M34.56 82.88 C48.09 68.34, 65.48 51.65, 82.51 29.87 M34.49 85.27 C51.05 65.38, 66.68 48.88, 81.86 30.15 M44.42 82.84 C59.99 69.73, 72.45 51.04, 86.94 37.83 M46.04 83.44 C57.91 69.58, 69.47 55.67, 86.45 36.52 M60.99 78.29 C65.92 69.8, 75.46 62.7, 84.8 53.22 M60.15 78.38 C65.88 72.05, 71.69 64.97, 83.11 51.66 M20.51 78.53 C20.51 78.53, 20.51 78.53, 20.51 78.53 M20.51 78.53 C20.51 78.53, 20.51 78.53, 20.51 78.53 M35.2 81.53 C29.19 73.48, 20.25 69.94, 6.79 57.17 M37.31 80.97 C30.28 77.36, 24.07 70.94, 7.09 56.3 M47.43 80.5 C37.28 71.58, 25.25 60.87, 5.18 44.42 M47.85 80.92 C31.59 67.78, 15.84 53.25, 5.48 44.78 M55.23 76.02 C41.88 64.85, 27.16 51.67, 4.38 35.37 M54.54 76.94 C43.17 66.23, 31.03 55.23, 5.85 32.98 M63.12 75.18 C49.8 64.25, 38.03 52.18, 6.56 26.86 M62.98 73.37 C47.49 61.49, 33.35 47.84, 8.68 26.01 M68.69 68.18 C54.25 53.23, 35.76 38.15, 10.86 16.02 M70.02 67.86 C51.59 51.31, 31.54 36.31, 8.32 16.32 M73.56 62.2 C62.36 51.41, 44.4 36.54, 16.46 11.97 M74.7 62.85 C64.16 51.21, 51.09 40.97, 15.08 9.88 M79.12 56.75 C61.09 39.54, 40.66 23.07, 23.65 4.17 M80.93 57.35 C63.98 42.28, 47.49 27.95, 22.16 6.07 M80.56 46.4 C66.71 33.4, 54.76 23.54, 29.8 -0.53 M81.57 47.3 C67.63 33.59, 51.91 19.68, 28.71 1.24 M82.53 37.87 C71.84 28.64, 62.57 19.62, 41.61 2.06 M82.96 37.12 C66.67 25.09, 52.92 10.53, 39.98 0.3 M87.16 31.56 C76.32 20.05, 66.42 12.45, 53.96 1.71 M86.96 30.81 C74.09 20, 63.25 10.66, 53.12 1.3"
       stroke="#40c057"
       stroke-width="1"
       fill="none"
       id="path7225" />
    <path
       d="M27.29 3.25 C33.8 0.28, 43.6 -0.27, 51.11 1.47 C58.61 3.21, 67.09 8.26, 72.32 13.7 C77.55 19.14, 81.25 26.84, 82.46 34.11 C83.67 41.37, 82.43 50.49, 79.58 57.29 C76.73 64.09, 71.3 70.55, 65.35 74.91 C59.41 79.26, 51.41 82.82, 43.93 83.42 C36.44 84.02, 27.12 82.19, 20.46 78.48 C13.8 74.77, 7.2 67.92, 3.96 61.14 C0.71 54.36, 0.13 45.33, 1 37.8 C1.86 30.26, 3.58 22.11, 9.13 15.94 C14.69 9.76, 29.17 3.4, 34.34 0.74 C39.51 -1.93, 40.14 -0.69, 40.15 -0.04 M50.97 1.55 C58.26 2.46, 67.31 6.4, 72.35 11.66 C77.39 16.91, 79.8 25.73, 81.2 33.09 C82.6 40.46, 83.39 48.85, 80.77 55.85 C78.14 62.85, 71.61 70.81, 65.47 75.1 C59.34 79.39, 51.48 81.26, 43.94 81.57 C36.39 81.88, 26.57 80.59, 20.22 76.97 C13.87 73.34, 9.18 66.24, 5.82 59.82 C2.46 53.41, -0.41 45.54, 0.08 38.48 C0.57 31.42, 4.39 23.43, 8.74 17.48 C13.09 11.53, 19.22 5.75, 26.17 2.77 C33.13 -0.21, 46.42 -0.27, 50.46 -0.42 C54.51 -0.56, 50.56 0.87, 50.45 1.87"
       stroke="#000000"
       stroke-width="2"
       fill="none"
       id="path7227" />
  </g>
  <g
     stroke-linecap="round"
     id="g7235">
    <g
       transform="translate(331 311.5) rotate(0 -0.44743481299525456 19.400966283350073)"
       id="g7233">
      <path
         d="M-1.13 -0.88 C-1.34 5.61, -1.71 31.89, -1.71 38.44 M0.47 1.27 C0.7 7.96, 1.03 33.32, 0.63 39.68"
         stroke="#000000"
         stroke-width="2"
         fill="none"
         id="path7231" />
    </g>
  </g>
  <g
     stroke-linecap="round"
     id="g7241">
    <g
       stroke-opacity="0.2"
       fill-opacity="0.2"
       transform="translate(335 542.5) rotate(0 -0.6629636446184577 19.02005748564204)"
       id="g7239">
      <path
         d="M0.27 -0.02 C0.08 6.37, -1.62 31.48, -1.81 38.06 M-1.04 -1.07 C-0.79 5.46, 0.56 32.7, 0.48 39.11"
         stroke="#000000"
         stroke-width="2"
         fill="none"
         id="path7237" />
    </g>
  </g>
  <g
     stroke-linecap="round"
     id="g7247">
    <g
       transform="translate(332 432.5) rotate(0 0.5619622077799136 13.257932345016172)"
       id="g7245">
      <path
         d="M0.41 -0.18 C0.35 4.56, -0.32 23.46, -0.15 27.83 M-0.83 -1.31 C-0.56 3.15, 1.66 21.45, 1.96 26.14"
         stroke="#000000"
         stroke-width="2"
         fill="none"
         id="path7243" />
    </g>
  </g>
  <g
     stroke-linecap="round"
     id="g7253">
    <g
       stroke-opacity="0.2"
       fill-opacity="0.2"
       transform="translate(336 663.5) rotate(0 0.4005546720017037 13.989548001136484)"
       id="g7251">
      <path
         d="M-0.02 -0.81 C0.04 3.67, -0.19 22.46, 0.06 27.16 M-1.48 1.38 C-1.04 6.06, 1.87 24.81, 2.28 28.79"
         stroke="#000000"
         stroke-width="2"
         fill="none"
         id="path7249" />
    </g>
  </g>
  <g
     stroke-linecap="round"
     id="g7259">
    <g
       transform="translate(595 191.5) rotate(0 -0.45087386325246825 17.051652725890165)"
       id="g7257">
      <path
         d="M-1.09 0.32 C-1 5.81, -0.53 27.85, -0.32 33.43 M0.54 -0.56 C0.51 5.05, -1.26 28.74, -1.44 34.67"
         stroke="#000000"
         stroke-width="2"
         fill="none"
         id="path7255" />
    </g>
  </g>
  <g
     stroke-linecap="round"
     id="g7265">
    <g
       stroke-opacity="0.3"
       fill-opacity="0.3"
       transform="translate(596 539.5) rotate(0 -0.30659971545685494 17.05341704682735)"
       id="g7263">
      <path
         d="M0.42 -0.81 C0.23 5, 0.15 28.93, -0.02 34.91 M-0.82 1.38 C-1.27 6.86, -0.84 27.95, -0.98 33.27"
         stroke="#000000"
         stroke-width="2"
         fill="none"
         id="path7261" />
    </g>
  </g>
  <g
     stroke-linecap="round"
     id="g7271">
    <g
       transform="translate(596 311.5) rotate(0 -0.31943634859214853 14.20571955325434)"
       id="g7269">
      <path
         d="M0.19 -1.13 C0.31 3.5, 0.48 23.19, 0.53 28 M-1.17 0.89 C-1.15 5.71, -0.33 24.87, -0.14 29.54"
         stroke="#000000"
         stroke-width="2"
         fill="none"
         id="path7267" />
    </g>
  </g>
  <g
     stroke-linecap="round"
     id="g7277">
    <g
       stroke-opacity="0.3"
       fill-opacity="0.3"
       transform="translate(597.9999992724615 423.5) rotate(0 0.5622127527457224 16.970480051158574)"
       id="g7275">
      <path
         d="M-0.45 -0.86 C-0.05 4.97, 0.83 28.96, 1.25 34.8 M1.52 1.3 C1.88 6.81, 0.38 27.38, 0.43 33.1"
         stroke="#000000"
         stroke-width="2"
         fill="none"
         id="path7273" />
    </g>
  </g>
  <g
     stroke-linecap="round"
     id="g7283">
    <g
       transform="translate(367 475.5) rotate(0 93.42483853093938 -37.83699949260844)"
       id="g7281">
      <path
         d="M-1.19 0.26 C29.99 -12.36, 156.22 -63.47, 188.04 -75.93"
         stroke="#c92a2a"
         stroke-width="2.5"
         fill="none"
         stroke-dasharray="8 10"
         id="path7279" />
    </g>
  </g>
  <g
     stroke-opacity="0.2"
     fill-opacity="0.2"
     transform="translate(10 10) rotate(0 18.5 18)"
     id="g7287">
    <text
       x="0"
       y="25"
       font-family="Virgil, Segoe UI Emoji"
       font-size="28px"
       fill="#ffffff"
       text-anchor="start"
       style="white-space: pre;"
       direction="ltr"
       id="text7285">git</text>
  </g>
  <g
     transform="translate(32 21) rotate(0 180 22)"
     id="g7291">
    <g
       aria-label="git rebase --onto"
       id="text7289"
       style="font-size:36px;font-family:'Cascadia Code';-inkscape-font-specification:'Cascadia Code';white-space:pre">
      <path
         d="M 3.1992188,43.402344 3.0234375,39.992187 9,39.816406 q 2.830078,-0.08789 4.113281,-1.564453 1.283203,-1.476562 1.300782,-4.341797 V 20.304687 l 0.351562,-3.9375 h 3.375 v 16.980469 q 0,4.97461 -2.267578,7.347656 -2.267578,2.373047 -7.2246095,2.53125 z m 5.9238281,-8.050782 q -3.65625,0 -5.5546875,-2.408203 Q 1.6875,30.535156 1.6875,25.859375 q 0,-4.851563 1.8808594,-7.347656 1.8984375,-2.496094 5.5546875,-2.496094 2.1796871,0 3.5332031,0.984375 1.353516,0.984375 1.582031,2.742187 h 1.441407 l -1.265625,5.308594 q 0,-2.882812 -1.142579,-4.376953 -1.125,-1.494141 -3.3222652,-1.494141 -2.2500001,0 -3.4101563,1.6875 -1.1601563,1.6875 -1.1601563,4.992188 0,3.128906 1.1601563,4.728516 1.1601562,1.599609 3.4101563,1.599609 2.1972652,0 3.3222652,-1.494141 1.142579,-1.49414 1.142579,-4.376953 L 15.679688,31.625 H 14.0625 q -0.175781,1.757812 -1.494141,2.742187 -1.300781,0.984375 -3.4453121,0.984375 z"
         id="path7482" />
      <path
         d="M 31.007812,35 V 17.421875 h 3.726563 V 35 Z m -7.101562,0 v -3.269531 h 7.453125 V 35 Z m 10.476562,0 v -3.269531 h 6.082032 V 35 Z M 24.960937,19.636719 v -3.269532 h 9.773438 v 3.269532 z m 7.78711,-6.222656 q -1.072266,0 -1.845703,-0.75586 -0.75586,-0.773437 -0.75586,-1.845703 0,-1.0898437 0.75586,-1.8457031 0.773437,-0.7558594 1.845703,-0.7558594 1.089844,0 1.845703,0.7558594 0.755859,0.7558594 0.755859,1.8457031 0,1.072266 -0.755859,1.845703 -0.755859,0.75586 -1.845703,0.75586 z"
         id="path7484" />
      <path
         d="m 56.109375,35.351562 q -4.236328,0 -6.134766,-1.757812 -1.880859,-1.757813 -1.880859,-5.625 v -3.164063 h 3.726562 v 2.988282 q 0,2.214843 1.072266,3.216797 1.089844,1.001953 3.568359,1.001953 0.878907,0 1.863282,-0.08789 0.984375,-0.105469 2.25,-0.263672 l 0.421875,3.269531 q -1.230469,0.210938 -2.408203,0.316407 -1.160157,0.105468 -2.478516,0.105468 z M 48.09375,26.210937 V 10.742188 h 3.726562 v 15.468749 z m -4.675781,-6.574218 v -3.269532 h 16.875 v 3.269532 z"
         id="path7486" />
      <path
         d="m 93.65625,26.984375 -1.089844,-5.835938 h 1.441406 q 0.316407,-5.132812 5.132813,-5.132812 2.882815,0 4.183595,1.652344 1.30078,1.652343 1.30078,5.34375 h -3.69141 q 0,-2.039063 -0.61523,-2.935547 -0.597657,-0.896485 -1.951173,-0.896485 -2.373046,0 -3.550781,2.039063 -1.160156,2.021484 -1.160156,5.765625 z M 85.78125,35 V 31.730469 H 98.226562 V 35 Z m 4.148437,0 V 16.367187 h 3.023438 l 0.703125,5.34375 V 35 Z M 86.484375,19.636719 v -3.269532 h 6.222656 l 0.351563,3.269532 z"
         id="path7488" />
      <path
         d="m 117.63281,35.351562 q -4.76367,0 -7.36523,-2.496093 -2.58399,-2.513672 -2.58399,-7.207032 0,-4.570312 2.19727,-7.101562 2.19727,-2.53125 6.20508,-2.53125 3.77929,0 5.83594,2.285156 2.07421,2.285156 2.07421,6.644531 0,1.283204 -0.10546,2.390625 H 110.8125 v -2.847656 h 9.80859 q 0,-2.513672 -1.19531,-3.849609 -1.19531,-1.353516 -3.30469,-1.353516 -2.37304,0 -3.6914,1.617188 -1.30078,1.617187 -1.30078,4.570312 0,3.234375 1.79297,4.921875 1.81054,1.6875 5.13281,1.6875 1.16015,0 2.28515,-0.123047 1.125,-0.140625 2.28516,-0.36914 l 0.45703,3.269531 q -1.65234,0.316406 -3.02344,0.404297 -1.37109,0.08789 -2.42578,0.08789 z"
         id="path7490" />
      <path
         d="m 134.41992,35.351562 q -1.26562,0 -2.49609,-0.105468 Q 130.69336,35.158203 129.42773,35 l 1.44141,-3.410156 q 0.93164,0.439453 2.05664,0.527343 1.125,0.07031 2.23242,0.07031 3.35742,0 5.18555,-2.021484 1.8457,-2.021485 1.8457,-5.712891 0,-2.53125 -1.125,-3.902344 -1.10742,-1.371094 -3.16406,-1.371094 -4.74609,0 -4.74609,5.34375 l -1.08985,-4.78125 h 1.44141 q 0.26367,-3.726562 4.57031,-3.726562 3.72656,0 5.76563,2.197266 2.03906,2.197265 2.03906,6.240234 0,5.185547 -3.00586,8.050781 -2.98828,2.847656 -8.45508,2.847656 z M 129.42773,35 V 8.6328125 h 3.72657 V 34.683594 Z"
         id="path7492" />
      <path
         d="m 162.03516,35.175781 -0.2461,-5.519531 -0.49219,-1.546875 v -4.816406 q 0,-1.863282 -1.31835,-2.72461 -1.30079,-0.878906 -3.88477,-0.949218 l -4.46484,-0.123047 0.35156,-3.304688 3.76172,0.05273 q 4.62304,0.07031 6.85547,2.003906 2.25,1.916015 2.25,5.607422 V 31.625 l 3.16406,0.386719 V 35 Z m -6.57422,0.175781 q -2.91797,0 -4.51758,-1.40625 -1.59961,-1.40625 -1.59961,-3.972656 0,-2.953125 2.19727,-4.535156 2.21484,-1.582031 6.24023,-1.582031 1.66992,0 2.9707,0.210937 1.31836,0.19336 2.33789,0.597656 l -0.77343,2.53125 q -1.17774,-0.263671 -2.30274,-0.298828 -1.125,-0.05273 -2.30273,-0.05273 -4.85157,0 -4.85157,2.953125 0,1.230469 0.82618,1.898437 0.84375,0.667969 2.37304,0.667969 1.74024,0 2.90039,-0.597656 1.17774,-0.597656 1.75782,-1.529297 0.58007,-0.931641 0.58007,-1.916016 V 26.28125 l 1.08985,4.78125 h -1.47656 L 161.50781,30.5 q 0,1.617187 -0.75586,2.707031 -0.73828,1.072266 -2.09179,1.617188 -1.35352,0.527343 -3.19922,0.527343 z"
         id="path7494" />
      <path
         d="m 177.85547,35.351562 q -2.10938,0 -3.6211,-0.123046 -1.49414,-0.123047 -2.74218,-0.404297 l 0.42187,-3.375 q 1.84571,0.28125 3.25196,0.421875 1.42382,0.140625 2.68945,0.140625 2.83008,0 4.0957,-0.544922 1.2832,-0.5625 1.2832,-1.775391 0,-0.84375 -0.45703,-1.248047 -0.43945,-0.421875 -1.37109,-0.65039 l -4.28906,-1.089844 Q 174.35742,26 173.05664,24.962891 q -1.2832,-1.03711 -1.2832,-3.146485 0,-3.058594 2.33789,-4.429687 2.35547,-1.371094 7.57617,-1.371094 1.35352,0 2.51367,0.08789 1.17774,0.07031 2.4082,0.263671 l -0.38671,3.234375 q -1.42383,-0.140625 -2.51368,-0.193359 -1.08984,-0.05273 -2.12695,-0.05273 -3.12891,0 -4.53516,0.544922 -1.40625,0.527343 -1.40625,1.740234 0,0.808594 0.58008,1.177734 0.58008,0.351563 1.77539,0.650391 l 3.44532,0.84375 q 2.93554,0.703125 4.28906,1.880859 1.37109,1.177735 1.37109,3.427735 0,3.005859 -2.19726,4.376953 -2.19727,1.353515 -7.04883,1.353515 z"
         id="path7496" />
      <path
         d="m 202.00781,35.351562 q -4.76367,0 -7.36523,-2.496093 -2.58399,-2.513672 -2.58399,-7.207032 0,-4.570312 2.19727,-7.101562 2.19726,-2.53125 6.20508,-2.53125 3.77929,0 5.83593,2.285156 2.07422,2.285156 2.07422,6.644531 0,1.283204 -0.10547,2.390625 H 195.1875 v -2.847656 h 9.80859 q 0,-2.513672 -1.19531,-3.849609 -1.19531,-1.353516 -3.30469,-1.353516 -2.37304,0 -3.6914,1.617188 -1.30078,1.617187 -1.30078,4.570312 0,3.234375 1.79296,4.921875 1.81055,1.6875 5.13282,1.6875 1.16015,0 2.28515,-0.123047 1.125,-0.140625 2.28516,-0.36914 l 0.45703,3.269531 q -1.65234,0.316406 -3.02344,0.404297 -1.37109,0.08789 -2.42578,0.08789 z"
         id="path7498" />
      <path
         d="m 255.41016,24.171875 v -3.269531 h 13.88671 v 3.269531 z m -18.45704,0 v -3.269531 h 13.88672 v 3.269531 z"
         id="path7500" />
      <path
         d="m 284.76562,35.351562 q -3.86718,0 -6.01171,-2.53125 -2.14454,-2.53125 -2.14454,-7.136718 0,-4.623047 2.14454,-7.136719 2.14453,-2.53125 6.01171,-2.53125 3.88477,0 6.01172,2.53125 2.14453,2.513672 2.14453,7.136719 0,4.605468 -2.14453,7.136718 -2.12695,2.53125 -6.01172,2.53125 z m 0,-3.339843 q 2.05665,0 3.16407,-1.652344 1.125,-1.652344 1.125,-4.675781 0,-3.041016 -1.125,-4.675782 -1.10742,-1.652343 -3.16407,-1.652343 -2.05664,0 -3.18164,1.652343 -1.10742,1.634766 -1.10742,4.675782 0,3.023437 1.10742,4.675781 1.125,1.652344 3.18164,1.652344 z"
         id="path7502" />
      <path
         d="M 309.72656,35 V 22.871094 q 0,-1.6875 -0.8789,-2.601563 -0.87891,-0.914062 -2.46094,-0.914062 -4.39453,0 -4.39453,5.167968 l -1.08985,-4.78125 h 1.44141 q 0.1582,-1.880859 1.37109,-2.794921 1.21289,-0.931641 3.55078,-0.931641 2.95313,0 4.57032,1.792969 1.61718,1.792968 1.61718,5.0625 V 35 Z m -11.46094,0 V 16.367187 h 3.375 l 0.35157,3.9375 V 35 Z"
         id="path7504" />
      <path
         d="m 330.32812,35.351562 q -4.23632,0 -6.13476,-1.757812 -1.88086,-1.757813 -1.88086,-5.625 v -3.164063 h 3.72656 v 2.988282 q 0,2.214843 1.07227,3.216797 1.08984,1.001953 3.56836,1.001953 0.8789,0 1.86328,-0.08789 0.98437,-0.105469 2.25,-0.263672 l 0.42187,3.269531 q -1.23047,0.210938 -2.4082,0.316407 -1.16016,0.105468 -2.47852,0.105468 z M 322.3125,26.210937 V 10.742188 h 3.72656 v 15.468749 z m -4.67578,-6.574218 v -3.269532 h 16.875 v 3.269532 z"
         id="path7506" />
      <path
         d="m 348.04687,35.351562 q -3.86718,0 -6.01171,-2.53125 -2.14454,-2.53125 -2.14454,-7.136718 0,-4.623047 2.14454,-7.136719 2.14453,-2.53125 6.01171,-2.53125 3.88477,0 6.01172,2.53125 2.14453,2.513672 2.14453,7.136719 0,4.605468 -2.14453,7.136718 -2.12695,2.53125 -6.01172,2.53125 z m 0,-3.339843 q 2.05665,0 3.16407,-1.652344 1.125,-1.652344 1.125,-4.675781 0,-3.041016 -1.125,-4.675782 -1.10742,-1.652343 -3.16407,-1.652343 -2.05664,0 -3.18164,1.652343 -1.10742,1.634766 -1.10742,4.675782 0,3.023437 1.10742,4.675781 1.125,1.652344 3.18164,1.652344 z"
         id="path7508" />
    </g>
  </g>
  <g
     transform="translate(419 21) rotate(0 74.5 22)"
     id="g7295">
    <g
       aria-label="develop"
       id="text7293"
       style="font-size:36px;font-family:'Cascadia Code';-inkscape-font-specification:'Cascadia Code';white-space:pre;fill:#e67700">
      <path
         d="m 9.1230469,35.351562 q -3.65625,0 -5.5546875,-2.408203 Q 1.6875,30.535156 1.6875,25.859375 q 0,-4.851563 1.8808594,-7.347656 1.8984375,-2.496094 5.5546875,-2.496094 2.0917971,0 3.3925781,0.984375 1.318359,0.984375 1.546875,2.742187 h 1.441406 l -1.089843,5.308594 q 0,-2.882812 -1.142579,-4.376953 -1.125,-1.494141 -3.3222652,-1.494141 -2.2500001,0 -3.4101563,1.6875 -1.1601563,1.6875 -1.1601563,4.992188 0,3.128906 1.1601563,4.728516 1.1601562,1.599609 3.4101563,1.599609 2.1972652,0 3.3222652,-1.494141 1.142579,-1.49414 1.142579,-4.376953 L 15.679688,31.625 H 14.0625 q -0.175781,1.757812 -1.494141,2.742187 -1.300781,0.984375 -3.4453121,0.984375 z m 5.6777341,-0.175781 -0.386718,-3.65625 V 8.6328125 h 3.726562 V 35 Z"
         id="path7511" />
      <path
         d="m 33.257812,35.351562 q -4.763671,0 -7.365234,-2.496093 -2.583984,-2.513672 -2.583984,-7.207032 0,-4.570312 2.197265,-7.101562 2.197266,-2.53125 6.205078,-2.53125 3.779297,0 5.835938,2.285156 2.074219,2.285156 2.074219,6.644531 0,1.283204 -0.105469,2.390625 H 26.4375 v -2.847656 h 9.808594 q 0,-2.513672 -1.195313,-3.849609 -1.195312,-1.353516 -3.304687,-1.353516 -2.373047,0 -3.691407,1.617188 -1.300781,1.617187 -1.300781,4.570312 0,3.234375 1.792969,4.921875 1.810547,1.6875 5.132812,1.6875 1.160157,0 2.285157,-0.123047 1.125,-0.140625 2.285156,-0.36914 l 0.457031,3.269531 q -1.652344,0.316406 -3.023437,0.404297 -1.371094,0.08789 -2.425782,0.08789 z"
         id="path7513" />
      <path
         d="M 50.255859,35 43.59375,16.367187 h 3.972656 l 5.009766,15.46875 h 0.316406 l 5.009766,-15.46875 H 61.875 L 55.212891,35 Z"
         id="path7515" />
      <path
         d="m 75.445312,35.351562 q -4.763671,0 -7.365234,-2.496093 -2.583984,-2.513672 -2.583984,-7.207032 0,-4.570312 2.197265,-7.101562 2.197266,-2.53125 6.205078,-2.53125 3.779297,0 5.835938,2.285156 2.074219,2.285156 2.074219,6.644531 0,1.283204 -0.105469,2.390625 H 68.625 v -2.847656 h 9.808594 q 0,-2.513672 -1.195313,-3.849609 -1.195312,-1.353516 -3.304687,-1.353516 -2.373047,0 -3.691407,1.617188 -1.300781,1.617187 -1.300781,4.570312 0,3.234375 1.792969,4.921875 1.810547,1.6875 5.132812,1.6875 1.160157,0 2.285157,-0.123047 1.125,-0.140625 2.285156,-0.36914 l 0.457031,3.269531 q -1.652344,0.316406 -3.023437,0.404297 -1.371094,0.08789 -2.425782,0.08789 z"
         id="path7517" />
      <path
         d="m 97.699219,35.351562 q -3.234375,0 -4.675782,-1.757812 -1.441406,-1.757813 -1.441406,-5.625 V 8.6328125 h 3.726563 V 27.792969 q 0,1.476562 0.28125,2.408203 0.28125,0.93164 1.089843,1.371094 0.826172,0.439453 2.425782,0.439453 1.458981,0 3.726561,-0.667969 l 0.42188,3.269531 q -1.42383,0.386719 -2.74219,0.5625 -1.300783,0.175781 -2.812501,0.175781 z M 86.097656,11.902344 V 8.6328125 h 5.800781 v 3.2695315 z"
         id="path7519" />
      <path
         d="m 116.01563,35.351562 q -3.86719,0 -6.01172,-2.53125 -2.14453,-2.53125 -2.14453,-7.136718 0,-4.623047 2.14453,-7.136719 2.14453,-2.53125 6.01172,-2.53125 3.88476,0 6.01171,2.53125 2.14454,2.513672 2.14454,7.136719 0,4.605468 -2.14454,7.136718 -2.12695,2.53125 -6.01171,2.53125 z m 0,-3.339843 q 2.05664,0 3.16406,-1.652344 1.125,-1.652344 1.125,-4.675781 0,-3.041016 -1.125,-4.675782 -1.10742,-1.652343 -3.16406,-1.652343 -2.05665,0 -3.18165,1.652343 -1.10742,1.634766 -1.10742,4.675782 0,3.023437 1.10742,4.675781 1.125,1.652344 3.18165,1.652344 z"
         id="path7521" />
      <path
         d="m 129.51562,43.085937 v -26.71875 h 3.375 l 0.35157,3.9375 v 22.78125 z m 9.01758,-7.734375 q -2.14453,0 -3.46289,-0.984375 -1.30078,-0.984375 -1.47656,-2.742187 h -1.61719 l 1.26563,-5.308594 q 0,2.882813 1.125,4.376953 1.14258,1.494141 3.33984,1.494141 2.25,0 3.41016,-1.599609 1.16015,-1.59961 1.16015,-4.728516 0,-3.304688 -1.16015,-4.992188 -1.16016,-1.6875 -3.41016,-1.6875 -2.19726,0 -3.33984,1.494141 -1.125,1.494141 -1.125,4.376953 l -1.26563,-5.308594 h 1.44141 Q 133.66406,17.984375 135,17 q 1.35352,-0.984375 3.5332,-0.984375 3.67383,0 5.55469,2.496094 1.88086,2.496093 1.88086,7.347656 0,4.675781 -1.88086,7.083984 -1.88086,2.408203 -5.55469,2.408203 z"
         id="path7523" />
    </g>
  </g>
  <g
     transform="translate(598 21) rotate(0 137.5 22)"
     id="g7303">
    <g
       aria-label="&lt;parent-of-A&gt;"
       id="text7301"
       style="font-size:36px;font-family:'Cascadia Code';-inkscape-font-specification:'Cascadia Code';white-space:pre;fill:#364fc7">
      <path
         d="M 18.527344,31.238281 1.6875,24.3125 v -3.550781 l 16.839844,-6.925781 v 3.867187 L 5.5195312,22.378906 v 0.316406 l 13.0078128,4.675782 z"
         id="path7526" />
      <path
         d="m 24.046875,43.085937 v -26.71875 h 3.375 l 0.351562,3.9375 v 22.78125 z m 9.017578,-7.734375 q -2.144531,0 -3.462891,-0.984375 Q 28.300781,33.382812 28.125,31.625 h -1.617188 l 1.265625,-5.308594 q 0,2.882813 1.125,4.376953 1.142579,1.494141 3.339844,1.494141 2.25,0 3.410156,-1.599609 1.160157,-1.59961 1.160157,-4.728516 0,-3.304688 -1.160157,-4.992188 -1.160156,-1.6875 -3.410156,-1.6875 -2.197265,0 -3.339844,1.494141 -1.125,1.494141 -1.125,4.376953 l -1.265625,-5.308594 h 1.441407 Q 28.195312,17.984375 29.53125,17 q 1.353516,-0.984375 3.533203,-0.984375 3.673828,0 5.554688,2.496094 Q 40.5,21.007812 40.5,25.859375 q 0,4.675781 -1.880859,7.083984 -1.88086,2.408203 -5.554688,2.408203 z"
         id="path7528" />
      <path
         d="M 56.566406,35.175781 56.320312,29.65625 55.828125,28.109375 v -4.816406 q 0,-1.863282 -1.318359,-2.72461 Q 53.208984,19.689453 50.625,19.619141 l -4.464844,-0.123047 0.351563,-3.304688 3.761718,0.05273 q 4.623047,0.07031 6.855469,2.003906 2.25,1.916015 2.25,5.607422 V 31.625 l 3.164063,0.386719 V 35 Z m -6.574219,0.175781 q -2.917968,0 -4.517578,-1.40625 Q 43.875,32.539062 43.875,29.972656 q 0,-2.953125 2.197266,-4.535156 2.214843,-1.582031 6.240234,-1.582031 1.669922,0 2.970703,0.210937 1.318359,0.19336 2.337891,0.597656 l -0.773438,2.53125 q -1.177734,-0.263671 -2.302734,-0.298828 -1.125,-0.05273 -2.302735,-0.05273 -4.851562,0 -4.851562,2.953125 0,1.230469 0.826172,1.898437 0.84375,0.667969 2.373047,0.667969 1.740234,0 2.90039,-0.597656 1.177735,-0.597656 1.757813,-1.529297 0.580078,-0.931641 0.580078,-1.916016 V 26.28125 l 1.089844,4.78125 H 55.441406 L 56.039062,30.5 q 0,1.617187 -0.755859,2.707031 -0.738281,1.072266 -2.091797,1.617188 -1.353515,0.527343 -3.199219,0.527343 z"
         id="path7530" />
      <path
         d="m 72.5625,26.984375 -1.089844,-5.835938 h 1.441406 q 0.316407,-5.132812 5.132813,-5.132812 2.882812,0 4.183594,1.652344 1.300781,1.652343 1.300781,5.34375 h -3.691406 q 0,-2.039063 -0.615235,-2.935547 -0.597656,-0.896485 -1.951172,-0.896485 -2.373046,0 -3.550781,2.039063 Q 72.5625,23.240234 72.5625,26.984375 Z M 64.6875,35 V 31.730469 H 77.132812 V 35 Z m 4.148437,0 V 16.367187 h 3.023438 l 0.703125,5.34375 V 35 Z M 65.390625,19.636719 v -3.269532 h 6.222656 l 0.351563,3.269532 z"
         id="path7532" />
      <path
         d="m 96.539062,35.351562 q -4.763671,0 -7.365234,-2.496093 -2.583984,-2.513672 -2.583984,-7.207032 0,-4.570312 2.197265,-7.101562 2.197266,-2.53125 6.205078,-2.53125 3.779297,0 5.835943,2.285156 2.07421,2.285156 2.07421,6.644531 0,1.283204 -0.10546,2.390625 H 89.71875 v -2.847656 h 9.808594 q 0,-2.513672 -1.195313,-3.849609 -1.195312,-1.353516 -3.304687,-1.353516 -2.373047,0 -3.691407,1.617188 -1.300781,1.617187 -1.300781,4.570312 0,3.234375 1.792969,4.921875 1.810547,1.6875 5.132812,1.6875 1.160157,0 2.285157,-0.123047 1.124996,-0.140625 2.285156,-0.36914 l 0.45703,3.269531 q -1.65234,0.316406 -3.023436,0.404297 -1.371094,0.08789 -2.425782,0.08789 z"
         id="path7534" />
      <path
         d="M 119.88281,35 V 22.871094 q 0,-1.6875 -0.8789,-2.601563 -0.87891,-0.914062 -2.46094,-0.914062 -4.39453,0 -4.39453,5.167968 l -1.08985,-4.78125 H 112.5 q 0.1582,-1.880859 1.37109,-2.794921 1.21289,-0.931641 3.55079,-0.931641 2.95312,0 4.57031,1.792969 1.61719,1.792968 1.61719,5.0625 V 35 Z m -11.46093,0 V 16.367187 h 3.375 l 0.35156,3.9375 V 35 Z"
         id="path7536" />
      <path
         d="m 140.48437,35.351562 q -4.23632,0 -6.13476,-1.757812 -1.88086,-1.757813 -1.88086,-5.625 v -3.164063 h 3.72656 v 2.988282 q 0,2.214843 1.07227,3.216797 1.08984,1.001953 3.56836,1.001953 0.8789,0 1.86328,-0.08789 0.98437,-0.105469 2.25,-0.263672 l 0.42187,3.269531 q -1.23047,0.210938 -2.4082,0.316407 -1.16016,0.105468 -2.47852,0.105468 z m -8.01562,-9.140625 V 10.742188 h 3.72656 v 15.468749 z m -4.67578,-6.574218 v -3.269532 h 16.875 v 3.269532 z"
         id="path7538" />
      <path
         d="m 149.41406,24.171875 v -3.269531 h 17.57813 v 3.269531 z"
         id="path7540" />
      <path
         d="m 179.29687,35.351562 q -3.86718,0 -6.01171,-2.53125 -2.14454,-2.53125 -2.14454,-7.136718 0,-4.623047 2.14454,-7.136719 2.14453,-2.53125 6.01171,-2.53125 3.88477,0 6.01172,2.53125 2.14453,2.513672 2.14453,7.136719 0,4.605468 -2.14453,7.136718 -2.12695,2.53125 -6.01172,2.53125 z m 0,-3.339843 q 2.05665,0 3.16407,-1.652344 1.125,-1.652344 1.125,-4.675781 0,-3.041016 -1.125,-4.675782 -1.10742,-1.652343 -3.16407,-1.652343 -2.05664,0 -3.18164,1.652343 -1.10742,1.634766 -1.10742,4.675782 0,3.023437 1.10742,4.675781 1.125,1.652344 3.18164,1.652344 z"
         id="path7542" />
      <path
         d="M 196.91016,35 V 17.949219 q 0,-9.667969 8.82421,-9.667969 2.00391,0 3.86719,0.3515625 l -0.38672,3.2343755 q -1.10742,-0.140625 -1.95117,-0.19336 -0.84375,-0.05273 -1.63476,-0.05273 -4.99219,0 -4.99219,6.152343 V 35 Z m -5.8711,-11.25 v -3.269531 h 17.22656 V 23.75 Z"
         id="path7544" />
      <path
         d="m 212.69531,24.171875 v -3.269531 h 17.57813 v 3.269531 z"
         id="path7546" />
      <path
         d="m 232.82227,35 7.20703,-24.960937 h 5.09765 L 252.33398,35 h -3.6914 l -5.90625,-21.9375 h -0.31641 L 236.51367,35 Z m 3.33984,-6.082031 v -3.339844 h 12.65625 v 3.339844 z"
         id="path7548" />
      <path
         d="m 255.69141,31.238281 v -3.867187 l 12.30468,-4.675782 v -0.316406 l -12.30468,-4.675781 v -3.867187 l 16.83984,6.925781 V 24.3125 Z"
         id="path7550" />
    </g>
  </g>
  <g
     transform="translate(582 341) rotate(0 18 36)"
     id="g7311">
    <g
       aria-label="A"
       id="text7309"
       style="font-size:58.9091px;font-family:Cascadia, 'Segoe UI Emoji';white-space:pre">
      <path
         d="M 24.624,46.571636 H 9.4254547 L 5.3018183,58 H 0.47127274 L 16.082182,16.115636 h 2.238546 L 33.990546,58 H 28.865455 Z M 11.016,42.330182 H 23.151273 L 18.556364,29.782545 17.083637,23.538181 h -0.05891 L 15.552,29.900363 Z"
         id="path7559" />
    </g>
  </g>
  <g
     stroke-linecap="round"
     id="g7325">
    <g
       transform="translate(759 72.35450995980227) rotate(0 -41.30524200761988 206.90307031183968)"
       id="g7315">
      <path
         d="M0.51 0.26 C2.72 57.3, 31.39 273.39, 14.26 342.27 C-2.88 411.15, -82.6 401.59, -102.3 413.54"
         stroke="#364fc7"
         stroke-width="4.5"
         fill="none"
         stroke-dasharray="8 12"
         id="path7313" />
    </g>
    <g
       transform="translate(759 72.35450995980227) rotate(0 -41.30524200761988 206.90307031183968)"
       id="g7319">
      <path
         d="M-77 394.92 C-86.08 404.88, -96.4 408.56, -101.56 414.94"
         stroke="#364fc7"
         stroke-width="4.5"
         fill="none"
         id="path7317" />
    </g>
    <g
       transform="translate(759 72.35450995980227) rotate(0 -41.30524200761988 206.90307031183968)"
       id="g7323">
      <path
         d="M-72.03 414.83 C-83.01 417.24, -95.22 413.34, -101.56 414.94"
         stroke="#364fc7"
         stroke-width="4.5"
         fill="none"
         id="path7321" />
    </g>
  </g>
  <g
     stroke-linecap="round"
     id="g7339">
    <g
       transform="translate(450.0090498729735 75.99999999999997) rotate(0 -102.40367823298993 79.21602030428838)"
       id="g7329">
      <path
         d="M0.31 -0.07 C-32.76 11.11, -173.75 40, -199.2 66.43 C-224.66 92.86, -160.22 142.84, -152.41 158.5"
         stroke="#e67700"
         stroke-width="4.5"
         fill="none"
         stroke-dasharray="8 12"
         id="path7327" />
    </g>
    <g
       transform="translate(450.0090498729735 75.99999999999997) rotate(0 -102.40367823298993 79.21602030428838)"
       id="g7333">
      <path
         d="M-178.53 143.23 C-171.64 148.01, -167.88 151.7, -150.93 159.24"
         stroke="#e67700"
         stroke-width="4.5"
         fill="none"
         id="path7331" />
    </g>
    <g
       transform="translate(450.0090498729735 75.99999999999997) rotate(0 -102.40367823298993 79.21602030428838)"
       id="g7337">
      <path
         d="M-162.84 130.01 C-159.72 137.95, -159.67 144.76, -150.93 159.24"
         stroke="#e67700"
         stroke-width="4.5"
         fill="none"
         id="path7335" />
    </g>
  </g>
  <g
     stroke-opacity="0.8"
     fill-opacity="0.8"
     transform="translate(400.8879029532319 442.23403789252825) rotate(337.13549187810037 72.68082287388887 16.743226211785952)"
     id="g7357">
    <g
       aria-label="(git sad)"
       id="text7355"
       style="font-size:27.398px;font-family:Cascadia, 'Segoe UI Emoji';white-space:pre;fill:#c92a2a">
      <path
         d="M 6.2193475,33.514014 Q 4.9590392,32.198909 4.082303,30.609825 3.2055668,29.048138 2.6576066,27.404258 2.1370445,25.73298 1.8904624,24.061701 q -0.246582,-1.698676 -0.246582,-3.232964 0,-1.506891 0.246582,-3.178169 Q 2.1370445,15.979289 2.6850046,14.308011 3.2329648,12.609335 4.109701,10.992852 5.0138352,9.3763698 6.3015415,7.9790715 L 7.6166458,8.9380017 Q 6.5207255,10.3353 5.7809794,11.84219 5.0686312,13.321683 4.6302631,14.855971 4.191895,16.390259 4.0001089,17.924548 q -0.164388,1.50689 -0.164388,2.904189 0,1.315104 0.191786,2.87679 0.2191841,1.534289 0.6575522,3.095975 0.4657661,1.534288 1.1781143,3.013781 0.7397462,1.479492 1.7534724,2.685004 z"
         id="path7562" />
      <path
         d="m 20.110141,28.116606 q 0,2.657607 -1.424696,3.917915 -1.397299,1.260308 -4.164497,1.260308 -1.643881,0 -2.657607,-0.219184 -0.986328,-0.191786 -1.698676,-0.520562 l 0.575358,-1.863064 q 0.630154,0.246582 1.397298,0.465766 0.767144,0.219184 2.000055,0.219184 1.150716,0 1.863064,-0.219184 0.739746,-0.191786 1.178114,-0.68495 0.438369,-0.465766 0.602757,-1.23291 0.164388,-0.739747 0.164388,-1.780871 V 26.14395 h -0.109592 q -0.547961,0.794542 -1.397299,1.23291 -0.849338,0.41097 -2.219238,0.41097 -2.767199,0 -4.082303,-1.726074 -1.2877065,-1.726075 -1.2877065,-5.370009 0,-3.506945 1.6712785,-5.315214 1.671278,-1.835666 4.931641,-1.835666 1.561686,0 2.657607,0.246582 1.123318,0.246582 2.000054,0.575358 z M 14.603142,25.86997 q 1.397298,0 2.19184,-0.68495 0.794543,-0.712349 1.123319,-2.191841 v -7.01389 q -1.095921,-0.520562 -2.794597,-0.520562 -1.863065,0 -2.931587,1.260309 -1.068522,1.260308 -1.068522,3.945312 0,1.150717 0.191786,2.109647 0.191786,0.95893 0.602756,1.64388 0.41097,0.684951 1.068522,1.068523 0.657553,0.383572 1.616483,0.383572 z"
         id="path7564" />
      <path
         d="M 24.795219,13.787449 H 26.98706 V 27.486452 H 24.795219 Z M 24.329453,9.6229519 q 0,-0.6301541 0.41097,-1.0685222 0.438368,-0.4657662 1.095921,-0.4657662 0.657552,0 1.123318,0.4657662 0.465766,0.4383681 0.465766,1.0685222 0,0.6301541 -0.465766,1.0411241 -0.465766,0.41097 -1.123318,0.41097 -0.657553,0 -1.095921,-0.41097 -0.41097,-0.41097 -0.41097,-1.0411241 z"
         id="path7566" />
      <path
         d="m 29.86384,13.787449 h 2.137044 v -2.712403 l 2.191841,-0.630154 v 3.342557 h 3.726129 v 1.91786 h -3.726129 v 7.589248 q 0,1.424696 0.356174,2.027453 0.356174,0.575358 1.205512,0.575358 0.712348,0 1.205513,-0.13699 0.493164,-0.164388 1.09592,-0.41097 l 0.493164,1.671278 q -0.739746,0.356174 -1.616482,0.575358 -0.876737,0.219184 -1.890463,0.219184 -1.671278,0 -2.356228,-0.931532 -0.684951,-0.95893 -0.684951,-3.178169 V 15.705309 H 29.86384 Z"
         id="path7568" />
      <path
         d="m 54.302888,23.760323 q 0,-0.82194 -0.493164,-1.287706 -0.493164,-0.465766 -1.232911,-0.767144 -0.712348,-0.328776 -1.589084,-0.602756 -0.849338,-0.301378 -1.589084,-0.739747 -0.712348,-0.465766 -1.205513,-1.178114 -0.493164,-0.712348 -0.493164,-1.91786 0,-1.972657 1.123319,-2.876791 1.123318,-0.931532 3.123372,-0.931532 1.479493,0 2.465821,0.27398 1.013726,0.246582 1.753472,0.602756 l -0.520562,1.808268 q -0.630154,-0.301378 -1.534288,-0.520562 -0.876736,-0.246582 -1.890463,-0.246582 -1.205512,0 -1.78087,0.41097 -0.54796,0.41097 -0.54796,1.424697 0,0.712348 0.493164,1.123318 0.493164,0.383572 1.205512,0.712348 0.739746,0.301378 1.589085,0.602756 0.876736,0.301378 1.589084,0.794542 0.739746,0.493165 1.23291,1.260309 0.493164,0.739746 0.493164,1.972656 0,0.876736 -0.301378,1.643881 -0.27398,0.767144 -0.876736,1.315104 -0.602756,0.54796 -1.50689,0.849338 -0.876736,0.328776 -2.082249,0.328776 -1.561686,0 -2.657606,-0.301378 -1.095921,-0.301378 -1.835667,-0.712348 l 0.657552,-1.863064 q 0.630154,0.356174 1.643881,0.657552 1.013726,0.301378 2.05485,0.301378 1.178114,0 1.945259,-0.465766 0.767144,-0.465766 0.767144,-1.671279 z"
         id="path7570" />
      <path
         d="m 59.590688,14.801175 q 1.041125,-0.630154 2.411025,-0.931532 1.397298,-0.301378 2.904189,-0.301378 1.424696,0 2.274034,0.383572 0.876736,0.383572 1.315104,1.013726 0.465766,0.602756 0.602757,1.342502 0.164388,0.739747 0.164388,1.479493 0,1.64388 -0.08219,3.205567 -0.08219,1.561686 -0.08219,2.958984 0,1.013727 0.08219,1.917861 0.08219,0.904134 0.301378,1.671278 h -1.616483 l -0.575358,-1.91786 h -0.13699 q -0.246582,0.383572 -0.630154,0.767144 -0.356174,0.356174 -0.876736,0.657552 -0.520562,0.27398 -1.205513,0.465766 -0.68495,0.191786 -1.561686,0.191786 -0.876736,0 -1.64388,-0.27398 -0.739747,-0.27398 -1.287707,-0.767144 -0.54796,-0.520562 -0.876736,-1.23291 -0.301378,-0.712349 -0.301378,-1.616483 0,-1.205512 0.493164,-2.000054 0.493164,-0.82194 1.369901,-1.287707 0.904134,-0.493164 2.137044,-0.68495 1.260308,-0.219184 2.767199,-0.219184 0.383572,0 0.739746,0 0.383572,0 0.767144,0.0548 0.08219,-0.82194 0.08219,-1.479492 0,-1.50689 -0.602756,-2.109647 -0.602756,-0.602756 -2.191841,-0.602756 -0.465766,0 -1.013726,0.08219 -0.520562,0.0548 -1.09592,0.191786 -0.54796,0.109592 -1.068522,0.301378 -0.493164,0.164388 -0.876737,0.383573 z m 3.890517,10.986601 q 0.767144,0 1.369901,-0.191786 0.602756,-0.219184 1.041124,-0.520562 0.438368,-0.328777 0.712348,-0.712349 0.301378,-0.383572 0.438368,-0.739746 v -2.274034 q -0.383572,-0.0274 -0.794542,-0.0274 -0.383572,-0.0274 -0.767144,-0.0274 -0.849339,0 -1.671279,0.109592 -0.794542,0.08219 -1.424696,0.356174 -0.602756,0.246582 -0.986328,0.712348 -0.356174,0.438368 -0.356174,1.123318 0,0.95893 0.68495,1.589085 0.68495,0.602756 1.753472,0.602756 z"
         id="path7572" />
      <path
         d="m 83.920123,22.773995 q 0,1.397298 0.0274,2.548015 0.0274,1.123318 0.246582,2.219238 h -1.479492 l -0.54796,-1.945258 h -0.109592 q -0.54796,0.95893 -1.589085,1.589084 -1.041124,0.630154 -2.438422,0.630154 -2.739801,0 -4.082303,-1.726074 -1.315104,-1.726075 -1.315104,-5.397407 0,-3.506945 1.64388,-5.315214 1.671278,-1.835666 4.575467,-1.835666 1.013726,0 1.589084,0.109592 0.602757,0.109592 1.287707,0.356174 V 8.3078476 h 2.19184 z m -5.534397,3.123373 q 1.397298,0 2.219239,-0.712348 0.82194,-0.739747 1.123318,-2.219239 v -6.794706 q -0.493164,-0.383572 -1.123318,-0.54796 -0.630155,-0.164388 -1.671279,-0.164388 -1.890462,0 -2.958985,1.260309 -1.068522,1.23291 -1.068522,3.972711 0,1.123318 0.164388,2.082248 0.191786,0.95893 0.602756,1.64388 0.41097,0.684951 1.068523,1.095921 0.68495,0.383572 1.64388,0.383572 z"
         id="path7574" />
      <path
         d="m 87.481872,7.9790715 q 1.260308,1.3151043 2.137044,2.9041885 0.876737,1.561687 1.397299,3.232965 0.54796,1.64388 0.794542,3.342557 0.246582,1.671278 0.246582,3.205566 0,1.506891 -0.246582,3.178169 -0.246582,1.671279 -0.794542,3.369955 -0.54796,1.671278 -1.452095,3.287761 -0.876736,1.616482 -2.164442,3.013781 l -1.315104,-0.958931 q 1.09592,-1.397298 1.835666,-2.904188 0.739746,-1.506891 1.150716,-3.041179 0.438368,-1.534288 0.602756,-3.041179 0.191786,-1.50689 0.191786,-2.904189 0,-1.315104 -0.219184,-2.849392 Q 89.42713,16.280667 88.961364,14.718981 88.522996,13.157295 87.810648,11.677802 87.0983,10.19831 86.084574,8.9927978 Z"
         id="path7576" />
    </g>
  </g>
</svg>
