<?xml version="1.0" encoding="UTF-8" standalone="no"?>
<svg
   version="1.1"
   viewBox="0 0 864.97888 676.02265"
   width="864.97888"
   height="676.02264"
   id="svg874"
   sodipodi:docname="merge-commit-4.svg"
   inkscape:version="1.2.1 (9c6d41e410, 2022-07-14)"
   xmlns:inkscape="http://www.inkscape.org/namespaces/inkscape"
   xmlns:sodipodi="http://sodipodi.sourceforge.net/DTD/sodipodi-0.dtd"
   xmlns="http://www.w3.org/2000/svg"
   xmlns:svg="http://www.w3.org/2000/svg">
  <sodipodi:namedview
     id="namedview876"
     pagecolor="#ffffff"
     bordercolor="#666666"
     borderopacity="1.0"
     inkscape:showpageshadow="2"
     inkscape:pageopacity="0.0"
     inkscape:pagecheckerboard="0"
     inkscape:deskcolor="#d1d1d1"
     showgrid="false"
     inkscape:zoom="0.80612245"
     inkscape:cx="553.26582"
     inkscape:cy="484.41772"
     inkscape:window-width="1920"
     inkscape:window-height="1011"
     inkscape:window-x="0"
     inkscape:window-y="0"
     inkscape:window-maximized="1"
     inkscape:current-layer="svg874" />
  <!-- svg-source:excalidraw -->
  <defs
     id="defs694">
    <style
       id="style692">
      @font-face {
        font-family: &quot;Virgil&quot;;
        src: url(&quot;https://excalidraw.com/Virgil.woff2&quot;);
      }
      @font-face {
        font-family: &quot;Cascadia&quot;;
        src: url(&quot;https://excalidraw.com/Cascadia.woff2&quot;);
      }
    </style>
  </defs>
  <rect
     x="0"
     y="0"
     width="864.97888"
     height="676.02264"
     fill="#ffffff"
     id="rect696"
     style="stroke-width:1.03076" />
  <g
     stroke-linecap="round"
     transform="translate(10,496)"
     id="g702">
    <path
       d="m 4.51,21.14 c 0,0 0,0 0,0 m 0,0 c 0,0 0,0 0,0 M 0,35.26 C 9.95,27.19 19.31,15.04 27.39,7.41 M 2.24,37.63 C 7.17,31.32 13.36,22.78 26.32,9.18 M 4.69,46.77 C 16.89,28.03 31.72,12.16 39.54,7.32 M 3.81,45.2 C 13.21,37.12 22.16,27.28 38.69,6.65 M 5.28,53.04 C 15.56,43.31 29.35,31.13 51.65,2.9 M 7.63,54.13 C 17.77,43.8 27.25,31 51.67,4.15 M 7.64,67.64 C 22.65,48.23 42.31,28.27 57.81,7.64 M 7.78,66.81 C 21.97,49.17 34.49,33.45 58.44,7.72 M 14.28,72.54 C 30.84,53.92 47.47,36.43 66.48,7.82 M 12.71,71.19 C 25.86,58.06 38.64,43.71 67.69,8.91 M 18.72,76.96 C 34.53,61.72 47.59,45.17 72.13,15.81 M 19.57,76.56 C 37.56,58.35 53.35,39.22 73.26,15.03 M 27.92,82.58 C 41.13,63.83 60.66,42.01 76.28,23.8 M 26.6,81.92 C 41.5,63.58 55.79,46.32 77.14,21.98 M 36.31,83.18 C 47.25,67.85 58.37,59.34 84.45,26.98 M 37.09,82.61 C 47.84,67.88 58.65,55.04 82.3,28.52 M 46.75,83.83 C 59.9,71.05 70.93,55.88 82.28,42.01 M 46.2,82.65 C 58.41,68.96 69.03,56.87 82.75,41.77 M 55.68,88.24 C 62.45,77.32 67.92,68.71 83.82,53.43 M 54.19,87.05 c 5.76,-8.2 13,-16.95 29.68,-34.37 M 6.7,65.46 c 0,0 0,0 0,0 m 0,0 c 0,0 0,0 0,0 M 29.43,76.34 C 19.44,65.93 11.1,57.75 1.32,52.36 M 31.2,76.59 C 24.52,70.03 16.04,62.46 2.45,52.32 M 49.43,81.8 C 37.32,69.88 25.28,62.27 3.16,40.9 M 49.64,81.72 C 38.57,72.71 27.73,62.46 2.2,40.3 M 58.15,78.71 C 35.11,61.73 19.27,44.05 4.21,31.39 M 57.52,77.43 C 39.86,61.19 20.53,45.94 4.76,32.08 M 66.18,73.61 C 43.37,51.97 20.59,35.4 7.61,23.54 M 65.48,73.53 C 43.71,55.37 23.48,36.13 6.03,21.56 M 73.31,71.09 C 49.67,47.43 27.76,30.3 10.21,14.47 M 72.48,68.63 C 46.59,47.72 23.18,26.65 10.09,14.36 M 75.52,62.95 C 54.78,46.13 37.25,28.04 16.16,8.81 M 76.62,62.43 C 60.75,49.36 45.81,33.87 14.81,9.02 M 79.64,56.69 C 58.61,39.28 43.05,22.28 21.78,6.62 M 79.83,55.18 C 61.32,39.14 42.87,22.57 22.57,3.98 M 83.4,48.28 C 70.27,36.58 56.92,21.59 32.22,2.64 M 83.79,47.6 C 68.23,33.07 50.38,18.13 32.91,1.88 M 83.58,37.46 C 71.08,25.71 54.98,12.74 44.54,1.64 M 84.07,37.18 C 71.17,25.58 57.53,13.51 43.56,1.99 m 38.6,22.24 C 73.07,18.12 65.45,10.44 49.35,-4.91 M 82.2,25.78 C 74.06,17.01 64.85,9.45 49.95,-4.09"
       stroke="#fab005"
       stroke-width="1"
       fill="none"
       id="path698" />
    <path
       d="m 46.31,0.34 c 6.98,-0.01 14.87,3.35 20.7,7.88 5.83,4.54 11.94,12.25 14.3,19.31 2.36,7.07 1.76,15.72 -0.14,23.09 C 79.27,58 75.37,66.47 69.93,71.78 64.48,77.09 55.78,81.05 48.5,82.5 41.21,83.95 33.16,83.29 26.22,80.48 19.28,77.66 11.18,71.9 6.85,65.6 2.53,59.3 0.64,50.13 0.28,42.68 -0.08,35.24 1.08,27.27 4.7,20.92 8.32,14.58 14.2,8 21.97,4.62 29.74,1.24 45.71,0.76 51.32,0.65 56.93,0.54 55.96,3.11 55.63,3.96 M 45.02,-0.19 c 7.23,0.36 16.81,5.19 22.65,9.98 5.83,4.8 10.13,11.89 12.35,18.78 2.22,6.88 2.72,15.35 0.96,22.54 -1.76,7.2 -6.17,15.23 -11.54,20.63 -5.37,5.4 -13.6,10.33 -20.67,11.79 C 41.71,84.98 33.95,83.62 27.04,80.46 20.12,77.29 12.02,70.84 7.28,64.55 2.54,58.27 -1.31,50.26 -1.4,42.74 -1.49,35.23 2.72,26 6.72,19.46 10.73,12.93 16.16,6.78 22.64,3.53 29.12,0.28 41.63,0.48 45.61,-0.06 49.6,-0.6 46.68,-0.52 46.57,0.3"
       stroke="#000000"
       stroke-width="2"
       fill="none"
       id="path700" />
  </g>
  <g
     stroke-linecap="round"
     transform="translate(413,506)"
     id="g708">
    <path
       d="m 16.92,8.09 c 0,0 0,0 0,0 m 0,0 c 0,0 0,0 0,0 M 8.26,31.36 c 6.08,-8.49 14.45,-19 22.13,-27.1 M 8.74,30.4 C 17.5,20.26 26.5,9.74 32.82,3.65 M 0.76,49.79 C 15.08,34.68 30.46,15.55 41.22,4.11 M 2.32,49.82 C 15.34,33.58 30.62,16.62 41.93,2.61 M 7.21,57.65 C 19.24,38.99 35.1,22.86 51.26,4 M 6.39,57.55 C 14.76,46.86 25.67,33.86 51.3,5.58 M 10.63,65.46 C 28.07,44.61 46.4,24.43 62.31,7.91 M 8.66,64.75 C 30.37,43.38 49.82,19.38 60.1,6.11 M 13.72,70.79 C 24.81,58.09 39.18,46.5 68.5,10.37 M 13.6,72.41 C 32.51,50.43 51.2,29.39 68.33,10.59 M 20.46,76.24 C 40.78,52.39 61.26,28.95 72.22,17.74 M 21.93,76.35 C 40.67,54.27 60.51,30.68 72.7,16.68 M 28.86,79.53 C 43.36,66.25 53.28,51.37 79.52,22.88 M 27.4,80.46 C 47.57,58.28 67.7,36.85 77.96,23 M 36.22,84.88 C 53.05,63.34 71.47,40.69 83.53,28.32 M 35.89,83.07 C 46.07,73.46 55.05,62.48 84.28,27.34 M 47.22,85.38 C 57.16,72.87 65.81,60.74 85.9,39.07 M 45.48,84.4 C 55.72,74.83 62.52,64.47 86.56,38.59 M 58.71,85.14 C 65.58,76.17 72.77,66.71 87.29,48.52 M 57.19,83.78 C 65.14,73.95 75.01,64.91 86.94,49.65 M 12.25,69.74 c 0,0 0,0 0,0 m 0,0 c 0,0 0,0 0,0 m 20.92,9.34 C 24.01,69.73 13.96,60.47 3.49,50.03 M 35.08,79.06 C 28.78,72.92 21.54,66.97 0.8,50.39 M 46.74,79.61 C 27.71,64.66 13.94,50.22 0.82,40.53 M 47.39,77.76 C 29.83,63.26 12.53,47.05 2.16,39.37 m 56.97,39.1 C 43.29,66.72 28.14,52.05 4.18,27.67 M 59.14,78.6 C 43.32,64.58 26.49,51.3 3.18,29.9 M 63.85,73.87 C 54.16,63.19 41.88,53.65 5.15,23.03 M 64.82,73.42 C 45.48,56.43 25.05,38.54 6.93,21.28 M 72.38,68.01 C 53.32,52.7 35.09,37 11.81,16.04 m 59.5,52.41 C 48.5,48.94 25.14,29.02 10.82,14.67 M 76.74,62.51 C 56.09,40.65 32.37,20.81 14.71,9.73 m 63.62,53.2 C 63.85,49.88 47.02,35.85 16.47,9.92 M 80.83,53.08 C 65.69,41.36 47.94,27.19 22.44,4.11 M 79.77,54.72 C 63.54,40.68 44.54,25.44 21.24,4.01 M 80.71,47.27 C 71.43,35.32 58.34,26.28 30.31,-0.59 M 81.8,45.21 C 69.7,33.43 56.21,24 30.82,1.34 M 80.77,33.96 C 64.76,18.52 51.41,5.78 41.15,-2.56 M 79.14,33.83 C 72.39,25.98 62.93,18.2 40.01,-1.82 M 81.07,23.8 C 74.54,16.84 64.21,8.88 56.75,2.81 M 80.17,21.54 C 73.32,16.88 66.96,11.44 56.08,2.94"
       stroke="#fab005"
       stroke-width="1"
       fill="none"
       id="path704" />
    <path
       d="m 39.03,0.45 c 6.96,-1.04 16.83,0.71 23.39,4.55 6.56,3.83 12.72,11.62 15.96,18.45 3.25,6.83 4.14,15.18 3.53,22.53 -0.62,7.35 -2.85,15.7 -7.22,21.58 -4.38,5.88 -11.94,11.4 -19.04,13.69 -7.09,2.3 -16.24,2.02 -23.51,0.07 C 24.86,79.36 17.13,74.71 11.99,69.5 6.85,64.3 2.9,57.41 1.31,50.1 -0.27,42.79 -0.16,32.7 2.48,25.66 5.11,18.63 9.96,12.12 17.11,7.88 24.26,3.63 39.94,1.1 45.36,0.21 50.78,-0.68 49.65,1.9 49.64,2.54 M 32.15,1.61 c 6.56,-2.34 13.99,-1.59 20.77,0.44 6.79,2.03 14.75,5.76 19.93,11.74 5.18,5.98 9.98,16.28 11.16,24.14 1.18,7.86 -0.72,16.35 -4.09,23.02 C 76.56,67.62 70.36,74.26 63.83,77.93 57.29,81.61 48.49,83.13 40.7,83 32.91,82.87 23.34,81.49 17.09,77.14 10.83,72.8 6.02,63.97 3.18,56.91 0.34,49.84 -1.35,42.01 0.03,34.75 1.4,27.48 6.42,18.9 11.43,13.3 16.44,7.7 26.68,3.05 30.09,1.14 c 3.42,-1.9 1.4,-0.01 1.81,0.72"
       stroke="#000000"
       stroke-width="2"
       fill="none"
       id="path706" />
  </g>
  <g
     stroke-linecap="round"
     transform="translate(131,381)"
     id="g714">
    <path
       d="m 9.16,17.23 c 0,0 0,0 0,0 m 0,0 c 0,0 0,0 0,0 M -0.72,39.64 C 6.52,31.59 14.09,24.46 31.59,3.4 M -0.08,39.41 C 11.77,26.98 22.61,13.37 30,4.35 M 3.11,48.29 C 12.99,40.42 19.85,28.9 42.3,4.69 M 1.88,48.32 C 11.48,39.65 19.82,29.78 42.24,5.18 M 6.72,57.78 C 18.54,43.27 34.34,26.39 51.28,1.76 M 5.49,59.15 C 17.78,45.34 29.16,31.17 53.11,3.06 M 9.27,65.88 C 22.61,51.71 33.67,37.1 59.89,6.37 M 10.11,63.79 C 22.43,52.29 33.39,36.84 59.42,7.51 M 17.35,72.5 C 37.82,45.59 59.57,22.72 66.99,10.15 M 15.16,70.3 C 29.68,55.38 42.46,40.97 67.62,11.44 M 20.84,76.45 C 41.31,51.64 64.96,28.79 75.75,13.54 M 20.94,77.68 C 39.15,55.89 58.17,34.71 75.69,14.04 M 26.82,83.59 C 39.76,66.53 52.46,49.53 80.3,21.22 M 25.71,83.89 C 43.12,63.77 58.02,44.3 78.83,22.07 M 34.2,86.18 C 49.54,64.98 69.1,46.28 80.78,31.1 M 35.33,85.21 C 47.42,69.77 60.91,57.38 81.6,30.89 M 45.18,82.61 C 58.78,69.42 70.08,58.42 88.88,36.83 M 45.76,83.82 C 56.06,72.42 64.84,63.45 86.53,36.81 M 62.32,76.64 C 71.21,69.08 75.25,61.88 79.88,54.68 M 63.25,77.06 C 68.4,71.48 71.92,66.8 81.17,55.98 m -60.62,22.5 c 0,0 0,0 0,0 m 0,0 c 0,0 0,0 0,0 M 35.4,80.55 C 27.6,74.24 14.64,66.07 8.04,57.12 M 36.33,81.21 C 28.84,74.97 23.82,70.11 7.83,57.55 M 48.37,81.74 C 33.26,68.48 22.03,57.44 3.54,44.38 M 47.36,80.76 C 36.1,70.48 25.61,63.33 5.66,43.76 M 56.13,75.94 C 38.12,64.83 23.68,49.24 5.26,33.67 M 55.05,76.96 C 41.62,65.72 29.65,53.52 5.53,33.32 m 58.49,39.8 C 45.45,60.3 28.28,42.08 8.8,24.09 M 63.86,73.18 C 47.36,58.66 29.85,44.68 8.56,26.24 M 71.69,66.98 C 53.85,54.12 38.63,43.52 11.72,16.88 M 70.85,67.92 C 52.32,52.18 34.15,37.11 9.7,15.46 M 73.84,63.59 C 63.92,51.34 50.01,40.29 16.01,12.56 m 59.41,50.8 C 58.31,47.63 42.86,33.94 17.22,11.99 M 78.03,56.12 C 68.43,43.55 55.26,33.14 22.63,5.28 M 80.28,56.04 C 67.26,45.54 55.92,36.33 22.29,5.14 M 83.34,48.21 C 66.37,33.81 50.71,18.17 29.67,-0.7 M 85.1,50.15 C 63.71,32.21 43.15,13.44 28.29,0.99 M 87.43,38.76 C 69.64,24.27 50.36,7.85 40.77,-1.64 M 86.66,40.3 C 70.68,27.63 56.49,14.5 40.19,-0.36 M 84.26,30.46 C 70.02,16.78 59.8,5.41 52.64,-0.04 m 33,27.97 C 74.11,19.31 60.64,7.46 51.21,-0.54"
       stroke="#40c057"
       stroke-width="1"
       fill="none"
       id="path710" />
    <path
       d="m 26.82,2.6 c 6.32,-3.02 15.44,-3.54 22.8,-2.04 7.35,1.5 15.97,5.62 21.31,11.04 5.35,5.41 9.15,14.17 10.75,21.46 1.61,7.29 1.48,15.45 -1.14,22.28 C 77.92,62.17 71.89,69.53 65.97,74.02 60.05,78.5 52.54,81.46 45.02,82.25 37.49,83.03 27.44,82.34 20.83,78.73 14.23,75.12 8.84,67.21 5.39,60.57 1.95,53.93 -0.5,46.12 0.14,38.88 0.79,31.64 4.54,23.25 9.25,17.12 13.97,11 24.55,4.49 28.42,2.11 c 3.87,-2.38 3.57,0.13 4.07,0.73 m 1.87,-3.02 c 6.71,-1.86 15.18,-0.86 22.27,2.19 7.1,3.06 15.95,9.61 20.29,16.12 4.35,6.52 6.06,15.3 5.8,22.97 -0.25,7.68 -3.37,16.83 -7.32,23.1 -3.95,6.28 -9.94,11.29 -16.38,14.53 -6.44,3.25 -14.97,5.78 -22.25,4.94 C 29.49,82.83 21.02,78.82 15.34,73.68 9.65,68.55 4.74,60.28 2.66,52.87 0.58,45.47 0.79,36.2 2.85,29.26 4.91,22.32 9.44,16 15,11.21 20.56,6.42 33.06,2.12 36.22,0.52 c 3.15,-1.6 -2.08,0.55 -2.29,1.11"
       stroke="#000000"
       stroke-width="2"
       fill="none"
       id="path712" />
  </g>
  <g
     stroke-linecap="round"
     transform="translate(545,390)"
     id="g720">
    <path
       d="m 11.23,12.41 c 0,0 0,0 0,0 m 0,0 c 0,0 0,0 0,0 M 3.5,33.08 C 11.81,24.59 18.05,14.09 31.88,4.28 M 2.54,34.3 C 9.05,26.93 15.18,21.14 31.28,3.22 M 3.14,44.21 C 14.4,34.15 21.66,23.36 38.36,7.51 M 3.17,45.25 C 17.31,30.01 30.74,13.93 36.86,6.6 M 2.96,56.71 C 13.04,44.03 25.65,31.7 46.75,5.44 M 2.86,57.72 C 19.39,40.23 33.58,22.08 48.33,7.63 M 8.63,63.95 C 20.1,50.73 32.3,39.87 61.13,7.28 M 7.93,65.23 C 25.16,47.21 39.74,28.15 59.33,4.64 M 11.94,69.84 C 26.95,56.24 43.06,38.62 65.88,11.59 M 13.56,70.72 C 27.26,54.65 41.95,38.32 66.1,11.67 M 19.02,75.3 C 30.36,62.34 42.01,49.49 73.94,16.78 M 19.14,76.96 C 39.35,54.38 58,30.78 72.88,14.84 M 25.83,81.9 C 43.42,60.54 59.33,44.71 79.13,22.11 M 26.76,80.13 C 43.15,62.68 60.23,42.11 79.24,21.31 M 35.45,81.35 C 45.59,69.22 54.62,58.6 82.62,26.03 M 33.64,83.2 C 45.97,70.05 56.92,58.53 81.64,27.56 M 43.98,86.47 C 53.16,73.36 62.63,63.21 84.95,36.04 M 43,86.97 C 54.95,72.03 66.15,59.91 84.47,37.21 M 57.79,83.63 C 62.43,77.31 66.58,71.06 79.97,53.34 M 56.43,82.27 C 64.32,74.56 73,64.83 81.09,53.56 M 16.46,75.57 c 0,0 0,0 0,0 m 0,0 c 0,0 0,0 0,0 m 20.63,6.06 C 27.66,73.88 18.57,69.51 4.45,52.61 M 37.07,83.5 C 26.88,74.68 17.08,64.72 4.82,55.27 m 40.45,21.4 C 29.75,67.1 15.39,51.41 4.9,45.8 M 43.41,78.91 C 36.11,72.54 27.26,64.5 3.73,43.53 M 54.69,76.47 C 43.06,65.75 28.95,56.66 1.12,31.49 M 54.83,76.98 C 42.25,65.99 30.72,57.14 3.35,30.96 m 62,45.58 C 47.98,61.17 31.81,43.67 7.57,25.33 M 64.9,75.64 C 47.49,59.65 29.15,44.78 5.82,24.4 M 70.21,68.91 C 50.54,52.1 31.28,38.32 10.25,17.96 M 70.66,69.51 C 48.24,49.72 26.32,31.79 8.89,17.34 m 65.8,47.35 C 61.71,53.31 49.96,39.83 14.47,8.83 M 75.11,64.42 C 60.07,49.71 44.16,37.23 14.67,9.62 M 79.93,59.55 C 68.71,46.15 54.81,34.96 22.41,5.65 M 81.57,58.84 C 61.54,39.17 41.24,22.51 22.31,4.85 m 62.6,44.36 C 64.28,31.25 47.03,17.97 27.98,0.49 M 82.85,49.28 C 62.87,30.75 44.35,14.72 29.9,2.48 M 86.43,39.89 C 71.75,30.59 59.23,18.91 34.97,-4.23 M 86.3,40.7 C 74.06,29.04 61.87,19.32 35.71,-2.38 M 89.13,33.21 C 79.23,21.99 68,15.84 49.23,-3.15 M 86.87,31.36 C 76.59,21.3 64.99,11.17 49.36,-2.28"
       stroke="#4c6ef5"
       stroke-width="1"
       fill="none"
       id="path716" />
    <path
       d="m 55.8,2.38 c 6.74,1.93 13.22,7.86 17.86,13.63 4.63,5.77 9.15,13.41 9.96,20.99 0.82,7.58 -1.49,17.61 -5.06,24.51 -3.57,6.9 -9.87,13.2 -16.36,16.88 C 55.72,82.06 47.24,84 39.66,83.56 32.08,83.13 22.91,80.17 16.7,75.78 10.48,71.39 4.86,64.39 2.37,57.22 -0.12,50.05 0.25,40.26 1.77,32.74 3.29,25.23 6.38,17.3 11.48,12.13 16.57,6.97 24.35,3.08 32.34,1.76 40.33,0.44 54.2,3.22 59.41,4.22 c 5.2,0.99 4.5,3 4.16,3.51 M 35.56,-0.99 c 6.96,-1.97 16.38,0.29 22.92,3.8 6.53,3.51 12.01,10.68 16.29,17.28 4.27,6.6 8.85,14.9 9.33,22.32 0.48,7.43 -2.4,16.03 -6.44,22.23 -4.04,6.19 -10.83,12.09 -17.79,14.94 -6.96,2.84 -16.65,3.2 -23.97,2.1 -7.31,-1.1 -14.13,-3.9 -19.93,-8.7 C 10.16,68.19 3.4,59.95 1.07,52.88 -1.26,45.81 -0.18,37.8 1.98,30.56 4.14,23.31 8.49,14.32 14.01,9.42 19.53,4.51 31.57,2.42 35.1,1.14 38.62,-0.13 34.97,1.2 35.14,1.77"
       stroke="#000000"
       stroke-width="2"
       fill="none"
       id="path718" />
  </g>
  <g
     stroke-linecap="round"
     transform="translate(10,385)"
     id="g726">
    <path
       d="m 11.79,12.9 c 0,0 0,0 0,0 m 0,0 c 0,0 0,0 0,0 M 4.88,33.36 C 8.62,29.23 15.56,21.31 30.88,2.05 M 3.04,33.97 C 10.74,26.49 16.23,19.08 32.65,2.31 M 2.3,45.16 C 19.36,29.45 30.96,16.3 42.02,2.47 M 4.72,46.57 C 15.38,33.24 26.44,21.08 42.22,2.39 M 3.07,58.27 C 16.97,45.06 31.32,28.2 53.21,4.17 M 4.82,58.02 C 13.51,46.9 23.03,35.45 52.57,2.89 M 10.09,64.95 C 30.45,43.46 49.45,19.4 61.07,6.88 M 10.55,64.98 C 30.03,42 47.74,18.51 60.37,6.79 M 12.6,71.29 C 24.34,59.06 37.42,43.43 67.38,12.92 M 15.11,71.17 C 31.79,51.59 49.42,30.43 66.55,10.46 M 20.63,77.95 C 30.34,63.59 45.19,47.7 73.2,15.86 M 20.07,77.15 C 32.12,61.01 45.09,46.23 74.3,15.34 M 25.81,78.35 C 42.67,61.05 61.32,41.67 80.27,21.45 M 28.08,79.56 C 39.44,66.92 48.61,54.46 80.46,19.94 M 35.47,83.34 C 46.71,67.67 62,54.04 83.05,29.42 M 34.94,82.88 C 51.81,63.84 67.47,44.15 83.44,28.73 M 42.58,88.22 C 57.55,69.07 76.15,49.58 83.96,39.1 M 43.51,87.51 C 58.96,68.42 73.77,49.46 84.45,38.82 M 55.09,84.64 C 65.22,74.23 69.59,65.81 80.94,53.63 M 56.87,82.73 C 61.88,76.06 68.23,69.49 80.98,55.17 M 17.93,75.4 c 0,0 0,0 0,0 m 0,0 c 0,0 0,0 0,0 m 19.1,5.79 C 31.3,74.66 20.76,67.68 3.24,54.73 M 39.7,83.48 C 29.89,75.57 19.54,67.74 4.27,54.4 M 43.51,78.14 C 29.89,64.59 18.78,52.53 4.92,42.39 M 44.57,77.26 C 33.57,66.27 19.63,55.55 3.68,42.07 m 49.8,33.45 C 36.56,60.3 13.73,39.72 1.25,28.91 M 54.98,75.5 C 38.61,59.85 21.55,46.81 3.67,29.55 M 66.54,72.93 C 44.94,56 24.38,41.49 5.31,23.29 m 60.05,50.7 C 49.27,60.85 32.12,46.83 5.68,22.06 M 70.57,68.47 C 57.21,57.29 41.07,43.17 9.28,18.1 M 71.36,67.9 C 54.56,54.05 39.52,40.72 10.65,16.87 m 65.59,45.6 C 55.19,43.12 31.77,25.29 13.39,7.92 M 76.3,62.62 C 53.94,43.02 31.09,24.32 13.91,8.76 M 80.69,55.1 C 67.3,46.65 58.07,33.46 20.39,6.56 M 82.8,56.39 C 57.9,35.45 34.23,15.02 21.54,4.36 M 85.02,46.23 C 68.8,35.41 56.17,20.31 28.5,1.25 M 84.18,47.23 C 70.4,34.57 56.84,23.07 29.28,1.35 M 85.15,36.57 C 70.02,22.22 52.31,11.68 38.16,-2.88 M 83.29,37.19 C 70.31,23.79 54.82,12.6 37.24,-3.99 m 38.9,25.24 C 70.9,12.81 62.91,8.81 53.95,0.95 M 78.73,20.91 C 69.06,14.52 61.19,6.14 55.73,2.08"
       stroke="#fab005"
       stroke-width="1"
       fill="none"
       id="path722" />
    <path
       d="m 32.29,1.29 c 6.84,-2 15.8,-0.66 22.82,1.61 7.03,2.27 14.65,6.1 19.36,12.03 4.72,5.92 8.17,16.03 8.94,23.52 0.77,7.5 -0.71,14.83 -4.33,21.43 -3.63,6.61 -10.91,14.25 -17.43,18.2 -6.51,3.96 -14.39,5.99 -21.67,5.55 C 32.69,83.18 24.23,79.99 17.96,75.43 11.7,70.87 5.26,63.35 2.38,56.26 -0.5,49.16 -0.86,40.06 0.69,32.86 2.23,25.66 6.11,18.58 11.64,13.07 17.16,7.57 29.52,1.76 33.84,-0.15 c 4.32,-1.92 3.35,0.8 3.69,1.75 M 48.18,0.48 c 6.9,0.68 13.91,6.02 19.4,10.92 5.48,4.89 11.04,11.71 13.51,18.47 2.48,6.76 3.31,15.02 1.35,22.08 C 80.47,59.02 75.07,67.02 69.28,72.27 63.48,77.52 55.35,82.46 47.66,83.44 39.97,84.42 30.08,81.18 23.14,78.15 16.19,75.12 9.62,71.2 5.99,65.25 2.35,59.3 1.37,50.18 1.34,42.46 1.3,34.74 2.14,25.33 5.76,18.94 9.38,12.55 15.96,7.35 23.05,4.1 30.14,0.86 44.35,0.11 48.28,-0.54 52.22,-1.19 46.78,-0.79 46.67,0.2"
       stroke="#000000"
       stroke-width="2"
       fill="none"
       id="path724" />
  </g>
  <g
     stroke-linecap="round"
     transform="translate(413,395)"
     id="g732">
    <path
       d="m 5.93,19.73 c 0,0 0,0 0,0 m 0,0 c 0,0 0,0 0,0 M -0.38,38.62 C 6.92,29.2 12.2,24.01 29.42,5.14 M 0.85,38.16 C 8.55,28.9 17.86,19.63 28.36,6.59 M 2.88,47.15 C 10.78,36.88 17.92,30.16 41.51,6.5 M 3.92,46.43 C 16.92,31.85 29.13,16.08 40.6,4.11 M 5.34,53.66 C 18.81,39.83 32.68,23.89 50.01,4.74 M 6.35,55.56 C 17.59,41.78 28.22,30.71 52.19,2.96 M 8.03,66.5 C 26.69,45.55 47.75,23.27 60.74,7.63 M 9.31,66.6 C 24.09,48.87 37.77,31.68 58.1,7.25 M 13.2,70.21 C 31.34,54.8 45.45,36.41 67.15,10.78 M 14.08,70.77 C 33.38,49.34 52.37,28.24 67.24,10.41 M 19.34,75.07 C 31.49,61.52 43.71,49.83 75.19,16.33 M 21.01,76.04 C 33.8,60.07 45.59,46.38 73.26,15 M 29,81.29 C 36.12,69.67 48.78,57.25 79.34,22.81 M 27.23,80.42 C 40.2,67.77 49.99,54.73 78.55,21.65 M 34.78,82.72 C 47.16,66.68 61.05,52.82 79.17,29.22 M 36.64,82.68 C 48.08,69.2 61.16,53.25 80.7,30.14 M 46.89,82.99 C 52.87,73.48 61.8,65.33 80.85,40.97 M 47.39,83.62 C 59.68,67.2 74.8,51.38 82.02,40.45 M 54.46,87.36 C 60.4,78.85 66.45,71 82.47,53.71 M 53.1,86.91 C 63.96,76.74 72.76,64.95 82.69,53.62 M 7.82,65.7 c 0,0 0,0 0,0 m 0,0 c 0,0 0,0 0,0 m 20.82,7.83 C 19.39,64.83 13.04,58.02 0.67,50.56 M 30.52,74.13 C 21.17,66.47 10.81,59.02 3.32,51.15 M 48.1,81.61 C 32.99,66.2 11.68,49.99 3.69,37.23 M 50.33,81.14 C 35.1,66.47 18.6,53.22 1.42,38.64 M 57.51,78.88 C 38.78,61.44 22.13,43.44 3.56,29.16 M 58.02,77.29 C 38.73,62.65 22.5,47.29 3.03,30.51 M 67.29,74.4 C 49.65,60.18 29.28,43.8 7.73,22.66 M 66.39,74.41 C 48.49,58.82 31.58,42.63 6.8,22.6 M 72.56,68.77 C 48.24,47.81 27.35,29.4 11.35,15.64 M 73.16,69.45 C 48.77,48.46 25.78,27.32 10.73,13.57 M 78.11,60.48 C 64.85,48.98 48.49,38.16 15.67,8.8 M 77.84,62.03 C 58.08,44.93 40.39,30.01 16.46,9.14 M 82.85,56.51 C 65.28,41.95 49.99,27.34 22.56,5.14 M 82.13,56.01 C 58.66,36.27 37.14,17.06 21.77,4.66 M 86.32,47.73 C 64.62,31.33 46.82,13.71 27.48,0.38 M 86.39,47.95 C 73.52,38.62 62.78,28.49 29.46,-1.38 M 84.11,35.54 C 74.68,26.55 63.26,16.84 36.6,-4.39 M 84.93,36.9 C 70.22,24.63 56.8,12.67 38.45,-3.69 M 85.31,26.26 C 73.61,17.5 67.4,12.27 49.1,-3.94 M 83.46,25.74 C 76.31,19.39 69.32,14.03 49.97,-4.27"
       stroke="#fab005"
       stroke-width="1"
       fill="none"
       id="path728" />
    <path
       d="m 46.68,-0.34 c 7.22,0.37 15.76,5.83 21.35,10.79 5.59,4.97 9.83,11.95 12.19,18.99 2.37,7.05 3.7,16.07 1.99,23.3 C 80.51,59.97 75.58,67.98 70,72.85 64.42,77.73 56.14,80.97 48.74,82.01 41.34,83.04 32.45,81.82 25.59,79.06 18.73,76.31 11.94,71.67 7.58,65.49 3.22,59.32 -0.26,49.59 -0.57,42 -0.88,34.42 1.57,26.29 5.71,19.97 9.85,13.66 16.28,7.02 24.27,4.14 32.26,1.26 47.61,2.57 53.65,2.68 59.68,2.8 60.8,4.36 60.48,4.81 M 38.25,0.04 C 45,-1.14 54.68,0.22 61.59,4.17 68.51,8.12 76.01,16.66 79.75,23.75 83.48,30.84 84.8,39.31 84,46.71 83.2,54.11 79.73,62.48 74.95,68.16 70.18,73.84 62.74,78.29 55.35,80.79 47.96,83.3 37.94,85.12 30.6,83.21 23.25,81.29 16.35,74.92 11.27,69.31 6.19,63.7 1.42,56.8 0.12,49.55 -1.17,42.3 0.75,32.84 3.51,25.81 6.26,18.78 10.52,11.73 16.66,7.38 22.81,3.04 36.46,0.81 40.39,-0.25 44.32,-1.31 40.32,0.36 40.23,1.03"
       stroke="#000000"
       stroke-width="2"
       fill="none"
       id="path730" />
  </g>
  <g
     stroke-linecap="round"
     transform="translate(131,270)"
     id="g738">
    <path
       d="m 20.82,4.85 c 0,0 0,0 0,0 m 0,0 c 0,0 0,0 0,0 M 11.01,28.07 C 14.95,24.04 19.83,19.54 32.35,3.1 M 10.78,29.51 C 20.03,19.11 28.09,7.57 33.3,1.01 M 2.8,51.07 C 19.42,32.54 32.33,16.47 45.71,-0.6 M 2.83,49.46 C 16.81,34.99 29.5,20.94 46.21,0.92 M 5.93,57.28 C 22.16,41.88 35.97,21.9 51.58,2.98 M 7.3,57.96 C 16.98,45.94 26.29,35.16 52.88,3.39 M 12.1,65.41 C 27.05,47.17 41.5,29.83 60.46,5.75 M 10,65.45 C 28.99,45.38 43.95,25.93 61.6,7.97 M 16.78,73.49 c 8.8,-12.96 21.55,-29 51.07,-63.84 M 14.59,73.47 C 27.87,58.32 41.59,42.09 69.14,11.59 M 20.67,76.27 C 30.85,66.42 42.97,53.23 72.22,18.26 M 21.9,77.11 C 35.09,61.62 48.88,46.06 72.72,17.2 M 29.15,80.93 C 47.34,57.42 65.63,39.22 77.02,23.86 M 29.45,81.78 C 46.9,58.9 65.04,39.22 77.87,23.93 M 40.25,79.87 C 53.55,65.26 69.33,44.05 84.77,28.66 M 39.27,81.09 C 47.34,71.39 58.48,58.96 84.56,29.37 M 46.78,83.88 C 60.48,68.3 76.36,54.29 85.19,38.64 M 47.99,83.07 C 57.35,71.28 69.14,59.84 85.16,40.44 M 54.98,88.53 C 61.32,78.85 67.91,70.36 84.34,50.85 M 55.41,87.61 C 61.33,79.24 68.15,71.7 85.63,51.81 M 9.94,67.83 c 0,0 0,0 0,0 m 0,0 c 0,0 0,0 0,0 M 31.37,77.87 C 23.61,66.09 14.15,58.97 0.61,47.84 M 32.02,75.53 C 22.28,69.45 14.23,61.02 1.04,49.4 M 46.9,76.75 C 29.21,65.68 14.42,50.02 4.11,40.3 M 45.92,76.74 C 34.23,68.07 26.05,60.43 3.49,41.34 M 55.8,74.74 C 41.73,60.94 22.35,47.48 6.25,31.94 M 56.82,76.38 C 39.51,62.6 21.59,46.92 5.91,32.7 M 63.15,70.31 C 52.78,58.72 36.07,49.83 4.65,22.02 M 63.21,72.61 C 41.63,54.04 21.5,36.71 6.8,21.57 M 70,67.91 C 47.89,48.51 27.65,30.86 12.01,16.1 M 70.94,69.03 C 53.73,54.22 36.88,37.77 10.59,15.31 M 77.14,63.5 C 63.93,51.71 52.02,38.58 17.66,9.56 M 76.91,61.29 C 56.92,45.29 37.97,28.35 17.09,9.23 M 80.11,56.29 C 58.01,37.4 37.99,17.5 21.01,2 M 80.02,53.87 C 56.53,35.19 35.36,15.85 20.87,3.98 M 82.73,46.79 C 61.6,29.43 39.69,11.18 29.43,2.57 M 84.67,47.2 C 69.09,34.01 52.95,20.28 31.12,2 M 80.95,36.9 C 65.59,21.87 48.72,8.85 39.06,-0.61 M 82.49,34.82 C 66.3,21.75 50.01,8.25 40.34,-0.05 M 82.39,21.52 C 67.86,13.76 55.76,3.34 48.2,-4.58 m 31.67,28.6 C 73.82,16.18 64.87,10.27 47.71,-6.33"
       stroke="#40c057"
       stroke-width="1"
       fill="none"
       id="path734" />
    <path
       d="m 42.91,-0.71 c 7.12,-0.29 15.76,3.83 21.82,8.15 6.05,4.32 11.51,10.83 14.51,17.75 3,6.92 4.8,16.42 3.46,23.78 C 81.37,56.33 76.49,63.8 71.23,69.35 65.96,74.9 58.34,80.48 51.1,82.28 43.87,84.08 34.65,82.54 27.81,80.14 20.96,77.75 14.77,73.61 10.04,67.92 5.32,62.24 0.34,53.36 -0.55,46.03 -1.43,38.7 1.18,30.79 4.73,23.94 8.29,17.08 14.06,8.77 20.79,4.89 27.52,1.01 40.67,1.15 45.12,0.67 49.57,0.19 47.6,1.48 47.48,2.03 m -9.62,-3.42 c 6.89,-0.84 15.47,3.57 22.09,7.36 6.62,3.79 13.75,9.2 17.62,15.39 3.87,6.2 5.93,14.31 5.6,21.76 -0.34,7.45 -3.06,16.65 -7.63,22.94 -4.57,6.3 -12.82,12.1 -19.8,14.85 C 48.76,83.65 40.86,84.1 33.65,82.55 26.45,81 18.13,76.76 12.52,71.61 6.91,66.46 1.83,58.89 -0.02,51.65 -1.87,44.4 -1.45,35.16 1.43,28.15 4.32,21.13 11.1,14.41 17.29,9.55 23.48,4.68 34.96,0.51 38.57,-1.03 c 3.6,-1.55 0.42,0.17 0.34,1.3"
       stroke="#000000"
       stroke-width="2"
       fill="none"
       id="path736" />
  </g>
  <g
     stroke-linecap="round"
     transform="translate(545,279)"
     id="g744">
    <path
       d="m 8.5,16.66 c 0,0 0,0 0,0 m 0,0 c 0,0 0,0 0,0 M 1.57,37.32 C 8.74,25.8 20.16,18.91 27.25,5.49 M 1.11,37.44 C 12.34,25.88 23.54,13.32 28.7,4.31 M 7.22,42.95 C 14.5,32.47 25.32,23.95 42.84,4.82 M 6.5,44.09 C 20.05,28.18 32.38,13.17 40.45,3.71 M 6.81,52.64 C 25.53,33.69 42.15,12.24 54.47,0.36 M 8.71,53.68 C 25.05,33.48 44.11,14.01 52.7,2.23 M 9.9,64.35 C 28.87,45.75 46.5,25.26 60.32,5.79 M 10,65.22 C 19.89,51.49 30.28,39.08 59.94,5.89 M 14.41,71.57 C 30.57,54.66 43.69,38.98 66.42,11.64 M 14.96,69.93 C 26.79,56.85 38.98,43.94 66.05,9.69 M 20.8,73.56 C 33.33,60.04 47.72,48.37 74.92,13.78 M 21.77,75.43 C 37.54,54.85 55.62,35.5 73.6,14.03 M 27.16,79.85 C 44.35,62.35 60.71,44.19 77.96,21.04 M 26.29,82.2 C 37.4,68.36 48.14,58.06 76.8,22.3 M 35.78,81.63 C 49.5,65.76 65.43,47.05 80.17,29.51 M 35.74,82.86 C 51.39,66.46 64.48,48.94 81.1,29.09 M 45.3,83.19 C 58.74,68.02 73.62,49.71 86.12,38.24 M 45.93,83.57 C 53.91,74.57 62.54,62.94 85.6,35.8 M 61.15,79.7 C 68.37,69.52 76.25,58.32 85.64,50.63 M 60.7,79.77 C 67.48,72.22 72.65,64.38 85.55,50.05 M 22.72,77.51 c 0,0 0,0 0,0 m 0,0 c 0,0 0,0 0,0 m 17.52,3.97 C 32.91,78.51 27.54,69.05 9.94,56.34 m 30.9,26.82 C 30.87,73.38 21.27,66.39 10.53,56.54 M 48.75,79.9 C 35.26,64.69 21.4,56.36 -0.44,38.3 M 48.27,79.35 C 31.55,64.3 15.44,50.03 0.97,38.34 M 58.35,75.12 C 38.63,61.27 18.64,43.34 3.14,30.49 M 56.77,74.5 C 36.24,58.37 15.71,38.75 4.48,29.92 M 67.82,75.21 C 54.16,60.51 38.74,49.53 7.63,21.84 M 67.82,73.9 C 50.08,60.03 32.04,44.17 7.57,22.58 M 71.5,66.28 C 50.55,50.71 31.91,32.95 11.6,15.44 M 72.18,66.91 C 55.9,53.81 39.49,40.36 9.53,13.18 M 75.82,62.92 C 64.21,49.62 52.6,38.52 16.24,9.33 M 77.37,61.28 C 60.04,47.69 44.03,31.77 16.58,8.93 M 83.04,55.15 C 65.76,40.97 47.35,23.77 23.97,5.41 M 82.53,54.09 C 70.49,44.83 58.64,33.14 23.49,4.23 M 81.67,43.07 C 69.77,34.83 57.45,23 31.34,-2.75 M 81.89,44.34 C 69.66,33.78 56.13,21.76 29.58,-1.62 M 82.14,36.14 C 67.32,22.52 52.13,7.24 39.2,-2.47 M 83.5,34.11 C 72.76,26.07 62.94,18.21 39.91,-2.99 M 87.88,25.94 C 73.56,17.54 63.19,5.92 53.24,-3.79 m 34.12,31.1 C 76.32,17.34 65.69,8.08 52.91,-1.87"
       stroke="#4c6ef5"
       stroke-width="1"
       fill="none"
       id="path740" />
    <path
       d="m 26.43,2.48 c 6.53,-3.16 17.31,-4.14 24.78,-2.39 7.47,1.74 14.86,7.26 20.04,12.84 5.18,5.58 9.47,13.34 11.07,20.64 1.59,7.3 1.24,16.18 -1.51,23.16 C 78.06,63.72 71.97,71 65.82,75.46 59.66,79.92 51.09,83.2 43.87,83.5 36.64,83.81 28.98,81.08 22.47,77.29 15.96,73.51 8.48,67.16 4.81,60.8 1.13,54.43 -0.19,46.43 0.42,39.09 1.02,31.75 2.68,22.97 8.43,16.74 14.18,10.5 29.51,4.4 34.92,1.66 c 5.41,-2.74 6.05,-1.84 5.97,-1.34 m 16.1,1.86 c 6.52,2.56 12.35,10.14 16.87,16.57 4.51,6.44 9.43,14.63 10.2,22.05 0.77,7.41 -1.78,16.11 -5.57,22.45 C 74.7,69.6 68.15,75.76 61.32,78.86 54.49,81.97 44.86,82.67 37.51,81.87 30.16,81.06 23.21,78.58 17.22,74.01 11.23,69.44 4.18,61.4 1.57,54.42 -1.04,47.44 -0.31,39.44 1.57,32.12 3.44,24.8 7.49,15.63 12.81,10.51 18.14,5.39 26.19,2.59 33.5,1.42 40.82,0.25 52.81,3.09 56.7,3.48 60.59,3.87 57.12,3.3 56.84,3.75"
       stroke="#000000"
       stroke-width="2"
       fill="none"
       id="path742" />
  </g>
  <g
     stroke-linecap="round"
     transform="translate(10,266)"
     id="g750">
    <path
       d="m 8.19,17.72 c 0,0 0,0 0,0 m 0,0 c 0,0 0,0 0,0 M 0.46,39.11 C 7.73,32.58 11.2,25.3 27.15,4.73 M 0.35,38.99 C 8.76,30.24 16.43,18.86 29.12,5.82 M 6.45,44.08 C 18.12,28.25 32.22,15.55 41.38,5.1 M 5.1,44.28 C 19.42,30.06 32.81,13.86 41.6,3.93 M 7.41,56.39 C 23.67,34.47 39.83,18.71 53.53,2.67 M 8.2,53.75 C 22.4,38.25 37.57,20.97 53.02,3.74 M 9.52,65.04 C 27.52,43.17 43.97,24.56 60.42,8.88 M 10.21,64.28 C 27.13,46.09 43.69,26 59.94,7.85 M 17.35,70.73 C 33.72,47.7 50.32,28.51 66.87,10.25 M 16.37,71.08 C 29.77,53.94 43.74,37.68 66.65,10.04 M 20.78,74.91 C 36.57,57.86 52.51,38.23 74.64,15.58 M 21.38,75.73 C 32.56,63.45 45.93,47.71 73.97,15.62 M 26.79,83.46 c 21.6,-22.71 40.52,-49 51.59,-62.15 M 25.21,82.97 C 39.97,66.91 54.15,50.36 79.22,21.79 M 35.52,85.13 C 49.32,67.35 63.69,51.38 84.3,30.37 M 35.03,84.17 C 52.8,64.71 71.31,42.79 82.76,29.58 M 44.47,86.45 C 55.31,70.23 67.27,56.64 86.93,37.8 M 45.4,85.34 C 60.46,67.56 72.97,51.24 86.72,36.55 M 62.35,78.3 C 65.67,72.88 73.92,68.07 79.34,56.51 M 62.02,76.71 C 68.27,68.62 76.03,61.34 81.16,55.58 M 22.02,78.32 c 0,0 0,0 0,0 m 0,0 c 0,0 0,0 0,0 m 16.01,2.22 C 28.37,74.04 19.94,67.12 10.21,57.55 M 38.42,82.38 C 28.07,72.81 18.63,64.1 8.61,57.16 m 39.4,22.55 C 32.32,65.59 18.82,52.17 0.35,36.98 M 47.54,79.24 C 32.21,66.85 15.19,51.04 1.63,39.62 M 55.9,76.04 C 37.95,60.23 19.62,44.12 2.67,30 M 56.02,76.68 C 37.04,60.18 15.26,40.94 4,30.21 M 63.73,73.39 C 48.52,60.91 34.19,46.31 7.76,23.23 M 63.7,73.33 C 46.4,57.57 30.64,43.67 7.28,22.77 M 71.11,70.45 C 51.19,52.19 35.72,37.11 10.27,16.3 M 71.49,68.98 C 46.56,47.41 23.87,25.3 10.05,15.98 M 74.79,60.17 C 64.23,50.25 48.99,40.71 16.88,10.6 M 77,60.99 C 61.82,49 46.94,35.64 15.9,9.21 M 81.12,56.19 C 60.34,36.31 40.73,20.69 21.93,4.68 M 80.87,53.84 C 62.59,39.55 45.02,23.51 22.96,4.91 m 57.4,38.74 C 59.93,26.2 39.43,9.83 29.84,-0.56 M 81.03,44.93 C 61.54,27.47 40.98,10.61 30.23,-1.05 m 50.6,36.73 C 66.35,23.97 53.75,10.29 41.25,-1.29 m 41.56,35.5 C 70.36,24.53 56.59,13.01 39.72,-1.82 m 47.87,29.2 C 72.37,14.72 59.13,6.05 53.29,-1.28 M 85.46,27.18 C 78.44,21.21 71.01,15.2 52.6,-0.96"
       stroke="#fab005"
       stroke-width="1"
       fill="none"
       id="path746" />
    <path
       d="m 49.71,1.23 c 7.28,1.1 16.08,6.15 21.53,11.19 5.44,5.04 9.72,11.91 11.12,19.02 1.4,7.11 -0.27,16.55 -2.74,23.63 -2.47,7.08 -6.24,14.08 -12.07,18.86 -5.83,4.78 -15.31,9.1 -22.91,9.82 C 37.04,84.48 28.56,82.07 21.97,78.28 15.37,74.48 8.78,67.43 5.09,60.99 1.4,54.54 -0.76,46.87 -0.2,39.6 0.37,32.33 4.18,23.36 8.5,17.37 c 4.31,-5.99 10.16,-11 17.19,-13.69 7.04,-2.69 20.41,-2.2 25,-2.44 4.59,-0.25 2.47,0.43 2.55,0.98 m -23.33,0.9 c 6.5,-2.61 14.68,-2.47 21.87,-0.97 7.19,1.49 15.98,4.28 21.28,9.93 5.29,5.65 9.27,16.35 10.5,23.96 1.22,7.6 0.02,14.9 -3.13,21.65 -3.15,6.76 -9.39,14.59 -15.78,18.85 -6.39,4.27 -15.2,6.71 -22.56,6.76 C 34.73,83.35 26.58,80.88 20.49,76.82 14.4,72.77 8.95,65.59 5.57,58.94 2.18,52.3 -0.58,44.11 0.17,36.93 0.93,29.74 5.12,21.61 10.11,15.85 15.11,10.08 26.96,4.32 30.14,2.33 33.32,0.35 29.17,3.09 29.18,3.91"
       stroke="#000000"
       stroke-width="2"
       fill="none"
       id="path748" />
  </g>
  <g
     stroke-linecap="round"
     transform="translate(413,276)"
     id="g756">
    <path
       d="m 8.8,16.92 c 0,0 0,0 0,0 m 0,0 c 0,0 0,0 0,0 M -0.7,38.61 C 8.02,29.59 21.32,15.06 29.45,7.29 M -0.58,40.11 C 8.38,31.13 16.34,20.8 28.27,5.22 M 1.04,48.33 C 11.91,37.44 24.68,26.49 41.61,6.52 M 2.17,49.56 C 11.63,36.97 21.95,26.07 40.5,5.62 M 3.05,58.92 C 18.24,42.33 30.85,28.13 50.73,5.75 M 4.09,58.21 C 17.37,44.27 31.33,27.63 52.61,4.51 M 8.85,66.95 C 26.33,48.71 41.89,29.72 59.02,5.88 M 9.72,64.99 C 20.37,50.24 32.38,36.27 59.12,7.43 M 16.21,72.18 C 27.73,57.36 40.44,42.61 67.73,10.04 M 14.57,71.16 C 32.51,51.59 50.58,30.39 65.77,10.87 M 18.99,76.09 C 37.12,58.31 57.03,38.44 72.72,15.75 M 20.86,75.92 C 38.91,54.79 58.17,32.61 72.98,15.46 M 24.66,83.32 C 39.79,67.28 54.32,51.29 76.54,20.81 M 27.01,82.88 C 41.62,64.37 59.77,43.82 77.8,22.98 M 33.53,83.2 C 51.36,65.2 66.28,44.93 82.22,29.85 M 34.75,84.71 C 45.03,71.62 54.19,60.77 81.8,29.92 M 45.65,82.74 C 61.84,66.09 74.9,48.15 88.92,34.52 M 46.03,83.14 C 60.98,66.69 73.36,50.08 86.49,36.78 M 63.35,76.42 C 72.69,64.6 81.01,55.69 86.58,48.93 M 63.43,77.84 C 71.69,66.82 79.65,57.76 86,50.48 M 22.63,79.14 c 0,0 0,0 0,0 m 0,0 c 0,0 0,0 0,0 m 13.16,0.65 C 30.11,73.37 17.66,65.72 9.62,57.14 M 37.46,81.09 C 26.74,73.52 19.28,65.79 9.82,56.62 M 48.81,80.33 C 29.77,65.85 16.78,48.94 0.33,39.18 M 48.25,78.74 C 37.12,70.24 27.05,61.59 0.37,38.67 M 56.46,77.04 C 40.89,60.44 21.24,45.57 4.27,32.75 M 55.84,77.32 C 37.35,60.29 15.85,42.52 3.7,30.3 M 66.26,75.23 C 43.89,57.64 26.08,39.73 6.61,22.59 m 58.34,51 C 46.26,56.54 26.25,40.76 7.35,23.18 m 62.78,44.2 C 55.86,54.28 38.98,39.79 11.95,14.71 m 58.8,53.61 C 53.28,51.79 35.29,35.32 9.69,14.63 M 78.06,61.79 C 61,50.06 46.75,36.09 17.33,10.51 M 76.41,61.96 C 63.66,51.54 49.45,38.61 16.93,10.84 m 64.54,46.3 C 70.51,46.85 57.25,36.43 24.79,3.54 M 80.42,56.35 C 65.45,43.35 48.71,29.17 23.61,4.66 M 80.09,45.23 C 62.45,27.49 41.36,12.78 28.11,-0.07 M 81.36,46.45 C 69.5,35.01 56.53,22.37 29.24,1.11 M 83.85,34.74 C 68.81,21.53 51.97,9.19 40.37,-2.24 M 81.82,35.21 C 66.2,21.46 51.09,8 39.85,-0.17 M 84.74,27.36 C 74.07,18.56 60.69,7.01 50.57,-0.24 M 86.11,28.71 C 79.15,23.35 72.75,16.07 52.49,-1.18"
       stroke="#fab005"
       stroke-width="1"
       fill="none"
       id="path752" />
    <path
       d="m 49.9,1.66 c 6.93,1.05 14.36,5.43 19.83,10.59 5.46,5.16 11.02,13.03 12.95,20.35 1.92,7.32 1.17,16.65 -1.4,23.56 -2.57,6.91 -8.05,13.53 -14.02,17.9 -5.97,4.37 -14.34,7.5 -21.8,8.33 C 38,83.22 29.3,82.52 22.5,79.03 15.7,75.55 8.48,68.1 4.66,61.46 0.84,54.82 -1.09,46.58 -0.41,39.17 0.27,31.76 4.2,22.9 8.75,16.98 13.3,11.06 19.47,6.29 26.89,3.66 34.31,1.03 48.78,1.39 53.26,1.21 c 4.48,-0.18 0.87,0.55 0.51,1.38 m -9.49,-3.92 c 7.58,0.22 17.62,6.1 23.87,11.1 6.26,5 11.21,11.91 13.66,18.91 2.45,7.01 2.88,16.02 1.05,23.13 -1.83,7.1 -6.34,14.2 -12.02,19.5 C 65.15,76.61 56.17,82.24 48.76,83.6 41.34,84.96 33.24,82.36 26.33,79.46 19.42,76.57 11.61,72.19 7.31,66.24 3.01,60.28 1,51.29 0.53,43.73 0.06,36.16 0.75,27.39 4.47,20.85 8.19,14.31 16,7.91 22.85,4.49 29.71,1.07 41.89,0.97 45.58,0.32 49.27,-0.33 45.27,-0.16 45.01,0.57"
       stroke="#000000"
       stroke-width="2"
       fill="none"
       id="path754" />
  </g>
  <g
     stroke-linecap="round"
     transform="translate(131,151)"
     id="g762">
    <path
       d="m 11.25,12.43 c 0,0 0,0 0,0 m 0,0 c 0,0 0,0 0,0 M 1.96,33.83 C 10.14,26.22 17.76,17.12 33.68,2.17 M 3.4,34.85 C 15.38,20.17 26.13,6.65 31.6,0.79 M 5.41,46.78 C 12.06,35.54 21.16,26.65 36.81,5.67 M 3.8,45.82 C 11.72,37.07 20.08,28.92 38.33,5.72 M 3.49,57.89 C 14.5,46.18 20.98,33.9 47.38,4.48 M 4.16,57.89 C 15.31,43.45 27.72,29.34 47.79,6.32 M 9.49,64.12 C 20.74,49.32 32.84,35.15 58.45,6.13 M 9.53,64.55 C 19.88,50.38 30.84,38.6 60.68,4.69 M 14.78,68.68 C 26.27,56.55 34.74,43.81 65.31,8.99 M 14.75,69.47 C 27.25,55.95 38.64,42.97 67.25,9.06 M 18.45,74.54 C 33.56,61.63 45.36,46.22 73.19,14.54 M 19.28,75.86 C 33.08,60.19 46.86,44.32 72.13,16.02 M 27.38,79.37 C 45.13,56.18 68.25,32.31 78.83,21.85 M 28.22,79.39 C 45.66,56.84 66.29,33.94 78.91,20.96 M 32.94,81.66 C 47.36,68.85 55.15,58.19 81.04,26.93 M 34.16,82.26 C 51.43,65.26 65.98,46.21 81.75,29.33 M 42.17,86.31 C 53.37,76.09 66.07,61.35 82.59,37.85 M 41.36,86.72 C 53.6,74.28 66.12,58.39 84.39,37.71 M 57,82.73 c 3.57,-6.48 8.35,-13.54 21.3,-28.6 M 56.07,83.07 C 62.4,75.12 69.56,66.9 79.27,55.13 M 16.72,73.75 c 0,0 0,0 0,0 m 0,0 c 0,0 0,0 0,0 m 23.5,9.96 C 26.14,74.48 16.65,63.11 3.87,52.79 m 34,28.52 C 26.94,71.57 14.08,61.83 5.44,53.86 M 47.69,79.09 C 32.04,64.78 12.38,51.25 3.56,40.82 M 47.69,79.13 C 32.16,68.02 18.04,53.53 4.59,42.32 m 50.9,36.53 C 44.49,66.21 34.3,57.48 3.06,31.49 M 57.14,77.48 C 40.32,61.12 21.49,45.85 3.82,29.98 M 63.3,75.21 C 50.72,61.04 41.16,50.87 7.52,24.51 M 65.61,72.4 C 42.2,53.38 20.5,35.3 7.07,24.16 M 70.31,66.88 C 54.1,55.25 40.47,40.32 10.62,15.25 M 71.44,67.59 C 54.96,53.85 37.59,38.18 9.83,14.49 M 77.85,62.38 C 59.15,47.1 38.21,30.39 14.6,9.23 M 75.64,61.7 C 63.86,51.65 51.11,40.5 14.28,9.26 M 83.24,54.8 C 66.21,40.69 47.14,24.82 19.84,5.55 M 80.82,55.03 C 57.46,35.62 33.83,14.01 21.83,4.92 M 82.66,45.89 C 66.09,28.63 47.7,12.74 30.68,-0.32 m 52.4,47.85 C 65.78,31.72 47.88,16.74 30.11,0.67 M 86.09,36.65 C 67.43,20.77 51.41,6.21 37.12,-2.58 M 84.01,37.33 C 67.8,22.92 51.78,8.77 37.67,-3.53 m 38.15,23.7 C 69.91,12.72 61.1,6.08 50.67,-5.13 M 78.33,21.59 C 67.01,11.53 57.91,3.82 48.92,-3.14"
       stroke="#40c057"
       stroke-width="1"
       fill="none"
       id="path758" />
    <path
       d="m 32.25,0.49 c 6.88,-2.12 17.06,-1.13 24.11,1.66 7.05,2.79 13.72,9.08 18.18,15.08 4.45,6 8.07,13.65 8.54,20.93 0.48,7.29 -2.12,16.24 -5.69,22.78 C 73.83,67.48 68.35,73.63 61.7,77.42 55.04,81.22 44.97,84.3 37.47,83.69 29.98,83.08 22.53,78.35 16.71,73.74 10.89,69.14 5,62.89 2.54,56.08 0.09,49.27 0.49,40.2 1.97,32.89 3.45,25.58 5.57,17.52 11.42,12.24 17.28,6.95 32.16,3.08 37.1,1.17 42.05,-0.74 41.15,0.28 41.09,0.8 m -8.25,-1.64 c 7.14,-1.74 18.51,0.52 25.61,3.71 7.1,3.18 13.12,9.04 16.98,15.4 3.86,6.37 5.96,15.4 6.18,22.79 0.22,7.39 -1.32,15.12 -4.85,21.56 C 73.22,69.06 66.97,76.29 60.4,79.71 53.84,83.12 44.75,84.29 37.37,83.13 29.98,81.96 21.75,77.71 16.09,72.72 10.43,67.74 5.67,60.06 3.41,53.22 1.15,46.38 0.64,38.71 2.52,31.67 4.39,24.64 9.54,16.11 14.66,10.98 19.77,5.86 30,2.63 33.2,0.91 36.39,-0.81 33.26,0.15 33.81,0.66"
       stroke="#000000"
       stroke-width="2"
       fill="none"
       id="path760" />
  </g>
  <g
     stroke-linecap="round"
     transform="translate(545,160)"
     id="g768">
    <path
       d="m 3.87,24.56 c 0,0 0,0 0,0 m 0,0 c 0,0 0,0 0,0 M 1.11,37.11 C 8.94,34.27 11.25,26.39 26.72,11.86 M 2.62,39.53 C 9.79,31.57 15.61,21.9 24.65,12.21 M 1.85,49.25 C 12.96,40.28 24.05,28.88 46.56,0.94 M 3.07,49.96 C 13.09,37.28 24.84,23.91 45.66,1.78 M 6.07,58.24 C 15.8,45.36 27.89,34.15 54.57,4.36 M 5.36,58.28 C 17.64,46.26 27.24,33.73 53.34,4.91 M 12.17,67.49 C 25.66,51.58 38.45,33.35 58.97,6.71 M 10.21,65.27 C 29,42.35 48.66,20.59 60.53,7.18 M 16.12,73.08 C 28.15,58.5 40.22,44.19 67.4,11.5 M 15.1,72.91 C 29.56,57.53 42.38,39.64 68.23,11.02 M 21.48,75.91 C 34.21,66.71 44.84,51.53 74.1,18.66 M 21.31,76.39 C 36.57,59.77 50.83,42.28 73.8,17.18 M 30.06,81.57 C 49.04,60.53 68.11,35.09 77.02,23.9 M 29.62,80.02 C 45.1,63.94 58.54,45.58 79.19,23.99 M 35.15,84.7 C 46.07,72.01 54.74,61.61 84.68,27.64 M 36.66,85.45 C 49.74,67.89 65.12,50 84.76,30.25 M 46.11,85.59 C 59.51,69.14 71.64,57.64 84.71,40.13 M 46.51,86.25 C 61.5,67.16 76.38,48.83 86.96,40.31 M 56.5,86.15 C 65.18,73.76 76.8,63.1 85.69,52.52 M 57.92,85.8 C 63.22,77.41 70.53,69.52 87.25,51 M 10.48,68.73 c 0,0 0,0 0,0 m 0,0 c 0,0 0,0 0,0 M 31.9,79.61 C 25.57,69.08 17.85,64.83 2.58,51.42 M 33.19,76.93 C 21.64,68.42 9.95,58.06 2.06,51.36 M 47.43,77.4 C 38.66,73.85 27.64,64.91 6.11,41.08 M 45.84,78.74 C 32.29,67.03 18.56,55.79 5.6,43.18 M 57.43,79.36 C 39.99,63.97 25.13,51.8 8.5,35.04 M 57.72,78.35 C 39.99,60.92 21.73,46.51 6.06,33.92 M 65.79,71.86 C 43.02,55.09 20.3,35.31 5.56,22.83 m 58.6,50.81 C 41.98,54.61 21.84,37.27 6.15,22.07 M 69.43,69.3 C 56,55.48 40.7,41.99 10.27,16.31 m 60.1,52 C 53.17,53.66 35.83,37.36 10.2,15.64 M 76.64,62.23 C 57.07,44.19 34.25,26.82 16.81,9.33 M 76.8,63.99 C 55.33,43 31.09,23.08 17.14,9.88 M 82.42,57.36 C 60.34,37.24 38.64,20.29 20.46,4.21 M 81.63,56.15 C 60.61,36.19 38.88,19.16 21.58,5.59 M 82.71,47.54 C 66.02,31.19 51.78,16.14 29.85,0.41 M 83.93,48.05 C 67,32.37 47.95,15.5 31.03,1.83 M 79.9,35.25 C 67.93,22.78 56.27,14.24 37.39,-0.57 M 80.37,34.11 C 65.79,21.73 51.46,8.52 39.47,-1.35 m 39.61,25.1 C 67.97,11.28 54.29,-1.23 47.04,-7.96 M 80.42,23.08 C 71.73,15.43 61.16,7.07 46.09,-5.64"
       stroke="#4c6ef5"
       stroke-width="1"
       fill="none"
       id="path764" />
    <path
       d="m 41.96,-0.88 c 7.27,-0.51 15.8,3.72 22.03,7.99 6.24,4.28 12.18,10.88 15.37,17.65 3.18,6.76 4.85,15.57 3.73,22.96 -1.13,7.39 -5.47,15.7 -10.48,21.39 -5.01,5.68 -12.67,10.77 -19.59,12.72 -6.93,1.95 -14.81,1.24 -21.95,-1 C 23.92,78.6 15.18,73.83 10.13,68.42 5.08,63.02 1.84,55.66 0.77,48.38 -0.3,41.1 0.55,31.52 3.7,24.75 6.86,17.97 12.78,11.91 19.72,7.74 26.67,3.56 40.42,0.71 45.39,-0.31 50.35,-1.33 49.42,0.8 49.51,1.6 M 20.65,6.07 c 6.19,-3.49 17.62,-5.3 25.5,-4.71 7.88,0.58 15.89,3.78 21.78,8.22 5.88,4.44 11.18,11.69 13.52,18.42 2.33,6.73 2.09,14.76 0.49,21.96 -1.6,7.2 -4.61,15.96 -10.1,21.23 C 66.36,76.46 56.55,80.01 49.05,81.58 41.55,83.16 33.7,83.41 26.83,80.64 19.96,77.87 12.33,71 7.83,64.98 3.34,58.97 0.32,51.78 -0.14,44.55 -0.6,37.32 1.34,28.21 5.08,21.58 8.82,14.95 19.46,7.57 22.3,4.78 25.14,1.98 21.74,4.44 22.11,4.82"
       stroke="#000000"
       stroke-width="2"
       fill="none"
       id="path766" />
  </g>
  <g
     stroke-linecap="round"
     id="g782">
    <g
       transform="translate(251,117)"
       id="g772">
      <path
         d="M -0.39,-0.38 C 21.62,-9.44 86.54,-57.26 131.06,-55.13 175.58,-53 244.19,1.19 266.7,12.4 M 1.6,-1.62 c 22.04,-8.85 85.04,-54.81 129.07,-52.31 44.03,2.51 112.57,56.21 135.11,67.33"
         stroke="#000000"
         stroke-width="2"
         fill="none"
         id="path770" />
    </g>
    <g
       transform="translate(251,117)"
       id="g776">
      <path
         d="m 235.77,9.11 c 5.91,-0.85 12.32,-0.5 28.56,3.08 m -28.13,-4 c 5.75,0.32 12.4,1.48 29.42,4.97"
         stroke="#000000"
         stroke-width="2"
         fill="none"
         id="path774" />
    </g>
    <g
       transform="translate(251,117)"
       id="g780">
      <path
         d="m 246.53,-8.36 c 3.46,2.9 7.55,7.04 17.8,20.55 M 246.96,-9.29 c 3.45,4.09 7.81,8.97 18.66,22.45"
         stroke="#000000"
         stroke-width="2"
         fill="none"
         id="path778" />
    </g>
  </g>
  <g
     transform="translate(346,10)"
     id="g786">
    <text
       x="0"
       y="18"
       font-family="Virgil, 'Segoe UI Emoji'"
       font-size="20px"
       fill="#000000"
       text-anchor="start"
       style="white-space:pre"
       direction="ltr"
       id="text784">Rebase</text>
  </g>
  <g
     stroke-linecap="round"
     id="g792">
    <g
       transform="translate(49,349)"
       id="g790">
      <path
         d="M -1.13,-0.88 C -1.34,5.61 -1.71,31.89 -1.71,38.44 M 0.47,1.27 C 0.7,7.96 1.03,33.32 0.63,39.68"
         stroke="#000000"
         stroke-width="2"
         fill="none"
         id="path788" />
    </g>
  </g>
  <g
     stroke-linecap="round"
     id="g798">
    <g
       transform="translate(452,359)"
       id="g796">
      <path
         d="M 0.5,-0.02 C 0.14,6.6 -1.71,32.56 -1.8,38.88 m 1.1,-39.95 c 0,6.89 1.13,34.8 1.19,41.43"
         stroke="#000000"
         stroke-width="2"
         fill="none"
         id="path794" />
    </g>
  </g>
  <g
     stroke-linecap="round"
     id="g804">
    <g
       transform="translate(50,470)"
       id="g802">
      <path
         d="M 0.41,-0.18 C 0.35,4.56 -0.32,23.46 -0.15,27.83 M -0.83,-1.31 c 0.27,4.46 2.49,22.76 2.79,27.45"
         stroke="#000000"
         stroke-width="2"
         fill="none"
         id="path800" />
    </g>
  </g>
  <g
     stroke-linecap="round"
     id="g810">
    <g
       transform="translate(453,480)"
       id="g808">
      <path
         d="m -0.02,-0.8 c 0.29,4.57 0.91,24.04 0.9,28.74 M -1.49,1.39 c 0.2,4.21 0.73,20.94 1.36,24.92"
         stroke="#000000"
         stroke-width="2"
         fill="none"
         id="path806" />
    </g>
  </g>
  <g
     stroke-linecap="round"
     id="g816">
    <g
       transform="translate(171,233)"
       id="g814">
      <path
         d="M -1.09,0.32 C -1,5.81 -0.53,27.85 -0.32,33.43 M 0.54,-0.56 c -0.03,5.61 -1.8,29.3 -1.98,35.23"
         stroke="#000000"
         stroke-width="2"
         fill="none"
         id="path812" />
    </g>
  </g>
  <g
     stroke-linecap="round"
     id="g822">
    <g
       transform="translate(585,242)"
       id="g820">
      <path
         d="m -0.8,-0.12 c 0.07,5.49 1.54,27.23 1.74,33.06 M 0.98,-1.23 C 0.93,4.38 0.67,28.22 0.48,33.92"
         stroke="#000000"
         stroke-width="2"
         fill="none"
         id="path818" />
    </g>
  </g>
  <g
     stroke-linecap="round"
     id="g828">
    <g
       transform="translate(172,353)"
       id="g826">
      <path
         d="M 0.19,-1.13 C 0.31,3.5 0.48,23.19 0.53,28 M -1.17,0.89 c 0.02,4.82 0.84,23.98 1.03,28.65"
         stroke="#000000"
         stroke-width="2"
         fill="none"
         id="path824" />
    </g>
  </g>
  <g
     stroke-linecap="round"
     id="g834">
    <g
       transform="translate(586,362)"
       id="g832">
      <path
         d="M -0.12,0.94 C -0.29,5.8 -1.22,23.83 -1.06,28.39 M -1.64,0.38 c 0.19,4.57 2.37,21.2 2.73,26.09"
         stroke="#000000"
         stroke-width="2"
         fill="none"
         id="path830" />
    </g>
  </g>
  <g
     stroke-linecap="round"
     id="g840">
    <g
       transform="translate(85,513)"
       id="g838">
      <path
         d="M -1.19,0.26 C 8.49,-9.86 48.72,-50.97 59.04,-60.93 M 0.38,-0.65 c 9.97,-9.98 50.88,-49.08 60.87,-59.24"
         stroke="#000000"
         stroke-width="2"
         fill="none"
         id="path836" />
    </g>
  </g>
  <g
     stroke-linecap="round"
     transform="translate(109,118)"
     id="g844">
    <path
       d="M -0.97,1.29 C 41.35,-0.8 84.97,1.25 134.63,1.96 M 133.4,0.37 c 0.9,103.16 0.13,204.64 0.56,371.64 m -1.48,-1.86 C 94,373.67 55.6,372.23 -1.68,371.09 m 1.9,1.96 C -2.04,289.18 -1.93,207.24 -0.33,-1.03"
       stroke="#000000"
       stroke-width="2.5"
       fill="none"
       stroke-dasharray="8, 10"
       id="path842" />
  </g>
  <g
     stroke-linecap="round"
     transform="translate(524,122)"
     id="g848">
    <path
       d="M -1.06,1.13 C 46.17,2.53 92.51,0.5 133.15,0.54 m 1.29,-0.65 c -1,90.89 0.68,183.13 -1.08,373.02 m 2.09,-1.32 c -41.12,0.08 -82.95,2.05 -135.27,-1 m -1.37,1.03 C 0.55,297.31 0.64,221.4 -0.64,-0.28"
       stroke="#000000"
       stroke-width="2.5"
       fill="none"
       stroke-dasharray="8, 10"
       id="path846" />
  </g>
  <g
     stroke-linecap="round"
     id="g854">
    <g
       transform="translate(561,467)"
       id="g852">
      <path
         d="M 1.09,0.07 C -10.72,9.53 -59.12,48.04 -70.8,57.7"
         stroke="#c92a2a"
         stroke-width="4.5"
         fill="none"
         stroke-dasharray="8, 12"
         id="path850" />
    </g>
  </g>
  <g
     stroke-linecap="round"
     id="g868">
    <g
       transform="translate(629,581)"
       id="g858">
      <path
         d="M 0.92,0.95 C -13.54,-11.57 -72.87,-62.62 -87.72,-75.06"
         stroke="#c92a2a"
         stroke-width="4.5"
         fill="none"
         stroke-dasharray="8, 12"
         id="path856" />
    </g>
    <g
       transform="translate(629,581)"
       id="g862">
      <path
         d="m -58.03,-64.15 c -9.49,-2.85 -13.36,-6.63 -29.82,-9.3"
         stroke="#c92a2a"
         stroke-width="4.5"
         fill="none"
         id="path860" />
    </g>
    <g
       transform="translate(629,581)"
       id="g866">
      <path
         d="m -71.33,-48.52 c -6.59,-6.37 -7.54,-13.56 -16.52,-24.93"
         stroke="#c92a2a"
         stroke-width="4.5"
         fill="none"
         id="path864" />
    </g>
  </g>
  <g
     transform="matrix(1.3262744,0,0,1.3262744,465.84683,617.25522)"
     id="g872">
    <g
       aria-label="git: Ты чего наделалъ"
       id="text870"
       style="font-size:21.3333px;font-family:Virgil, 'Segoe UI Emoji';white-space:pre">
      <path
         d="m 18.960755,14.118571 v 9.718735 q 0,2.385413 -1.312498,3.677078 -1.312498,1.302081 -3.739577,1.302081 -1.093749,0 -2.093747,-0.197916 -0.999998,-0.197917 -1.9166637,-0.59375 v -2.322913 h 0.9999987 q 0.187499,1.083332 0.885415,1.583331 0.697916,0.5 1.999997,0.5 1.687497,0 2.468746,-0.958332 0.791665,-0.947915 0.791665,-2.989579 v -1.489581 q -0.562499,1.041665 -1.437497,1.541664 -0.864582,0.489583 -2.14583,0.489583 -2.041664,0 -3.343745,-1.614581 -1.2916647,-1.624997 -1.2916647,-4.22916 0,-2.604162 1.2916647,-4.218743 1.291665,-1.614581 3.343745,-1.614581 1.281248,0 2.14583,0.499999 0.874998,0.489583 1.437497,1.531248 V 13.00399 h 3.749994 v 1.114581 z m -1.916664,3.874994 q 0,-1.98958 -0.770832,-3.041662 -0.760415,-1.052081 -2.218746,-1.052081 -1.479165,0 -2.23958,1.166665 -0.749999,1.166664 -0.749999,3.468744 0,2.291663 0.749999,3.468745 0.760415,1.177081 2.23958,1.177081 1.458331,0 2.218746,-1.041665 0.770832,-1.052082 0.770832,-3.052078 z"
         style="font-family:'Bitstream Vera Serif';-inkscape-font-specification:'Bitstream Vera Serif'"
         id="path1192" />
      <path
         d="m 23.491997,9.5664953 q 0,-0.4791659 0.34375,-0.833332 0.354166,-0.3541661 0.843749,-0.3541661 0.479165,0 0.822915,0.3541661 0.354166,0.3541661 0.354166,0.833332 0,0.4895827 -0.343749,0.8333317 -0.34375,0.34375 -0.833332,0.34375 -0.489583,0 -0.843749,-0.34375 -0.34375,-0.343749 -0.34375,-0.8333317 z M 25.93991,22.972724 h 1.812497 v 1.104165 h -5.562491 v -1.104165 h 1.833331 V 14.118571 H 22.189916 V 13.00399 h 3.749994 z"
         style="font-family:'Bitstream Vera Serif';-inkscape-font-specification:'Bitstream Vera Serif'"
         id="path1194" />
      <path
         d="M 30.544069,14.118571 H 28.856572 V 13.00399 h 1.687497 V 9.5664953 H 32.47115 V 13.00399 h 3.604161 v 1.114581 H 32.47115 v 7.031239 q 0,1.406248 0.270833,1.802081 0.270832,0.395833 0.999998,0.395833 0.749999,0 1.093748,-0.4375 0.34375,-0.447916 0.364583,-1.437498 h 1.447914 q -0.08333,1.510415 -0.822915,2.20833 -0.739582,0.697916 -2.249996,0.697916 -1.656248,0 -2.343747,-0.729166 -0.687499,-0.739582 -0.687499,-2.499996 z"
         style="font-family:'Bitstream Vera Serif';-inkscape-font-specification:'Bitstream Vera Serif'"
         id="path1196" />
      <path
         d="m 39.033639,22.993557 q 0,-0.583332 0.395832,-0.989581 0.40625,-0.40625 0.989582,-0.40625 0.583333,0 0.979165,0.40625 0.40625,0.406249 0.40625,0.989581 0,0.583333 -0.395833,0.989582 -0.395833,0.395833 -0.989582,0.395833 -0.593749,0 -0.989582,-0.395833 -0.395832,-0.406249 -0.395832,-0.989582 z m 0,-6.791656 q 0,-0.583332 0.395832,-0.979165 0.40625,-0.406249 0.989582,-0.406249 0.593749,0 0.989582,0.395833 0.395833,0.395832 0.395833,0.989581 0,0.59375 -0.395833,0.989582 -0.395833,0.395833 -0.989582,0.395833 -0.583332,0 -0.989582,-0.395833 -0.395832,-0.406249 -0.395832,-0.989582 z"
         style="font-family:'Bitstream Vera Serif';-inkscape-font-specification:'Bitstream Vera Serif'"
         id="path1198" />
      <path
         d="m 54.85653,24.076889 v -1.104165 h 1.98958 V 9.7644116 H 52.2732 V 12.191491 H 50.991952 V 8.5248303 H 64.804431 V 12.191491 H 63.523183 V 9.7644116 h -4.57291 V 22.972724 h 1.98958 v 1.104165 z"
         style="font-family:'Bitstream Vera Serif';-inkscape-font-specification:'Bitstream Vera Serif'"
         id="path1200" />
      <path
         d="m 69.387758,22.972724 h 2.364579 q 1.052082,0 1.666664,-0.583332 0.614583,-0.583333 0.614583,-1.541665 0,-0.958331 -0.624999,-1.531247 -0.614583,-0.583333 -1.656248,-0.583333 h -2.364579 z m 6.34374,-2.104163 q 0,3.208328 -3.989578,3.208328 h -6.104157 v -1.104165 h 1.833331 V 14.108155 H 65.637763 V 13.00399 h 5.479158 v 1.104165 h -1.729163 v 3.479161 h 2.031246 q 4.312494,0 4.312494,3.281245 z m 3.770827,-6.739573 v 8.843736 h 1.729164 v 1.104165 h -5.374992 v -1.104165 h 1.729164 V 14.108155 H 75.856497 V 13.00399 h 5.374992 v 1.124998 z"
         style="font-family:'Bitstream Vera Serif';-inkscape-font-specification:'Bitstream Vera Serif'"
         id="path1202" />
      <path
         d="m 101.74187,13.00399 v 1.104165 h -1.72916 v 8.864569 h 1.72916 v 1.104165 h -5.374992 v -1.104165 h 1.729164 v -3.260411 h -4.312493 q -0.979165,0 -1.77083,-0.729166 Q 91.23147,18.243565 91.23147,17.441483 V 14.108155 H 89.502306 V 13.00399 h 5.312492 v 1.104165 h -1.666664 v 2.281246 q 0,1.197915 0.354166,1.614581 0.364582,0.416666 0.989581,0.416666 h 3.604161 V 14.108155 H 96.429378 V 13.00399 Z"
         style="font-family:'Bitstream Vera Serif';-inkscape-font-specification:'Bitstream Vera Serif'"
         id="path1204" />
      <path
         d="m 114.43977,18.743564 h -8.2604 v 0.08333 q 0,2.23958 0.84375,3.385412 0.84374,1.135415 2.48958,1.135415 1.26041,0 2.06249,-0.656249 0.8125,-0.666666 1.13542,-1.968747 h 1.54166 q -0.45833,1.822913 -1.69791,2.739579 -1.22917,0.916665 -3.23958,0.916665 -2.42708,0 -3.90624,-1.593748 -1.46875,-1.604164 -1.46875,-4.249993 0,-2.624996 1.44791,-4.22916 1.44792,-1.604164 3.80208,-1.604164 2.51041,0 3.85416,1.552081 1.34375,1.541664 1.39583,4.489576 z m -2.26041,-1.104165 q -0.0625,-1.937497 -0.82292,-2.916662 -0.75,-0.989582 -2.16666,-0.989582 -1.32292,0 -2.08333,0.989582 -0.76042,0.989582 -0.92708,2.916662 z"
         style="font-family:'Bitstream Vera Serif';-inkscape-font-specification:'Bitstream Vera Serif'"
         id="path1206" />
      <path
         d="m 125.75225,13.00399 v 3.010412 h -1.10416 v -1.729164 h -4.77083 v 8.687486 h 1.48958 v 1.104165 h -5.13541 v -1.104165 h 1.72917 v -8.864569 h -1.84375 V 13.00399 Z"
         style="font-family:'Bitstream Vera Serif';-inkscape-font-specification:'Bitstream Vera Serif'"
         id="path1208" />
      <path
         d="m 133.09599,23.347724 q 1.54167,0 2.32292,-1.218749 0.79166,-1.218748 0.79166,-3.593744 0,-2.374996 -0.79166,-3.583328 -0.78125,-1.218748 -2.32292,-1.218748 -1.54166,0 -2.33333,1.218748 -0.78124,1.208332 -0.78124,3.583328 0,2.374996 0.79166,3.593744 0.79167,1.218749 2.32291,1.218749 z m 0,1.031248 q -2.41666,0 -3.88541,-1.593748 -1.46874,-1.604164 -1.46874,-4.249993 0,-2.645829 1.45833,-4.239577 1.46874,-1.593747 3.89582,-1.593747 2.42708,0 3.88541,1.593747 1.46875,1.593748 1.46875,4.239577 0,2.645829 -1.46875,4.249993 -1.45833,1.593748 -3.88541,1.593748 z"
         style="font-family:'Bitstream Vera Serif';-inkscape-font-specification:'Bitstream Vera Serif'"
         id="path1210" />
      <path
         d="m 157.66886,14.108155 v 8.864569 h 1.72917 v 1.104165 h -5.37499 v -1.104165 h 1.72916 v -4.270826 h -5.07291 v 4.270826 h 1.72917 v 1.104165 h -5.375 v -1.104165 h 1.72917 v -8.864569 h -1.72917 V 13.00399 h 5.375 v 1.104165 h -1.72917 v 3.302078 h 5.07291 v -3.302078 h -1.72916 V 13.00399 h 5.37499 v 1.104165 z"
         style="font-family:'Bitstream Vera Serif';-inkscape-font-specification:'Bitstream Vera Serif'"
         id="path1212" />
      <path
         d="m 169.0126,20.597728 v -2.343746 h -2.46874 q -1.42708,0 -2.125,0.614582 -0.69791,0.614582 -0.69791,1.885414 0,1.156248 0.70833,1.83333 0.70833,0.677082 1.91666,0.677082 1.19792,0 1.92708,-0.739582 0.73958,-0.739582 0.73958,-1.92708 z m 1.91667,-3.437495 v 5.812491 h 1.70833 v 1.104165 h -3.625 v -1.197915 q -0.63541,0.770832 -1.46874,1.135415 -0.83334,0.364583 -1.94792,0.364583 -1.84374,0 -2.92708,-0.979165 -1.08333,-0.979165 -1.08333,-2.645829 0,-1.718748 1.23958,-2.666663 1.23958,-0.947915 3.5,-0.947915 h 2.68749 v -0.760415 q 0,-1.260415 -0.77083,-1.947914 -0.76041,-0.697916 -2.14583,-0.697916 -1.14583,0 -1.82291,0.520833 -0.67708,0.520832 -0.84375,1.541664 h -0.98958 v -2.23958 q 1,-0.427082 1.93749,-0.635415 0.94792,-0.21875 1.84375,-0.21875 2.30208,0 3.5,1.145832 1.20833,1.135414 1.20833,3.312494 z"
         style="font-family:'Bitstream Vera Serif';-inkscape-font-specification:'Bitstream Vera Serif'"
         id="path1214" />
      <path
         d="m 177.87716,14.264405 v 1.812497 q 0,2.458329 -0.28125,4.01041 -0.28125,1.552081 -0.53125,2.562496 -0.0208,0.08333 0.0312,0.114583 0.0521,0.03125 0.3125,0.03125 h 4.45833 v -8.531236 z m -1.28125,-0.15625 h -1.72916 V 13.00399 h 10.6354 v 1.104165 h -1.71875 v 8.864569 h 1.71875 v 4.052077 h -1.08333 l -0.16667,-1.468748 q -0.16666,-1.479164 -1.20833,-1.479164 h -6.57291 q -1.04166,0 -1.20833,1.479164 l -0.16666,1.468748 h -1.08333 v -4.052077 h 0.58333 q 0.77083,0 1.26041,-1.249998 0.48958,-1.249998 0.61458,-2.562496 0.125,-1.322914 0.125,-3.093745 z"
         style="font-family:'Bitstream Vera Serif';-inkscape-font-specification:'Bitstream Vera Serif'"
         id="path1216" />
      <path
         d="m 197.93964,18.743564 h -8.2604 v 0.08333 q 0,2.23958 0.84375,3.385412 0.84375,1.135415 2.48958,1.135415 1.26041,0 2.06249,-0.656249 0.8125,-0.666666 1.13542,-1.968747 h 1.54166 q -0.45833,1.822913 -1.69791,2.739579 -1.22917,0.916665 -3.23958,0.916665 -2.42708,0 -3.90624,-1.593748 -1.46875,-1.604164 -1.46875,-4.249993 0,-2.624996 1.44791,-4.22916 1.44792,-1.604164 3.80208,-1.604164 2.51041,0 3.85416,1.552081 1.34375,1.541664 1.39583,4.489576 z m -2.26041,-1.104165 q -0.0625,-1.937497 -0.82292,-2.916662 -0.75,-0.989582 -2.16666,-0.989582 -1.32291,0 -2.08333,0.989582 -0.76042,0.989582 -0.92708,2.916662 z"
         style="font-family:'Bitstream Vera Serif';-inkscape-font-specification:'Bitstream Vera Serif'"
         id="path1218" />
      <path
         d="m 202.08546,22.503975 q 0.1875,-0.437499 0.36458,-1.447915 0.17708,-1.020831 0.32292,-2.104163 0.10416,-0.802082 0.10416,-2.885412 v -1.95833 h -1.72916 V 13.00399 h 10.6354 v 1.104165 h -1.71875 v 8.864569 h 1.71875 v 1.104165 h -5.36458 v -1.104165 h 1.72917 v -8.708319 h -3.98958 v 1.812497 q 0,1.656247 -0.10417,2.874995 -0.0729,0.864582 -0.28125,1.947914 -0.20833,1.072915 -0.42708,1.906247 -0.1875,0.749999 -0.83333,1.166665 -0.63542,0.406249 -1.5,0.406249 -0.17708,0 -0.52083,-0.04167 -0.34375,-0.03125 -1.05208,-0.260416 l -0.0625,-1.302081 q 0.79166,0.322916 1.44791,0.322916 0.42709,0 0.75,-0.104167 0.33333,-0.104166 0.51042,-0.489582 z"
         style="font-family:'Bitstream Vera Serif';-inkscape-font-specification:'Bitstream Vera Serif'"
         id="path1220" />
      <path
         d="m 221.04376,20.597728 v -2.343746 h -2.46874 q -1.42709,0 -2.125,0.614582 -0.69792,0.614582 -0.69792,1.885414 0,1.156248 0.70834,1.83333 0.70833,0.677082 1.91666,0.677082 1.19791,0 1.92708,-0.739582 0.73958,-0.739582 0.73958,-1.92708 z m 1.91667,-3.437495 v 5.812491 h 1.70833 v 1.104165 h -3.625 v -1.197915 q -0.63541,0.770832 -1.46875,1.135415 -0.83333,0.364583 -1.94791,0.364583 -1.84375,0 -2.92708,-0.979165 -1.08333,-0.979165 -1.08333,-2.645829 0,-1.718748 1.23958,-2.666663 1.23958,-0.947915 3.5,-0.947915 h 2.68749 v -0.760415 q 0,-1.260415 -0.77083,-1.947914 -0.76042,-0.697916 -2.14583,-0.697916 -1.14583,0 -1.82291,0.520833 -0.67709,0.520832 -0.84375,1.541664 h -0.98958 v -2.23958 q 0.99999,-0.427082 1.93749,-0.635415 0.94792,-0.21875 1.84375,-0.21875 2.30208,0 3.49999,1.145832 1.20834,1.135414 1.20834,3.312494 z"
         style="font-family:'Bitstream Vera Serif';-inkscape-font-specification:'Bitstream Vera Serif'"
         id="path1222" />
      <path
         d="m 228.35626,22.503975 q 0.18749,-0.437499 0.36458,-1.447915 0.17708,-1.020831 0.32291,-2.104163 0.10417,-0.802082 0.10417,-2.885412 v -1.95833 h -1.72916 V 13.00399 h 10.6354 v 1.104165 h -1.71875 v 8.864569 h 1.71875 v 1.104165 h -5.36458 v -1.104165 h 1.72917 v -8.708319 h -3.98958 v 1.812497 q 0,1.656247 -0.10417,2.874995 -0.0729,0.864582 -0.28125,1.947914 -0.20833,1.072915 -0.42708,1.906247 -0.1875,0.749999 -0.83333,1.166665 -0.63542,0.406249 -1.5,0.406249 -0.17708,0 -0.52083,-0.04167 -0.34375,-0.03125 -1.05208,-0.260416 l -0.0625,-1.302081 q 0.79166,0.322916 1.44791,0.322916 0.42708,0 0.75,-0.104167 0.33333,-0.104166 0.51042,-0.489582 z"
         style="font-family:'Bitstream Vera Serif';-inkscape-font-specification:'Bitstream Vera Serif'"
         id="path1224" />
      <path
         d="m 245.15831,22.972724 h 2.36458 q 1.05208,0 1.66667,-0.583332 0.61458,-0.583333 0.61458,-1.541665 0,-0.958331 -0.625,-1.531247 -0.61458,-0.583333 -1.65625,-0.583333 h -2.36458 z m -1.91666,-8.864569 h -2.54166 v 1.687497 h -1.25 V 13.00399 h 7.43749 v 1.104165 h -1.72917 v 3.479161 h 2.03125 q 4.31249,0 4.31249,3.281245 0,3.208328 -3.98957,3.208328 h -6.10416 v -1.104165 h 1.83333 z"
         style="font-family:'Bitstream Vera Serif';-inkscape-font-specification:'Bitstream Vera Serif'"
         id="path1226" />
    </g>
  </g>
  <g
     aria-label="Я: git rebase --onto develop"
     id="text4074"
     style="font-size:30px;line-height:25px;letter-spacing:0px;word-spacing:0px;stroke-width:1px">
    <path
       d="m 511.60444,615.4801 h -2.49 v -9.15 l -3.09,0.66 -5.22,8.49 h -2.94 l 4.68,-7.47 1.83,-1.29 q -1.08,-0.24 -2.01,-0.72 -0.9,-0.51 -1.59,-1.26 -0.66,-0.78 -1.05,-1.8 -0.36,-1.02 -0.36,-2.34 0,-1.83 0.6,-3.03 0.63,-1.23 1.68,-1.95 1.08,-0.75 2.49,-1.05 1.44,-0.33 3.03,-0.33 1.02,0 2.16,0.09 1.17,0.09 2.28,0.36 z m -4.56,-19.08 q -0.99,0 -1.89,0.21 -0.9,0.18 -1.62,0.66 -0.69,0.48 -1.11,1.29 -0.42,0.81 -0.42,2.04 0,1.14 0.39,1.95 0.42,0.81 1.11,1.35 0.69,0.51 1.59,0.75 0.93,0.24 1.98,0.24 h 2.04 v -8.31 q -0.42,-0.09 -0.87,-0.12 -0.45,-0.06 -1.2,-0.06 z"
       id="path5528" />
    <path
       d="m 516.88445,614.1001 q 0,-0.81 0.45,-1.26 0.48,-0.48 1.26,-0.48 0.81,0 1.29,0.48 0.48,0.45 0.48,1.26 0,0.78 -0.48,1.26 -0.48,0.48 -1.29,0.48 -0.78,0 -1.26,-0.48 -0.45,-0.48 -0.45,-1.26 z m 0,-12.09 q 0,-0.81 0.45,-1.26 0.48,-0.48 1.26,-0.48 0.81,0 1.29,0.48 0.48,0.45 0.48,1.26 0,0.78 -0.48,1.26 -0.48,0.48 -1.29,0.48 -0.78,0 -1.26,-0.48 -0.45,-0.48 -0.45,-1.26 z"
       id="path5530" />
    <path
       d="m 542.53445,616.1701 q 0,2.91 -1.56,4.29 -1.53,1.38 -4.56,1.38 -1.8,0 -2.91,-0.24 -1.08,-0.21 -1.86,-0.57 l 0.63,-2.04 q 0.69,0.27 1.53,0.51 0.84,0.24 2.19,0.24 1.26,0 2.04,-0.24 0.81,-0.21 1.29,-0.75 0.48,-0.51 0.66,-1.35 0.18,-0.81 0.18,-1.95 v -1.44 h -0.12 q -0.6,0.87 -1.53,1.35 -0.93,0.45 -2.43,0.45 -3.03,0 -4.47,-1.89 -1.41,-1.89 -1.41,-5.88 0,-3.84 1.83,-5.82 1.83,-2.01 5.4,-2.01 1.71,0 2.91,0.27 1.23,0.27 2.19,0.63 z m -6.03,-2.46 q 1.53,0 2.4,-0.75 0.87,-0.78 1.23,-2.4 v -7.68 q -1.2,-0.57 -3.06,-0.57 -2.04,0 -3.21,1.38 -1.17,1.38 -1.17,4.32 0,1.26 0.21,2.31 0.21,1.05 0.66,1.8 0.45,0.75 1.17,1.17 0.72,0.42 1.77,0.42 z"
       id="path5532" />
    <path
       d="m 547.66447,600.4801 h 2.4 v 15 h -2.4 z m -0.51,-4.56 q 0,-0.69 0.45,-1.17 0.48,-0.51 1.2,-0.51 0.72,0 1.23,0.51 0.51,0.48 0.51,1.17 0,0.69 -0.51,1.14 -0.51,0.45 -1.23,0.45 -0.72,0 -1.2,-0.45 -0.45,-0.45 -0.45,-1.14 z"
       id="path5534" />
    <path
       d="m 553.21446,600.4801 h 2.34 v -2.97 l 2.4,-0.69 v 3.66 h 4.08 v 2.1 h -4.08 v 8.31 q 0,1.56 0.39,2.22 0.39,0.63 1.32,0.63 0.78,0 1.32,-0.15 0.54,-0.18 1.2,-0.45 l 0.54,1.83 q -0.81,0.39 -1.77,0.63 -0.96,0.24 -2.07,0.24 -1.83,0 -2.58,-1.02 -0.75,-1.05 -0.75,-3.48 v -8.76 h -2.34 z"
       id="path5536" />
    <path
       d="m 580.45448,602.7901 q -0.9,-0.3 -1.71,-0.3 -1.29,0 -2.04,0.72 -0.75,0.69 -0.93,1.77 v 10.5 h -2.4 v -15 h 1.68 l 0.45,1.83 h 0.12 q 0.57,-1.02 1.35,-1.56 0.81,-0.57 2.04,-0.57 0.87,0 1.95,0.3 z"
       id="path5538" />
    <path
       d="m 594.5245,614.2801 q -0.9,0.72 -2.28,1.14 -1.35,0.42 -2.88,0.42 -1.71,0 -2.97,-0.54 -1.26,-0.57 -2.07,-1.59 -0.81,-1.05 -1.2,-2.49 -0.39,-1.44 -0.39,-3.24 0,-3.84 1.71,-5.85 1.71,-2.01 4.89,-2.01 1.02,0 2.04,0.24 1.02,0.21 1.83,0.84 0.81,0.63 1.32,1.8 0.51,1.14 0.51,3.03 0,0.99 -0.18,2.19 h -9.63 q 0,1.32 0.27,2.34 0.27,1.02 0.84,1.74 0.57,0.69 1.47,1.08 0.93,0.36 2.25,0.36 1.02,0 2.04,-0.36 1.02,-0.36 1.53,-0.84 z m -5.16,-12.06 q -1.77,0 -2.85,0.93 -1.05,0.93 -1.26,3.18 h 7.44 q 0,-2.28 -0.87,-3.18 -0.87,-0.93 -2.46,-0.93 z"
       id="path5540" />
    <path
       d="m 598.81447,594.4801 h 2.4 v 7.47 h 0.12 q 0.69,-0.87 1.74,-1.35 1.08,-0.48 2.34,-0.48 2.91,0 4.35,1.86 1.47,1.86 1.47,5.76 0,3.93 -1.92,5.97 -1.92,2.04 -5.4,2.04 -1.68,0 -3.06,-0.36 -1.35,-0.36 -2.04,-0.78 z m 6.18,7.74 q -1.5,0 -2.43,0.84 -0.93,0.84 -1.35,2.37 v 7.56 q 0.57,0.33 1.38,0.51 0.81,0.15 1.68,0.15 2.04,0 3.24,-1.44 1.23,-1.44 1.23,-4.5 0,-1.17 -0.21,-2.19 -0.21,-1.02 -0.66,-1.74 -0.45,-0.72 -1.17,-1.14 -0.69,-0.42 -1.71,-0.42 z"
       id="path5542" />
    <path
       d="m 614.7745,601.5901 q 1.14,-0.69 2.64,-1.02 1.53,-0.33 3.18,-0.33 1.56,0 2.49,0.42 0.96,0.42 1.44,1.11 0.51,0.66 0.66,1.47 0.18,0.81 0.18,1.62 0,1.8 -0.09,3.51 -0.09,1.71 -0.09,3.24 0,1.11 0.09,2.1 0.09,0.99 0.33,1.83 h -1.77 l -0.63,-2.1 h -0.15 q -0.27,0.42 -0.69,0.84 -0.39,0.39 -0.96,0.72 -0.57,0.3 -1.32,0.51 -0.75,0.21 -1.71,0.21 -0.96,0 -1.8,-0.3 -0.81,-0.3 -1.41,-0.84 -0.6,-0.57 -0.96,-1.35 -0.33,-0.78 -0.33,-1.77 0,-1.32 0.54,-2.19 0.54,-0.9 1.5,-1.41 0.99,-0.54 2.34,-0.75 1.38,-0.24 3.03,-0.24 0.42,0 0.81,0 0.42,0 0.84,0.06 0.09,-0.9 0.09,-1.62 0,-1.65 -0.66,-2.31 -0.66,-0.66 -2.4,-0.66 -0.51,0 -1.11,0.09 -0.57,0.06 -1.2,0.21 -0.6,0.12 -1.17,0.33 -0.54,0.18 -0.96,0.42 z m 4.26,12.03 q 0.84,0 1.5,-0.21 0.66,-0.24 1.14,-0.57 0.48,-0.36 0.78,-0.78 0.33,-0.42 0.48,-0.81 v -2.49 q -0.42,-0.03 -0.87,-0.03 -0.42,-0.03 -0.84,-0.03 -0.93,0 -1.83,0.12 -0.87,0.09 -1.56,0.39 -0.66,0.27 -1.08,0.78 -0.39,0.48 -0.39,1.23 0,1.05 0.75,1.74 0.75,0.66 1.92,0.66 z"
       id="path5544" />
    <path
       d="m 636.4945,611.4001 q 0,-0.9 -0.54,-1.41 -0.54,-0.51 -1.35,-0.84 -0.78,-0.36 -1.74,-0.66 -0.93,-0.33 -1.74,-0.81 -0.78,-0.51 -1.32,-1.29 -0.54,-0.78 -0.54,-2.1 0,-2.16 1.23,-3.15 1.23,-1.02 3.42,-1.02 1.62,0 2.7,0.3 1.11,0.27 1.92,0.66 l -0.57,1.98 q -0.69,-0.33 -1.68,-0.57 -0.96,-0.27 -2.07,-0.27 -1.32,0 -1.95,0.45 -0.6,0.45 -0.6,1.56 0,0.78 0.54,1.23 0.54,0.42 1.32,0.78 0.81,0.33 1.74,0.66 0.96,0.33 1.74,0.87 0.81,0.54 1.35,1.38 0.54,0.81 0.54,2.16 0,0.96 -0.33,1.8 -0.3,0.84 -0.96,1.44 -0.66,0.6 -1.65,0.93 -0.96,0.36 -2.28,0.36 -1.71,0 -2.91,-0.33 -1.2,-0.33 -2.01,-0.78 l 0.72,-2.04 q 0.69,0.39 1.8,0.72 1.11,0.33 2.25,0.33 1.29,0 2.13,-0.51 0.84,-0.51 0.84,-1.83 z"
       id="path5546" />
    <path
       d="m 653.47449,614.2801 q -0.9,0.72 -2.28,1.14 -1.35,0.42 -2.88,0.42 -1.71,0 -2.97,-0.54 -1.26,-0.57 -2.07,-1.59 -0.81,-1.05 -1.2,-2.49 -0.39,-1.44 -0.39,-3.24 0,-3.84 1.71,-5.85 1.71,-2.01 4.89,-2.01 1.02,0 2.04,0.24 1.02,0.21 1.83,0.84 0.81,0.63 1.32,1.8 0.51,1.14 0.51,3.03 0,0.99 -0.18,2.19 h -9.63 q 0,1.32 0.27,2.34 0.27,1.02 0.84,1.74 0.57,0.69 1.47,1.08 0.93,0.36 2.25,0.36 1.02,0 2.04,-0.36 1.02,-0.36 1.53,-0.84 z m -5.16,-12.06 q -1.77,0 -2.85,0.93 -1.05,0.93 -1.26,3.18 h 7.44 q 0,-2.28 -0.87,-3.18 -0.87,-0.93 -2.46,-0.93 z"
       id="path5548" />
    <path
       d="m 662.83448,605.7301 h 7.26 v 2.22 h -7.26 z"
       id="path5550" />
    <path
       d="m 673.6345,605.7301 h 7.26 v 2.22 h -7.26 z"
       id="path5552" />
    <path
       d="m 684.13452,607.9801 q 0,-3.81 1.68,-5.82 1.71,-2.04 4.89,-2.04 1.68,0 2.91,0.57 1.26,0.54 2.07,1.59 0.81,1.02 1.2,2.49 0.39,1.44 0.39,3.21 0,3.81 -1.71,5.85 -1.68,2.01 -4.86,2.01 -1.68,0 -2.94,-0.54 -1.23,-0.57 -2.04,-1.59 -0.81,-1.05 -1.2,-2.49 -0.39,-1.47 -0.39,-3.24 z m 2.49,0 q 0,1.14 0.21,2.19 0.24,1.05 0.72,1.83 0.48,0.78 1.26,1.26 0.78,0.48 1.89,0.48 4.08,0.03 4.08,-5.76 0,-1.17 -0.24,-2.22 -0.21,-1.05 -0.69,-1.83 -0.48,-0.78 -1.26,-1.23 -0.78,-0.48 -1.89,-0.48 -4.08,-0.03 -4.08,5.76 z"
       id="path5554" />
    <path
       d="m 710.68451,615.4801 v -8.55 q 0,-2.34 -0.69,-3.51 -0.66,-1.2 -2.46,-1.2 -1.59,0 -2.64,0.87 -1.02,0.84 -1.44,2.13 v 10.26 h -2.4 v -15 h 1.68 l 0.45,1.83 h 0.12 q 0.72,-0.96 1.92,-1.56 1.23,-0.63 2.91,-0.63 1.23,0 2.16,0.3 0.93,0.27 1.53,0.99 0.63,0.72 0.93,1.95 0.33,1.2 0.33,3.06 v 9.06 z"
       id="path5556" />
    <path
       d="m 715.48453,600.4801 h 2.34 v -2.97 l 2.4,-0.69 v 3.66 h 4.08 v 2.1 h -4.08 v 8.31 q 0,1.56 0.39,2.22 0.39,0.63 1.32,0.63 0.78,0 1.32,-0.15 0.54,-0.18 1.2,-0.45 l 0.54,1.83 q -0.81,0.39 -1.77,0.63 -0.96,0.24 -2.07,0.24 -1.83,0 -2.58,-1.02 -0.75,-1.05 -0.75,-3.48 v -8.76 h -2.34 z"
       id="path5558" />
    <path
       d="m 726.46457,607.9801 q 0,-3.81 1.68,-5.82 1.71,-2.04 4.89,-2.04 1.68,0 2.91,0.57 1.26,0.54 2.07,1.59 0.81,1.02 1.2,2.49 0.39,1.44 0.39,3.21 0,3.81 -1.71,5.85 -1.68,2.01 -4.86,2.01 -1.68,0 -2.94,-0.54 -1.23,-0.57 -2.04,-1.59 -0.81,-1.05 -1.2,-2.49 -0.39,-1.47 -0.39,-3.24 z m 2.49,0 q 0,1.14 0.21,2.19 0.24,1.05 0.72,1.83 0.48,0.78 1.26,1.26 0.78,0.48 1.89,0.48 4.08,0.03 4.08,-5.76 0,-1.17 -0.24,-2.22 -0.21,-1.05 -0.69,-1.83 -0.48,-0.78 -1.26,-1.23 -0.78,-0.48 -1.89,-0.48 -4.08,-0.03 -4.08,5.76 z"
       id="path5560" />
    <path
       d="m 762.91455,610.3201 q 0,1.53 0.03,2.79 0.03,1.23 0.27,2.43 h -1.62 l -0.6,-2.13 h -0.12 q -0.6,1.05 -1.74,1.74 -1.14,0.69 -2.67,0.69 -3,0 -4.47,-1.89 -1.44,-1.89 -1.44,-5.91 0,-3.84 1.8,-5.82 1.83,-2.01 5.01,-2.01 1.11,0 1.74,0.12 0.66,0.12 1.41,0.39 v -6.24 h 2.4 z m -6.06,3.42 q 1.53,0 2.43,-0.78 0.9,-0.81 1.23,-2.43 v -7.44 q -0.54,-0.42 -1.23,-0.6 -0.69,-0.18 -1.83,-0.18 -2.07,0 -3.24,1.38 -1.17,1.35 -1.17,4.35 0,1.23 0.18,2.28 0.21,1.05 0.66,1.8 0.45,0.75 1.17,1.2 0.75,0.42 1.8,0.42 z"
       id="path5562" />
    <path
       d="m 778.48455,614.2801 q -0.9,0.72 -2.28,1.14 -1.35,0.42 -2.88,0.42 -1.71,0 -2.97,-0.54 -1.26,-0.57 -2.07,-1.59 -0.81,-1.05 -1.2,-2.49 -0.39,-1.44 -0.39,-3.24 0,-3.84 1.71,-5.85 1.71,-2.01 4.89,-2.01 1.02,0 2.04,0.24 1.02,0.21 1.83,0.84 0.81,0.63 1.32,1.8 0.51,1.14 0.51,3.03 0,0.99 -0.18,2.19 h -9.63 q 0,1.32 0.27,2.34 0.27,1.02 0.84,1.74 0.57,0.69 1.47,1.08 0.93,0.36 2.25,0.36 1.02,0 2.04,-0.36 1.02,-0.36 1.53,-0.84 z m -5.16,-12.06 q -1.77,0 -2.85,0.93 -1.05,0.93 -1.26,3.18 h 7.44 q 0,-2.28 -0.87,-3.18 -0.87,-0.93 -2.46,-0.93 z"
       id="path5564" />
    <path
       d="m 786.43453,609.2701 0.84,2.85 h 0.03 l 0.75,-2.91 3.36,-8.73 h 2.58 l -6.39,15.33 h -1.02 l -6.51,-15.33 h 2.76 z"
       id="path5566" />
    <path
       d="m 807.19457,614.2801 q -0.9,0.72 -2.28,1.14 -1.35,0.42 -2.88,0.42 -1.71,0 -2.97,-0.54 -1.26,-0.57 -2.07,-1.59 -0.81,-1.05 -1.2,-2.49 -0.39,-1.44 -0.39,-3.24 0,-3.84 1.71,-5.85 1.71,-2.01 4.89,-2.01 1.02,0 2.04,0.24 1.02,0.21 1.83,0.84 0.81,0.63 1.32,1.8 0.51,1.14 0.51,3.03 0,0.99 -0.18,2.19 h -9.63 q 0,1.32 0.27,2.34 0.27,1.02 0.84,1.74 0.57,0.69 1.47,1.08 0.93,0.36 2.25,0.36 1.02,0 2.04,-0.36 1.02,-0.36 1.53,-0.84 z m -5.16,-12.06 q -1.77,0 -2.85,0.93 -1.05,0.93 -1.26,3.18 h 7.44 q 0,-2.28 -0.87,-3.18 -0.87,-0.93 -2.46,-0.93 z"
       id="path5568" />
    <path
       d="m 814.15456,611.7901 q 0,1.05 0.36,1.5 0.36,0.45 1.02,0.45 0.39,0 0.84,-0.06 0.45,-0.06 1.02,-0.27 l 0.27,1.89 q -0.48,0.24 -1.35,0.39 -0.84,0.15 -1.47,0.15 -1.35,0 -2.22,-0.75 -0.87,-0.78 -0.87,-2.61 v -18 h 2.4 z"
       id="path5570" />
    <path
       d="m 819.40454,607.9801 q 0,-3.81 1.68,-5.82 1.71,-2.04 4.89,-2.04 1.68,0 2.91,0.57 1.26,0.54 2.07,1.59 0.81,1.02 1.2,2.49 0.39,1.44 0.39,3.21 0,3.81 -1.71,5.85 -1.68,2.01 -4.86,2.01 -1.68,0 -2.94,-0.54 -1.23,-0.57 -2.04,-1.59 -0.81,-1.05 -1.2,-2.49 -0.39,-1.47 -0.39,-3.24 z m 2.49,0 q 0,1.14 0.21,2.19 0.24,1.05 0.72,1.83 0.48,0.78 1.26,1.26 0.78,0.48 1.89,0.48 4.08,0.03 4.08,-5.76 0,-1.17 -0.24,-2.22 -0.21,-1.05 -0.69,-1.83 -0.48,-0.78 -1.26,-1.23 -0.78,-0.48 -1.89,-0.48 -4.08,-0.03 -4.08,5.76 z"
       id="path5572" />
    <path
       d="m 836.32453,600.4801 h 1.65 l 0.45,1.8 h 0.12 q 0.69,-1.05 1.77,-1.59 1.11,-0.57 2.52,-0.57 3,0 4.47,1.77 1.47,1.77 1.47,5.79 0,1.89 -0.51,3.42 -0.48,1.5 -1.38,2.55 -0.9,1.05 -2.19,1.62 -1.26,0.57 -2.82,0.57 -1.11,0 -1.77,-0.15 -0.63,-0.12 -1.38,-0.45 v 6.24 h -2.4 z m 6.06,1.74 q -1.53,0 -2.43,0.81 -0.87,0.78 -1.23,2.4 v 7.44 q 0.54,0.42 1.23,0.66 0.69,0.21 1.83,0.21 2.07,0 3.27,-1.53 1.23,-1.56 1.23,-4.56 0,-1.23 -0.21,-2.22 -0.21,-1.02 -0.69,-1.71 -0.45,-0.72 -1.2,-1.11 -0.72,-0.39 -1.8,-0.39 z"
       id="path5574" />
  </g>
</svg>
