<svg version="1.1" xmlns="http://www.w3.org/2000/svg" viewBox="0 0 457 500.5" width="914" height="1001">
  <!-- svg-source:excalidraw -->
  
  <defs>
    <style>
      @font-face {
        font-family: "Virgil";
        src: url("https://excalidraw.com/Virgil.woff2");
      }
      @font-face {
        font-family: "Cascadia";
        src: url("https://excalidraw.com/Cascadia.woff2");
      }
    </style>
  </defs>
  <rect x="0" y="0" width="457" height="500.5" fill="#ffffff"></rect><g stroke-linecap="round" transform="translate(176 77.5) rotate(0 67.5 67.5)"><path d="M70.08 -0.17 C79.13 -0.92, 89 2.58, 97.62 6.91 C106.24 11.25, 115.73 17.91, 121.79 25.84 C127.86 33.77, 132.06 44.81, 134.01 54.48 C135.96 64.16, 135.85 74.43, 133.48 83.88 C131.12 93.33, 126.22 103.71, 119.83 111.17 C113.44 118.63, 104.19 124.72, 95.16 128.64 C86.14 132.56, 75.4 134.73, 65.68 134.68 C55.96 134.62, 45.4 132.87, 36.85 128.32 C28.3 123.78, 20.32 115.44, 14.39 107.41 C8.45 99.37, 3.17 89.66, 1.23 80.1 C-0.7 70.55, 0.23 59.55, 2.77 50.08 C5.3 40.6, 10.25 30.51, 16.46 23.26 C22.67 16.01, 30.31 10.28, 40.03 6.57 C49.75 2.86, 68.26 1.73, 74.81 0.99 C81.35 0.26, 79.56 1.15, 79.31 2.16 M35.22 7.65 C42.84 2.15, 54.49 -0.7, 64.23 -1.09 C73.97 -1.47, 84.72 1.02, 93.66 5.34 C102.6 9.65, 111.31 17.39, 117.88 24.81 C124.45 32.24, 130.22 40.58, 133.09 49.9 C135.95 59.21, 136.82 70.99, 135.05 80.69 C133.28 90.38, 128.35 100.33, 122.48 108.06 C116.62 115.79, 108.49 122.55, 99.89 127.06 C91.29 131.56, 80.85 134.61, 70.91 135.1 C60.97 135.59, 49.5 134.12, 40.23 130.01 C30.96 125.89, 21.68 117.95, 15.28 110.43 C8.89 102.91, 4.41 93.92, 1.86 84.88 C-0.68 75.83, -1.72 65.87, 0.03 56.14 C1.77 46.41, 6.56 34.4, 12.33 26.48 C18.1 18.57, 30.52 11.41, 34.62 8.64 C38.71 5.87, 36.23 9.19, 36.9 9.87" stroke="none" stroke-width="0" fill="#fa5252"></path><path d="M76.38 -0.09 C85.83 0.12, 96.11 4.89, 104.26 10.4 C112.41 15.91, 120.33 24.41, 125.26 32.98 C130.19 41.55, 132.77 52.11, 133.84 61.81 C134.92 71.52, 134.97 82.08, 131.68 91.2 C128.4 100.33, 121.38 109.85, 114.14 116.55 C106.9 123.26, 97.57 128.46, 88.25 131.44 C78.92 134.42, 67.83 135.74, 58.19 134.46 C48.55 133.18, 38.35 129, 30.42 123.73 C22.5 118.47, 15.58 111.09, 10.64 102.88 C5.69 94.68, 1.82 84.12, 0.75 74.51 C-0.32 64.9, 1.05 54.57, 4.24 45.21 C7.43 35.86, 12.92 25.43, 19.88 18.37 C26.84 11.3, 36.27 5.83, 46.01 2.8 C55.74 -0.24, 72.41 0.3, 78.31 0.16 C84.21 0.01, 81.55 0.82, 81.41 1.92 M72.7 1.21 C82.3 0.8, 93.7 5.45, 102.05 10.07 C110.41 14.7, 117.47 21.22, 122.84 28.93 C128.2 36.65, 132.46 46.45, 134.24 56.36 C136.01 66.27, 136.51 78.81, 133.5 88.38 C130.49 97.95, 122.78 106.77, 116.17 113.78 C109.56 120.79, 102.65 126.97, 93.85 130.43 C85.06 133.89, 73.58 135.04, 63.4 134.55 C53.23 134.06, 41.57 132.05, 32.79 127.5 C24.02 122.94, 16.31 115.62, 10.76 107.2 C5.2 98.78, 0.84 86.85, -0.54 76.96 C-1.93 67.07, -0.65 56.88, 2.46 47.86 C5.56 38.84, 11.43 30.03, 18.07 22.84 C24.71 15.66, 33.28 8.31, 42.29 4.75 C51.31 1.18, 67.25 1.73, 72.15 1.44 C77.05 1.15, 71.75 1.87, 71.68 3" stroke="#000000" stroke-width="1" fill="none"></path></g><g stroke-linecap="round" transform="translate(10 303.5) rotate(0 67.5 67.5)"><path d="M16.42 23.55 C16.42 23.55, 16.42 23.55, 16.42 23.55 M16.42 23.55 C16.42 23.55, 16.42 23.55, 16.42 23.55 M8.47 56.51 C21.68 44.35, 32.81 29.61, 46.23 12.41 M8.4 57.02 C23.05 41.24, 37.58 24.85, 47.65 13.23 M4.14 84.29 C31.21 56.11, 53.96 31.79, 77.06 5.08 M6.63 84.53 C19.53 69.01, 35.01 53, 74.87 5.21 M12.21 102.26 C31.79 79.77, 48.42 62.21, 90.93 8.65 M12.26 101.27 C44.71 65.03, 74.66 30.36, 92.36 9.89 M23.02 116.39 C52.8 82.53, 80.91 43.95, 106.99 15.42 M21.91 116.13 C53.8 76.19, 86.34 38.72, 107.22 14.98 M34.68 126.48 C61.42 92.49, 87.65 61.95, 121.92 25.16 M33.91 126.56 C54.56 103.68, 74.6 79.16, 120.9 25.55 M47.36 133.74 C80.77 96.82, 115.56 56.56, 131.03 36.72 M46.47 136.26 C78.77 98.51, 109.95 62.88, 132.19 35.72 M67.81 138.2 C90.84 108.79, 113.09 80.87, 137.37 54.19 M66.11 136.76 C85.52 114.57, 104.03 95.09, 136.17 54.98 M93.08 129.81 C106.77 113.37, 119.9 97.47, 134.03 84.97 M93.19 130.65 C103.48 118.41, 112.82 107.31, 132.43 84.35 M14.04 108.84 C14.04 108.84, 14.04 108.84, 14.04 108.84 M14.04 108.84 C14.04 108.84, 14.04 108.84, 14.04 108.84 M66.88 133.7 C52.72 121.23, 37.18 105.47, 3.61 78.25 M66.91 134.48 C47.34 115.82, 26.79 98.31, 4.55 79.68 M88.26 127.9 C67.3 112.41, 46.66 97.07, 4.86 57.89 M85.8 130.27 C67.38 112.59, 49.76 97.68, 4.85 58.37 M102.06 121.77 C79.97 104.81, 61.69 87.67, 10.33 43.62 M102.28 122.02 C76.06 98.91, 49.21 76.77, 11.3 43.35 M113.01 113.31 C89.02 90.04, 59.28 66.23, 16.91 26.26 M114.4 111.79 C91.38 91.54, 68.23 72.18, 17.64 28.15 M127.61 101.43 C99.87 76.29, 71.4 54.5, 27.5 11.34 M126.8 102.39 C105.01 81.15, 81.71 61.44, 25.33 13.98 M133.8 88.57 C107.3 59.99, 77.89 34.82, 40.79 3.02 M134.27 86.18 C99.28 55.17, 60.18 21.66, 41.22 5.79 M142.81 71.1 C113.23 48.18, 82.88 20.17, 58.41 0.22 M143.47 71.54 C123.62 55.89, 106.19 40.28, 60.5 0.55 M137.54 49.58 C116.77 27.69, 90.97 5.14, 75.93 -6.87 M139.14 47.27 C125.55 36.5, 113.24 23.44, 75.68 -8.15" stroke="#40c057" stroke-width="2" fill="none"></path><path d="M98.32 7.46 C106.88 10.59, 114.72 17.92, 120.75 25.49 C126.79 33.06, 132.54 43.12, 134.52 52.89 C136.5 62.66, 135.05 74.56, 132.62 84.11 C130.19 93.67, 126.15 102.93, 119.94 110.23 C113.74 117.54, 104.47 123.9, 95.39 127.94 C86.31 131.98, 75.11 134.43, 65.45 134.49 C55.79 134.56, 45.94 132.55, 37.42 128.32 C28.9 124.08, 20.25 116.92, 14.35 109.1 C8.45 101.29, 4.06 90.96, 2.04 81.42 C0.02 71.87, -0.14 61.44, 2.24 51.82 C4.62 42.2, 10.13 31.34, 16.31 23.67 C22.49 16.01, 30.58 9.86, 39.33 5.83 C48.07 1.79, 58.53 -1.07, 68.78 -0.55 C79.04 -0.02, 94.99 6.78, 100.86 8.96 C106.72 11.14, 104.41 11.59, 103.95 12.52 M91.5 3.5 C100.39 5.85, 110.3 13.25, 117.13 20.73 C123.96 28.22, 129.78 38.89, 132.46 48.43 C135.14 57.98, 134.96 68.47, 133.2 77.99 C131.44 87.51, 127.12 97.32, 121.9 105.56 C116.67 113.81, 110.42 122.49, 101.86 127.47 C93.29 132.45, 80.42 135.09, 70.49 135.44 C60.56 135.79, 51.12 133.34, 42.27 129.59 C33.43 125.84, 24.2 120.31, 17.4 112.97 C10.6 105.62, 4.14 95.08, 1.45 85.53 C-1.24 75.98, -0.52 65.36, 1.25 55.66 C3.01 45.96, 6.37 35.26, 12.06 27.33 C17.75 19.41, 26.69 12.8, 35.37 8.12 C44.05 3.45, 54.63 -0.06, 64.14 -0.71 C73.65 -1.37, 87.91 3.05, 92.45 4.19 C96.98 5.33, 91.66 4.92, 91.37 6.15" stroke="#000000" stroke-width="4" fill="none"></path></g><g stroke-linecap="round" transform="translate(312 305.5) rotate(0 67.5 67.5)"><path d="M15.69 25.57 C15.69 25.57, 15.69 25.57, 15.69 25.57 M15.69 25.57 C15.69 25.57, 15.69 25.57, 15.69 25.57 M7.78 56.89 C19.75 46.72, 29.38 35.33, 48.68 11.57 M9.56 57.36 C22.37 40.25, 37.77 24.66, 47.67 14.28 M5.5 83.33 C29.71 56.31, 51.94 30.99, 75.19 4.56 M5.44 84.17 C30.59 57.71, 54.64 27.95, 74.37 5.87 M15.2 101.07 C39.06 71.43, 65.18 40.94, 90.52 10.3 M13.72 101.44 C41.66 67.84, 70.79 37.3, 91.39 11.55 M20.84 116.92 C48.89 81.9, 76.68 51.79, 108 17.41 M21.94 115.35 C50.63 81.35, 80.38 46.26, 107.49 17.72 M33.31 127.69 C55.17 101.74, 71.94 81.79, 121.72 26.21 M33.7 125.73 C58.85 98.24, 84.39 68.76, 120.1 27.23 M45.53 136.18 C68.75 108.02, 92.88 82.39, 127.76 41.9 M45.55 136.09 C65.56 114.42, 84.39 92.05, 128.46 42.65 M68.2 136.18 C87.3 110.53, 108.98 86.92, 135.44 58.01 M68.64 136.86 C88.49 111.21, 109.44 87.66, 136.79 55.89 M94.35 132.51 C106.84 117.34, 119.36 100.85, 133.92 86.08 M93.16 131.43 C110.52 113.15, 125.8 93.49, 134.7 83.99 M14.93 109.33 C14.93 109.33, 14.93 109.33, 14.93 109.33 M14.93 109.33 C14.93 109.33, 14.93 109.33, 14.93 109.33 M67.87 134.43 C44.34 113.92, 19.68 91.03, 6.18 78.17 M68.65 133.3 C54.87 122.49, 40.44 111.26, 5.02 79.04 M87.98 131.75 C68.84 111.28, 46.85 93.88, 5.27 59.6 M87.03 130.58 C63.45 109.94, 37.36 86.69, 4.41 57.07 M103.79 123.95 C84.51 105.02, 64.81 88.86, 12.78 41.98 M102.2 122.96 C80.06 104.5, 58.52 86.82, 10.04 42.5 M116.9 110.32 C94.7 95.74, 76.64 77.96, 19.66 28.17 M116.51 112.14 C85.67 85.7, 56.02 59.21, 19.29 27.13 M126.61 100.49 C87.72 68.66, 51.48 34.33, 26.89 13.17 M128 100.89 C101.92 81.46, 79.04 59.32, 26.43 12.76 M136.93 88.36 C102.08 59.37, 70.03 30.92, 38.72 4.07 M135.23 87.13 C109.17 63.14, 81.19 40.6, 39.66 3.24 M140.93 73.21 C126.17 58.27, 107.92 39.75, 61.87 -1.31 M143.52 71.12 C112.12 45.11, 81.76 19.22, 60.25 1.28 M138.55 47.23 C119.03 29.33, 97.78 9.56, 72.96 -6.97 M138.63 47.17 C118.74 30.56, 99.25 14.8, 73.82 -7.98" stroke="#fab005" stroke-width="2" fill="none"></path><path d="M38.42 6.19 C46.36 1.42, 57.65 0.36, 67.47 0.6 C77.28 0.85, 88.48 3.46, 97.29 7.66 C106.09 11.87, 114.34 18.32, 120.29 25.82 C126.24 33.33, 130.86 43.05, 132.99 52.68 C135.11 62.31, 135.22 73.94, 133.04 83.6 C130.86 93.26, 125.93 102.96, 119.9 110.62 C113.88 118.29, 105.74 125.52, 96.88 129.57 C88.03 133.62, 76.76 135.1, 66.79 134.92 C56.83 134.73, 45.74 132.71, 37.1 128.45 C28.46 124.19, 20.78 117.12, 14.94 109.34 C9.1 101.55, 4.2 91.31, 2.05 81.75 C-0.1 72.19, -0.29 61.4, 2.03 51.99 C4.34 42.58, 8.87 33.27, 15.94 25.28 C23.01 17.29, 38.5 7.56, 44.45 4.04 C50.4 0.53, 51.05 3.11, 51.64 4.21 M63.21 0.34 C72.25 -0.83, 83.5 2.1, 92.74 5.75 C101.97 9.41, 111.94 15.18, 118.6 22.29 C125.25 29.41, 130.15 38.84, 132.66 48.44 C135.17 58.05, 135.5 70.01, 133.65 79.91 C131.8 89.8, 127.08 100.11, 121.54 107.79 C116 115.47, 108.7 121.38, 100.42 126 C92.14 130.62, 81.45 134.79, 71.84 135.5 C62.23 136.21, 51.7 134.05, 42.77 130.28 C33.85 126.5, 24.88 120.36, 18.28 112.87 C11.67 105.38, 6.06 95.03, 3.14 85.36 C0.22 75.69, -0.78 64.13, 0.75 54.84 C2.28 45.55, 6.84 37.23, 12.33 29.62 C17.82 22.02, 24.99 13.91, 33.68 9.2 C42.36 4.5, 59.34 2.93, 64.45 1.39 C69.55 -0.15, 64.57 -0.71, 64.3 -0.04" stroke="#000000" stroke-width="4" fill="none"></path></g><g stroke-linecap="round"><g transform="translate(212 208.5) rotate(0 -43.88138855041473 51.268014030158525)"><path d="M0.79 -0.76 C-13.83 16.51, -73.04 85.91, -88.09 103.29 M-0.25 1.46 C-14.91 18.37, -73.51 84.65, -88.56 101.32" stroke="#000000" stroke-width="1" fill="none"></path></g><g transform="translate(212 208.5) rotate(0 -43.88138855041473 51.268014030158525)"><path d="M-78.71 74.98 C-80.01 80.16, -82.59 89.28, -86.94 101.93 M-77.93 73.3 C-82.4 83.92, -84.92 93.76, -88 101.74" stroke="#000000" stroke-width="1" fill="none"></path></g><g transform="translate(212 208.5) rotate(0 -43.88138855041473 51.268014030158525)"><path d="M-63.39 88.63 C-68.77 90.26, -75.46 95.71, -86.94 101.93 M-62.62 86.96 C-72.92 92.46, -81.25 97.12, -88 101.74" stroke="#000000" stroke-width="1" fill="none"></path></g></g><g stroke-linecap="round"><g transform="translate(295 192.5) rotate(0 28.988071756782006 56.28744981735943)"><path d="M1.12 -1.03 C10.42 17.77, 46.1 94.65, 55.35 113.61 M0.25 1.04 C9.99 19.42, 48.4 93, 57.73 111.8" stroke="#000000" stroke-width="1" fill="none"></path></g><g transform="translate(295 192.5) rotate(0 28.988071756782006 56.28744981735943)"><path d="M34.04 90.29 C42.65 97.55, 46.87 101.59, 57.38 111.45 M36.1 91.79 C40.83 96.2, 47.64 101.98, 58.21 111.9" stroke="#000000" stroke-width="1" fill="none"></path></g><g transform="translate(295 192.5) rotate(0 28.988071756782006 56.28744981735943)"><path d="M52.32 80.95 C56.21 90.83, 55.65 97.31, 57.38 111.45 M54.37 82.45 C54.26 89.26, 56.28 97.49, 58.21 111.9" stroke="#000000" stroke-width="1" fill="none"></path></g></g><g transform="translate(135.30769230769238 10) rotate(0 121.84615384615381 24)"><text x="0" y="34.00000000000001" font-family="Virgil, Segoe UI Emoji" font-size="36.92307692307689px" fill="#000000" text-anchor="start" style="white-space: pre;" direction="ltr">Merge Commit</text></g><g transform="translate(24 458.5) rotate(0 41.5 13)"><text x="0" y="18" font-family="Virgil, Segoe UI Emoji" font-size="20px" fill="#000000" text-anchor="start" style="white-space: pre;" direction="ltr">Parent 1</text></g><g transform="translate(336.5 464.5) rotate(0 46 13)"><text x="0" y="18" font-family="Virgil, Segoe UI Emoji" font-size="20px" fill="#000000" text-anchor="start" style="white-space: pre;" direction="ltr">Parent 2</text></g></svg>