<svg version="1.1" xmlns="http://www.w3.org/2000/svg" viewBox="0 0 668 673" width="668" height="673">
  <!-- svg-source:excalidraw -->
  
  <defs>
    <style>
      @font-face {
        font-family: "Virgil";
        src: url("https://excalidraw.com/Virgil.woff2");
      }
      @font-face {
        font-family: "Cascadia";
        src: url("https://excalidraw.com/Cascadia.woff2");
      }
    </style>
  </defs>
  <rect x="0" y="0" width="668" height="673" fill="#ffffff"></rect><g stroke-linecap="round" transform="translate(10 570) rotate(0 41.5 41.5)"><path d="M4.51 21.14 C4.51 21.14, 4.51 21.14, 4.51 21.14 M4.51 21.14 C4.51 21.14, 4.51 21.14, 4.51 21.14 M0 35.26 C9.95 27.19, 19.31 15.04, 27.39 7.41 M2.24 37.63 C7.17 31.32, 13.36 22.78, 26.32 9.18 M4.69 46.77 C16.89 28.03, 31.72 12.16, 39.54 7.32 M3.81 45.2 C13.21 37.12, 22.16 27.28, 38.69 6.65 M5.28 53.04 C15.56 43.31, 29.35 31.13, 51.65 2.9 M7.63 54.13 C17.77 43.8, 27.25 31, 51.67 4.15 M7.64 67.64 C22.65 48.23, 42.31 28.27, 57.81 7.64 M7.78 66.81 C21.97 49.17, 34.49 33.45, 58.44 7.72 M14.28 72.54 C30.84 53.92, 47.47 36.43, 66.48 7.82 M12.71 71.19 C25.86 58.06, 38.64 43.71, 67.69 8.91 M18.72 76.96 C34.53 61.72, 47.59 45.17, 72.13 15.81 M19.57 76.56 C37.56 58.35, 53.35 39.22, 73.26 15.03 M27.92 82.58 C41.13 63.83, 60.66 42.01, 76.28 23.8 M26.6 81.92 C41.5 63.58, 55.79 46.32, 77.14 21.98 M36.31 83.18 C47.25 67.85, 58.37 59.34, 84.45 26.98 M37.09 82.61 C47.84 67.88, 58.65 55.04, 82.3 28.52 M46.75 83.83 C59.9 71.05, 70.93 55.88, 82.28 42.01 M46.2 82.65 C58.41 68.96, 69.03 56.87, 82.75 41.77 M55.68 88.24 C62.45 77.32, 67.92 68.71, 83.82 53.43 M54.19 87.05 C59.95 78.85, 67.19 70.1, 83.87 52.68 M6.7 65.46 C6.7 65.46, 6.7 65.46, 6.7 65.46 M6.7 65.46 C6.7 65.46, 6.7 65.46, 6.7 65.46 M29.43 76.34 C19.44 65.93, 11.1 57.75, 1.32 52.36 M31.2 76.59 C24.52 70.03, 16.04 62.46, 2.45 52.32 M49.43 81.8 C37.32 69.88, 25.28 62.27, 3.16 40.9 M49.64 81.72 C38.57 72.71, 27.73 62.46, 2.2 40.3 M58.15 78.71 C35.11 61.73, 19.27 44.05, 4.21 31.39 M57.52 77.43 C39.86 61.19, 20.53 45.94, 4.76 32.08 M66.18 73.61 C43.37 51.97, 20.59 35.4, 7.61 23.54 M65.48 73.53 C43.71 55.37, 23.48 36.13, 6.03 21.56 M73.31 71.09 C49.67 47.43, 27.76 30.3, 10.21 14.47 M72.48 68.63 C46.59 47.72, 23.18 26.65, 10.09 14.36 M75.52 62.95 C54.78 46.13, 37.25 28.04, 16.16 8.81 M76.62 62.43 C60.75 49.36, 45.81 33.87, 14.81 9.02 M79.64 56.69 C58.61 39.28, 43.05 22.28, 21.78 6.62 M79.83 55.18 C61.32 39.14, 42.87 22.57, 22.57 3.98 M83.4 48.28 C70.27 36.58, 56.92 21.59, 32.22 2.64 M83.79 47.6 C68.23 33.07, 50.38 18.13, 32.91 1.88 M83.58 37.46 C71.08 25.71, 54.98 12.74, 44.54 1.64 M84.07 37.18 C71.17 25.58, 57.53 13.51, 43.56 1.99 M82.16 24.23 C73.07 18.12, 65.45 10.44, 49.35 -4.91 M82.2 25.78 C74.06 17.01, 64.85 9.45, 49.95 -4.09" stroke="#fab005" stroke-width="1" fill="none"></path><path d="M46.31 0.34 C53.29 0.33, 61.18 3.69, 67.01 8.22 C72.84 12.76, 78.95 20.47, 81.31 27.53 C83.67 34.6, 83.07 43.25, 81.17 50.62 C79.27 58, 75.37 66.47, 69.93 71.78 C64.48 77.09, 55.78 81.05, 48.5 82.5 C41.21 83.95, 33.16 83.29, 26.22 80.48 C19.28 77.66, 11.18 71.9, 6.85 65.6 C2.53 59.3, 0.64 50.13, 0.28 42.68 C-0.08 35.24, 1.08 27.27, 4.7 20.92 C8.32 14.58, 14.2 8, 21.97 4.62 C29.74 1.24, 45.71 0.76, 51.32 0.65 C56.93 0.54, 55.96 3.11, 55.63 3.96 M45.02 -0.19 C52.25 0.17, 61.83 5, 67.67 9.79 C73.5 14.59, 77.8 21.68, 80.02 28.57 C82.24 35.45, 82.74 43.92, 80.98 51.11 C79.22 58.31, 74.81 66.34, 69.44 71.74 C64.07 77.14, 55.84 82.07, 48.77 83.53 C41.71 84.98, 33.95 83.62, 27.04 80.46 C20.12 77.29, 12.02 70.84, 7.28 64.55 C2.54 58.27, -1.31 50.26, -1.4 42.74 C-1.49 35.23, 2.72 26, 6.72 19.46 C10.73 12.93, 16.16 6.78, 22.64 3.53 C29.12 0.28, 41.63 0.48, 45.61 -0.06 C49.6 -0.6, 46.68 -0.52, 46.57 0.3" stroke="#000000" stroke-width="2" fill="none"></path></g><g stroke-linecap="round" transform="translate(503 580) rotate(0 41.5 41.5)"><path d="M16.92 8.09 C16.92 8.09, 16.92 8.09, 16.92 8.09 M16.92 8.09 C16.92 8.09, 16.92 8.09, 16.92 8.09 M8.26 31.36 C14.34 22.87, 22.71 12.36, 30.39 4.26 M8.74 30.4 C17.5 20.26, 26.5 9.74, 32.82 3.65 M0.76 49.79 C15.08 34.68, 30.46 15.55, 41.22 4.11 M2.32 49.82 C15.34 33.58, 30.62 16.62, 41.93 2.61 M7.21 57.65 C19.24 38.99, 35.1 22.86, 51.26 4 M6.39 57.55 C14.76 46.86, 25.67 33.86, 51.3 5.58 M10.63 65.46 C28.07 44.61, 46.4 24.43, 62.31 7.91 M8.66 64.75 C30.37 43.38, 49.82 19.38, 60.1 6.11 M13.72 70.79 C24.81 58.09, 39.18 46.5, 68.5 10.37 M13.6 72.41 C32.51 50.43, 51.2 29.39, 68.33 10.59 M20.46 76.24 C40.78 52.39, 61.26 28.95, 72.22 17.74 M21.93 76.35 C40.67 54.27, 60.51 30.68, 72.7 16.68 M28.86 79.53 C43.36 66.25, 53.28 51.37, 79.52 22.88 M27.4 80.46 C47.57 58.28, 67.7 36.85, 77.96 23 M36.22 84.88 C53.05 63.34, 71.47 40.69, 83.53 28.32 M35.89 83.07 C46.07 73.46, 55.05 62.48, 84.28 27.34 M47.22 85.38 C57.16 72.87, 65.81 60.74, 85.9 39.07 M45.48 84.4 C55.72 74.83, 62.52 64.47, 86.56 38.59 M58.71 85.14 C65.58 76.17, 72.77 66.71, 87.29 48.52 M57.19 83.78 C65.14 73.95, 75.01 64.91, 86.94 49.65 M12.25 69.74 C12.25 69.74, 12.25 69.74, 12.25 69.74 M12.25 69.74 C12.25 69.74, 12.25 69.74, 12.25 69.74 M33.17 79.08 C24.01 69.73, 13.96 60.47, 3.49 50.03 M35.08 79.06 C28.78 72.92, 21.54 66.97, 0.8 50.39 M46.74 79.61 C27.71 64.66, 13.94 50.22, 0.82 40.53 M47.39 77.76 C29.83 63.26, 12.53 47.05, 2.16 39.37 M59.13 78.47 C43.29 66.72, 28.14 52.05, 4.18 27.67 M59.14 78.6 C43.32 64.58, 26.49 51.3, 3.18 29.9 M63.85 73.87 C54.16 63.19, 41.88 53.65, 5.15 23.03 M64.82 73.42 C45.48 56.43, 25.05 38.54, 6.93 21.28 M72.38 68.01 C53.32 52.7, 35.09 37, 11.81 16.04 M71.31 68.45 C48.5 48.94, 25.14 29.02, 10.82 14.67 M76.74 62.51 C56.09 40.65, 32.37 20.81, 14.71 9.73 M78.33 62.93 C63.85 49.88, 47.02 35.85, 16.47 9.92 M80.83 53.08 C65.69 41.36, 47.94 27.19, 22.44 4.11 M79.77 54.72 C63.54 40.68, 44.54 25.44, 21.24 4.01 M80.71 47.27 C71.43 35.32, 58.34 26.28, 30.31 -0.59 M81.8 45.21 C69.7 33.43, 56.21 24, 30.82 1.34 M80.77 33.96 C64.76 18.52, 51.41 5.78, 41.15 -2.56 M79.14 33.83 C72.39 25.98, 62.93 18.2, 40.01 -1.82 M81.07 23.8 C74.54 16.84, 64.21 8.88, 56.75 2.81 M80.17 21.54 C73.32 16.88, 66.96 11.44, 56.08 2.94" stroke="#fab005" stroke-width="1" fill="none"></path><path d="M39.03 0.45 C45.99 -0.59, 55.86 1.16, 62.42 5 C68.98 8.83, 75.14 16.62, 78.38 23.45 C81.63 30.28, 82.52 38.63, 81.91 45.98 C81.29 53.33, 79.06 61.68, 74.69 67.56 C70.31 73.44, 62.75 78.96, 55.65 81.25 C48.56 83.55, 39.41 83.27, 32.14 81.32 C24.86 79.36, 17.13 74.71, 11.99 69.5 C6.85 64.3, 2.9 57.41, 1.31 50.1 C-0.27 42.79, -0.16 32.7, 2.48 25.66 C5.11 18.63, 9.96 12.12, 17.11 7.88 C24.26 3.63, 39.94 1.1, 45.36 0.21 C50.78 -0.68, 49.65 1.9, 49.64 2.54 M32.15 1.61 C38.71 -0.73, 46.14 0.02, 52.92 2.05 C59.71 4.08, 67.67 7.81, 72.85 13.79 C78.03 19.77, 82.83 30.07, 84.01 37.93 C85.19 45.79, 83.29 54.28, 79.92 60.95 C76.56 67.62, 70.36 74.26, 63.83 77.93 C57.29 81.61, 48.49 83.13, 40.7 83 C32.91 82.87, 23.34 81.49, 17.09 77.14 C10.83 72.8, 6.02 63.97, 3.18 56.91 C0.34 49.84, -1.35 42.01, 0.03 34.75 C1.4 27.48, 6.42 18.9, 11.43 13.3 C16.44 7.7, 26.68 3.05, 30.09 1.14 C33.51 -0.76, 31.49 1.13, 31.9 1.86" stroke="#000000" stroke-width="2" fill="none"></path></g><g stroke-linecap="round" transform="translate(126 573) rotate(0 41.5 41.5)"><path d="M9.16 17.23 C9.16 17.23, 9.16 17.23, 9.16 17.23 M9.16 17.23 C9.16 17.23, 9.16 17.23, 9.16 17.23 M-0.72 39.64 C6.52 31.59, 14.09 24.46, 31.59 3.4 M-0.08 39.41 C11.77 26.98, 22.61 13.37, 30 4.35 M3.11 48.29 C12.99 40.42, 19.85 28.9, 42.3 4.69 M1.88 48.32 C11.48 39.65, 19.82 29.78, 42.24 5.18 M6.72 57.78 C18.54 43.27, 34.34 26.39, 51.28 1.76 M5.49 59.15 C17.78 45.34, 29.16 31.17, 53.11 3.06 M9.27 65.88 C22.61 51.71, 33.67 37.1, 59.89 6.37 M10.11 63.79 C22.43 52.29, 33.39 36.84, 59.42 7.51 M17.35 72.5 C37.82 45.59, 59.57 22.72, 66.99 10.15 M15.16 70.3 C29.68 55.38, 42.46 40.97, 67.62 11.44 M20.84 76.45 C41.31 51.64, 64.96 28.79, 75.75 13.54 M20.94 77.68 C39.15 55.89, 58.17 34.71, 75.69 14.04 M26.82 83.59 C39.76 66.53, 52.46 49.53, 80.3 21.22 M25.71 83.89 C43.12 63.77, 58.02 44.3, 78.83 22.07 M34.2 86.18 C49.54 64.98, 69.1 46.28, 80.78 31.1 M35.33 85.21 C47.42 69.77, 60.91 57.38, 81.6 30.89 M45.18 82.61 C58.78 69.42, 70.08 58.42, 88.88 36.83 M45.76 83.82 C56.06 72.42, 64.84 63.45, 86.53 36.81 M62.32 76.64 C71.21 69.08, 75.25 61.88, 79.88 54.68 M63.25 77.06 C68.4 71.48, 71.92 66.8, 81.17 55.98 M20.55 78.48 C20.55 78.48, 20.55 78.48, 20.55 78.48 M20.55 78.48 C20.55 78.48, 20.55 78.48, 20.55 78.48 M35.4 80.55 C27.6 74.24, 14.64 66.07, 8.04 57.12 M36.33 81.21 C28.84 74.97, 23.82 70.11, 7.83 57.55 M48.37 81.74 C33.26 68.48, 22.03 57.44, 3.54 44.38 M47.36 80.76 C36.1 70.48, 25.61 63.33, 5.66 43.76 M56.13 75.94 C38.12 64.83, 23.68 49.24, 5.26 33.67 M55.05 76.96 C41.62 65.72, 29.65 53.52, 5.53 33.32 M64.02 73.12 C45.45 60.3, 28.28 42.08, 8.8 24.09 M63.86 73.18 C47.36 58.66, 29.85 44.68, 8.56 26.24 M71.69 66.98 C53.85 54.12, 38.63 43.52, 11.72 16.88 M70.85 67.92 C52.32 52.18, 34.15 37.11, 9.7 15.46 M73.84 63.59 C63.92 51.34, 50.01 40.29, 16.01 12.56 M75.42 63.36 C58.31 47.63, 42.86 33.94, 17.22 11.99 M78.03 56.12 C68.43 43.55, 55.26 33.14, 22.63 5.28 M80.28 56.04 C67.26 45.54, 55.92 36.33, 22.29 5.14 M83.34 48.21 C66.37 33.81, 50.71 18.17, 29.67 -0.7 M85.1 50.15 C63.71 32.21, 43.15 13.44, 28.29 0.99 M87.43 38.76 C69.64 24.27, 50.36 7.85, 40.77 -1.64 M86.66 40.3 C70.68 27.63, 56.49 14.5, 40.19 -0.36 M84.26 30.46 C70.02 16.78, 59.8 5.41, 52.64 -0.04 M85.64 27.93 C74.11 19.31, 60.64 7.46, 51.21 -0.54" stroke="#40c057" stroke-width="1" fill="none"></path><path d="M26.82 2.6 C33.14 -0.42, 42.26 -0.94, 49.62 0.56 C56.97 2.06, 65.59 6.18, 70.93 11.6 C76.28 17.01, 80.08 25.77, 81.68 33.06 C83.29 40.35, 83.16 48.51, 80.54 55.34 C77.92 62.17, 71.89 69.53, 65.97 74.02 C60.05 78.5, 52.54 81.46, 45.02 82.25 C37.49 83.03, 27.44 82.34, 20.83 78.73 C14.23 75.12, 8.84 67.21, 5.39 60.57 C1.95 53.93, -0.5 46.12, 0.14 38.88 C0.79 31.64, 4.54 23.25, 9.25 17.12 C13.97 11, 24.55 4.49, 28.42 2.11 C32.29 -0.27, 31.99 2.24, 32.49 2.84 M34.36 -0.18 C41.07 -2.04, 49.54 -1.04, 56.63 2.01 C63.73 5.07, 72.58 11.62, 76.92 18.13 C81.27 24.65, 82.98 33.43, 82.72 41.1 C82.47 48.78, 79.35 57.93, 75.4 64.2 C71.45 70.48, 65.46 75.49, 59.02 78.73 C52.58 81.98, 44.05 84.51, 36.77 83.67 C29.49 82.83, 21.02 78.82, 15.34 73.68 C9.65 68.55, 4.74 60.28, 2.66 52.87 C0.58 45.47, 0.79 36.2, 2.85 29.26 C4.91 22.32, 9.44 16, 15 11.21 C20.56 6.42, 33.06 2.12, 36.22 0.52 C39.37 -1.08, 34.14 1.07, 33.93 1.63" stroke="#000000" stroke-width="2" fill="none"></path></g><g stroke-linecap="round" transform="translate(575 240) rotate(0 41.5 41.5)"><path d="M11.23 12.41 C11.23 12.41, 11.23 12.41, 11.23 12.41 M11.23 12.41 C11.23 12.41, 11.23 12.41, 11.23 12.41 M3.5 33.08 C11.81 24.59, 18.05 14.09, 31.88 4.28 M2.54 34.3 C9.05 26.93, 15.18 21.14, 31.28 3.22 M3.14 44.21 C14.4 34.15, 21.66 23.36, 38.36 7.51 M3.17 45.25 C17.31 30.01, 30.74 13.93, 36.86 6.6 M2.96 56.71 C13.04 44.03, 25.65 31.7, 46.75 5.44 M2.86 57.72 C19.39 40.23, 33.58 22.08, 48.33 7.63 M8.63 63.95 C20.1 50.73, 32.3 39.87, 61.13 7.28 M7.93 65.23 C25.16 47.21, 39.74 28.15, 59.33 4.64 M11.94 69.84 C26.95 56.24, 43.06 38.62, 65.88 11.59 M13.56 70.72 C27.26 54.65, 41.95 38.32, 66.1 11.67 M19.02 75.3 C30.36 62.34, 42.01 49.49, 73.94 16.78 M19.14 76.96 C39.35 54.38, 58 30.78, 72.88 14.84 M25.83 81.9 C43.42 60.54, 59.33 44.71, 79.13 22.11 M26.76 80.13 C43.15 62.68, 60.23 42.11, 79.24 21.31 M35.45 81.35 C45.59 69.22, 54.62 58.6, 82.62 26.03 M33.64 83.2 C45.97 70.05, 56.92 58.53, 81.64 27.56 M43.98 86.47 C53.16 73.36, 62.63 63.21, 84.95 36.04 M43 86.97 C54.95 72.03, 66.15 59.91, 84.47 37.21 M57.79 83.63 C62.43 77.31, 66.58 71.06, 79.97 53.34 M56.43 82.27 C64.32 74.56, 73 64.83, 81.09 53.56 M16.46 75.57 C16.46 75.57, 16.46 75.57, 16.46 75.57 M16.46 75.57 C16.46 75.57, 16.46 75.57, 16.46 75.57 M37.09 81.63 C27.66 73.88, 18.57 69.51, 4.45 52.61 M37.07 83.5 C26.88 74.68, 17.08 64.72, 4.82 55.27 M45.27 76.67 C29.75 67.1, 15.39 51.41, 4.9 45.8 M43.41 78.91 C36.11 72.54, 27.26 64.5, 3.73 43.53 M54.69 76.47 C43.06 65.75, 28.95 56.66, 1.12 31.49 M54.83 76.98 C42.25 65.99, 30.72 57.14, 3.35 30.96 M65.35 76.54 C47.98 61.17, 31.81 43.67, 7.57 25.33 M64.9 75.64 C47.49 59.65, 29.15 44.78, 5.82 24.4 M70.21 68.91 C50.54 52.1, 31.28 38.32, 10.25 17.96 M70.66 69.51 C48.24 49.72, 26.32 31.79, 8.89 17.34 M74.69 64.69 C61.71 53.31, 49.96 39.83, 14.47 8.83 M75.11 64.42 C60.07 49.71, 44.16 37.23, 14.67 9.62 M79.93 59.55 C68.71 46.15, 54.81 34.96, 22.41 5.65 M81.57 58.84 C61.54 39.17, 41.24 22.51, 22.31 4.85 M84.91 49.21 C64.28 31.25, 47.03 17.97, 27.98 0.49 M82.85 49.28 C62.87 30.75, 44.35 14.72, 29.9 2.48 M86.43 39.89 C71.75 30.59, 59.23 18.91, 34.97 -4.23 M86.3 40.7 C74.06 29.04, 61.87 19.32, 35.71 -2.38 M89.13 33.21 C79.23 21.99, 68 15.84, 49.23 -3.15 M86.87 31.36 C76.59 21.3, 64.99 11.17, 49.36 -2.28" stroke="#40c057" stroke-width="1" fill="none"></path><path d="M55.8 2.38 C62.54 4.31, 69.02 10.24, 73.66 16.01 C78.29 21.78, 82.81 29.42, 83.62 37 C84.44 44.58, 82.13 54.61, 78.56 61.51 C74.99 68.41, 68.69 74.71, 62.2 78.39 C55.72 82.06, 47.24 84, 39.66 83.56 C32.08 83.13, 22.91 80.17, 16.7 75.78 C10.48 71.39, 4.86 64.39, 2.37 57.22 C-0.12 50.05, 0.25 40.26, 1.77 32.74 C3.29 25.23, 6.38 17.3, 11.48 12.13 C16.57 6.97, 24.35 3.08, 32.34 1.76 C40.33 0.44, 54.2 3.22, 59.41 4.22 C64.61 5.21, 63.91 7.22, 63.57 7.73 M35.56 -0.99 C42.52 -2.96, 51.94 -0.7, 58.48 2.81 C65.01 6.32, 70.49 13.49, 74.77 20.09 C79.04 26.69, 83.62 34.99, 84.1 42.41 C84.58 49.84, 81.7 58.44, 77.66 64.64 C73.62 70.83, 66.83 76.73, 59.87 79.58 C52.91 82.42, 43.22 82.78, 35.9 81.68 C28.59 80.58, 21.77 77.78, 15.97 72.98 C10.16 68.19, 3.4 59.95, 1.07 52.88 C-1.26 45.81, -0.18 37.8, 1.98 30.56 C4.14 23.31, 8.49 14.32, 14.01 9.42 C19.53 4.51, 31.57 2.42, 35.1 1.14 C38.62 -0.13, 34.97 1.2, 35.14 1.77" stroke="#000000" stroke-width="2" fill="none"></path></g><g stroke-linecap="round" transform="translate(10 459) rotate(0 41.5 41.5)"><path d="M11.79 12.9 C11.79 12.9, 11.79 12.9, 11.79 12.9 M11.79 12.9 C11.79 12.9, 11.79 12.9, 11.79 12.9 M4.88 33.36 C8.62 29.23, 15.56 21.31, 30.88 2.05 M3.04 33.97 C10.74 26.49, 16.23 19.08, 32.65 2.31 M2.3 45.16 C19.36 29.45, 30.96 16.3, 42.02 2.47 M4.72 46.57 C15.38 33.24, 26.44 21.08, 42.22 2.39 M3.07 58.27 C16.97 45.06, 31.32 28.2, 53.21 4.17 M4.82 58.02 C13.51 46.9, 23.03 35.45, 52.57 2.89 M10.09 64.95 C30.45 43.46, 49.45 19.4, 61.07 6.88 M10.55 64.98 C30.03 42, 47.74 18.51, 60.37 6.79 M12.6 71.29 C24.34 59.06, 37.42 43.43, 67.38 12.92 M15.11 71.17 C31.79 51.59, 49.42 30.43, 66.55 10.46 M20.63 77.95 C30.34 63.59, 45.19 47.7, 73.2 15.86 M20.07 77.15 C32.12 61.01, 45.09 46.23, 74.3 15.34 M25.81 78.35 C42.67 61.05, 61.32 41.67, 80.27 21.45 M28.08 79.56 C39.44 66.92, 48.61 54.46, 80.46 19.94 M35.47 83.34 C46.71 67.67, 62 54.04, 83.05 29.42 M34.94 82.88 C51.81 63.84, 67.47 44.15, 83.44 28.73 M42.58 88.22 C57.55 69.07, 76.15 49.58, 83.96 39.1 M43.51 87.51 C58.96 68.42, 73.77 49.46, 84.45 38.82 M55.09 84.64 C65.22 74.23, 69.59 65.81, 80.94 53.63 M56.87 82.73 C61.88 76.06, 68.23 69.49, 80.98 55.17 M17.93 75.4 C17.93 75.4, 17.93 75.4, 17.93 75.4 M17.93 75.4 C17.93 75.4, 17.93 75.4, 17.93 75.4 M37.03 81.19 C31.3 74.66, 20.76 67.68, 3.24 54.73 M39.7 83.48 C29.89 75.57, 19.54 67.74, 4.27 54.4 M43.51 78.14 C29.89 64.59, 18.78 52.53, 4.92 42.39 M44.57 77.26 C33.57 66.27, 19.63 55.55, 3.68 42.07 M53.48 75.52 C36.56 60.3, 13.73 39.72, 1.25 28.91 M54.98 75.5 C38.61 59.85, 21.55 46.81, 3.67 29.55 M66.54 72.93 C44.94 56, 24.38 41.49, 5.31 23.29 M65.36 73.99 C49.27 60.85, 32.12 46.83, 5.68 22.06 M70.57 68.47 C57.21 57.29, 41.07 43.17, 9.28 18.1 M71.36 67.9 C54.56 54.05, 39.52 40.72, 10.65 16.87 M76.24 62.47 C55.19 43.12, 31.77 25.29, 13.39 7.92 M76.3 62.62 C53.94 43.02, 31.09 24.32, 13.91 8.76 M80.69 55.1 C67.3 46.65, 58.07 33.46, 20.39 6.56 M82.8 56.39 C57.9 35.45, 34.23 15.02, 21.54 4.36 M85.02 46.23 C68.8 35.41, 56.17 20.31, 28.5 1.25 M84.18 47.23 C70.4 34.57, 56.84 23.07, 29.28 1.35 M85.15 36.57 C70.02 22.22, 52.31 11.68, 38.16 -2.88 M83.29 37.19 C70.31 23.79, 54.82 12.6, 37.24 -3.99 M76.14 21.25 C70.9 12.81, 62.91 8.81, 53.95 0.95 M78.73 20.91 C69.06 14.52, 61.19 6.14, 55.73 2.08" stroke="#fab005" stroke-width="1" fill="none"></path><path d="M32.29 1.29 C39.13 -0.71, 48.09 0.63, 55.11 2.9 C62.14 5.17, 69.76 9, 74.47 14.93 C79.19 20.85, 82.64 30.96, 83.41 38.45 C84.18 45.95, 82.7 53.28, 79.08 59.88 C75.45 66.49, 68.17 74.13, 61.65 78.08 C55.14 82.04, 47.26 84.07, 39.98 83.63 C32.69 83.18, 24.23 79.99, 17.96 75.43 C11.7 70.87, 5.26 63.35, 2.38 56.26 C-0.5 49.16, -0.86 40.06, 0.69 32.86 C2.23 25.66, 6.11 18.58, 11.64 13.07 C17.16 7.57, 29.52 1.76, 33.84 -0.15 C38.16 -2.07, 37.19 0.65, 37.53 1.6 M48.18 0.48 C55.08 1.16, 62.09 6.5, 67.58 11.4 C73.06 16.29, 78.62 23.11, 81.09 29.87 C83.57 36.63, 84.4 44.89, 82.44 51.95 C80.47 59.02, 75.07 67.02, 69.28 72.27 C63.48 77.52, 55.35 82.46, 47.66 83.44 C39.97 84.42, 30.08 81.18, 23.14 78.15 C16.19 75.12, 9.62 71.2, 5.99 65.25 C2.35 59.3, 1.37 50.18, 1.34 42.46 C1.3 34.74, 2.14 25.33, 5.76 18.94 C9.38 12.55, 15.96 7.35, 23.05 4.1 C30.14 0.86, 44.35 0.11, 48.28 -0.54 C52.22 -1.19, 46.78 -0.79, 46.67 0.2" stroke="#000000" stroke-width="2" fill="none"></path></g><g stroke-linecap="round" transform="translate(503 469) rotate(0 41.5 41.5)"><path d="M5.93 19.73 C5.93 19.73, 5.93 19.73, 5.93 19.73 M5.93 19.73 C5.93 19.73, 5.93 19.73, 5.93 19.73 M-0.38 38.62 C6.92 29.2, 12.2 24.01, 29.42 5.14 M0.85 38.16 C8.55 28.9, 17.86 19.63, 28.36 6.59 M2.88 47.15 C10.78 36.88, 17.92 30.16, 41.51 6.5 M3.92 46.43 C16.92 31.85, 29.13 16.08, 40.6 4.11 M5.34 53.66 C18.81 39.83, 32.68 23.89, 50.01 4.74 M6.35 55.56 C17.59 41.78, 28.22 30.71, 52.19 2.96 M8.03 66.5 C26.69 45.55, 47.75 23.27, 60.74 7.63 M9.31 66.6 C24.09 48.87, 37.77 31.68, 58.1 7.25 M13.2 70.21 C31.34 54.8, 45.45 36.41, 67.15 10.78 M14.08 70.77 C33.38 49.34, 52.37 28.24, 67.24 10.41 M19.34 75.07 C31.49 61.52, 43.71 49.83, 75.19 16.33 M21.01 76.04 C33.8 60.07, 45.59 46.38, 73.26 15 M29 81.29 C36.12 69.67, 48.78 57.25, 79.34 22.81 M27.23 80.42 C40.2 67.77, 49.99 54.73, 78.55 21.65 M34.78 82.72 C47.16 66.68, 61.05 52.82, 79.17 29.22 M36.64 82.68 C48.08 69.2, 61.16 53.25, 80.7 30.14 M46.89 82.99 C52.87 73.48, 61.8 65.33, 80.85 40.97 M47.39 83.62 C59.68 67.2, 74.8 51.38, 82.02 40.45 M54.46 87.36 C60.4 78.85, 66.45 71, 82.47 53.71 M53.1 86.91 C63.96 76.74, 72.76 64.95, 82.69 53.62 M7.82 65.7 C7.82 65.7, 7.82 65.7, 7.82 65.7 M7.82 65.7 C7.82 65.7, 7.82 65.7, 7.82 65.7 M28.64 73.53 C19.39 64.83, 13.04 58.02, 0.67 50.56 M30.52 74.13 C21.17 66.47, 10.81 59.02, 3.32 51.15 M48.1 81.61 C32.99 66.2, 11.68 49.99, 3.69 37.23 M50.33 81.14 C35.1 66.47, 18.6 53.22, 1.42 38.64 M57.51 78.88 C38.78 61.44, 22.13 43.44, 3.56 29.16 M58.02 77.29 C38.73 62.65, 22.5 47.29, 3.03 30.51 M67.29 74.4 C49.65 60.18, 29.28 43.8, 7.73 22.66 M66.39 74.41 C48.49 58.82, 31.58 42.63, 6.8 22.6 M72.56 68.77 C48.24 47.81, 27.35 29.4, 11.35 15.64 M73.16 69.45 C48.77 48.46, 25.78 27.32, 10.73 13.57 M78.11 60.48 C64.85 48.98, 48.49 38.16, 15.67 8.8 M77.84 62.03 C58.08 44.93, 40.39 30.01, 16.46 9.14 M82.85 56.51 C65.28 41.95, 49.99 27.34, 22.56 5.14 M82.13 56.01 C58.66 36.27, 37.14 17.06, 21.77 4.66 M86.32 47.73 C64.62 31.33, 46.82 13.71, 27.48 0.38 M86.39 47.95 C73.52 38.62, 62.78 28.49, 29.46 -1.38 M84.11 35.54 C74.68 26.55, 63.26 16.84, 36.6 -4.39 M84.93 36.9 C70.22 24.63, 56.8 12.67, 38.45 -3.69 M85.31 26.26 C73.61 17.5, 67.4 12.27, 49.1 -3.94 M83.46 25.74 C76.31 19.39, 69.32 14.03, 49.97 -4.27" stroke="#fab005" stroke-width="1" fill="none"></path><path d="M46.68 -0.34 C53.9 0.03, 62.44 5.49, 68.03 10.45 C73.62 15.42, 77.86 22.4, 80.22 29.44 C82.59 36.49, 83.92 45.51, 82.21 52.74 C80.51 59.97, 75.58 67.98, 70 72.85 C64.42 77.73, 56.14 80.97, 48.74 82.01 C41.34 83.04, 32.45 81.82, 25.59 79.06 C18.73 76.31, 11.94 71.67, 7.58 65.49 C3.22 59.32, -0.26 49.59, -0.57 42 C-0.88 34.42, 1.57 26.29, 5.71 19.97 C9.85 13.66, 16.28 7.02, 24.27 4.14 C32.26 1.26, 47.61 2.57, 53.65 2.68 C59.68 2.8, 60.8 4.36, 60.48 4.81 M38.25 0.04 C45 -1.14, 54.68 0.22, 61.59 4.17 C68.51 8.12, 76.01 16.66, 79.75 23.75 C83.48 30.84, 84.8 39.31, 84 46.71 C83.2 54.11, 79.73 62.48, 74.95 68.16 C70.18 73.84, 62.74 78.29, 55.35 80.79 C47.96 83.3, 37.94 85.12, 30.6 83.21 C23.25 81.29, 16.35 74.92, 11.27 69.31 C6.19 63.7, 1.42 56.8, 0.12 49.55 C-1.17 42.3, 0.75 32.84, 3.51 25.81 C6.26 18.78, 10.52 11.73, 16.66 7.38 C22.81 3.04, 36.46 0.81, 40.39 -0.25 C44.32 -1.31, 40.32 0.36, 40.23 1.03" stroke="#000000" stroke-width="2" fill="none"></path></g><g stroke-linecap="round" transform="translate(126 462) rotate(0 41.5 41.5)"><path d="M20.82 4.85 C20.82 4.85, 20.82 4.85, 20.82 4.85 M20.82 4.85 C20.82 4.85, 20.82 4.85, 20.82 4.85 M11.01 28.07 C14.95 24.04, 19.83 19.54, 32.35 3.1 M10.78 29.51 C20.03 19.11, 28.09 7.57, 33.3 1.01 M2.8 51.07 C19.42 32.54, 32.33 16.47, 45.71 -0.6 M2.83 49.46 C16.81 34.99, 29.5 20.94, 46.21 0.92 M5.93 57.28 C22.16 41.88, 35.97 21.9, 51.58 2.98 M7.3 57.96 C16.98 45.94, 26.29 35.16, 52.88 3.39 M12.1 65.41 C27.05 47.17, 41.5 29.83, 60.46 5.75 M10 65.45 C28.99 45.38, 43.95 25.93, 61.6 7.97 M16.78 73.49 C25.58 60.53, 38.33 44.49, 67.85 9.65 M14.59 73.47 C27.87 58.32, 41.59 42.09, 69.14 11.59 M20.67 76.27 C30.85 66.42, 42.97 53.23, 72.22 18.26 M21.9 77.11 C35.09 61.62, 48.88 46.06, 72.72 17.2 M29.15 80.93 C47.34 57.42, 65.63 39.22, 77.02 23.86 M29.45 81.78 C46.9 58.9, 65.04 39.22, 77.87 23.93 M40.25 79.87 C53.55 65.26, 69.33 44.05, 84.77 28.66 M39.27 81.09 C47.34 71.39, 58.48 58.96, 84.56 29.37 M46.78 83.88 C60.48 68.3, 76.36 54.29, 85.19 38.64 M47.99 83.07 C57.35 71.28, 69.14 59.84, 85.16 40.44 M54.98 88.53 C61.32 78.85, 67.91 70.36, 84.34 50.85 M55.41 87.61 C61.33 79.24, 68.15 71.7, 85.63 51.81 M9.94 67.83 C9.94 67.83, 9.94 67.83, 9.94 67.83 M9.94 67.83 C9.94 67.83, 9.94 67.83, 9.94 67.83 M31.37 77.87 C23.61 66.09, 14.15 58.97, 0.61 47.84 M32.02 75.53 C22.28 69.45, 14.23 61.02, 1.04 49.4 M46.9 76.75 C29.21 65.68, 14.42 50.02, 4.11 40.3 M45.92 76.74 C34.23 68.07, 26.05 60.43, 3.49 41.34 M55.8 74.74 C41.73 60.94, 22.35 47.48, 6.25 31.94 M56.82 76.38 C39.51 62.6, 21.59 46.92, 5.91 32.7 M63.15 70.31 C52.78 58.72, 36.07 49.83, 4.65 22.02 M63.21 72.61 C41.63 54.04, 21.5 36.71, 6.8 21.57 M70 67.91 C47.89 48.51, 27.65 30.86, 12.01 16.1 M70.94 69.03 C53.73 54.22, 36.88 37.77, 10.59 15.31 M77.14 63.5 C63.93 51.71, 52.02 38.58, 17.66 9.56 M76.91 61.29 C56.92 45.29, 37.97 28.35, 17.09 9.23 M80.11 56.29 C58.01 37.4, 37.99 17.5, 21.01 2 M80.02 53.87 C56.53 35.19, 35.36 15.85, 20.87 3.98 M82.73 46.79 C61.6 29.43, 39.69 11.18, 29.43 2.57 M84.67 47.2 C69.09 34.01, 52.95 20.28, 31.12 2 M80.95 36.9 C65.59 21.87, 48.72 8.85, 39.06 -0.61 M82.49 34.82 C66.3 21.75, 50.01 8.25, 40.34 -0.05 M82.39 21.52 C67.86 13.76, 55.76 3.34, 48.2 -4.58 M79.87 24.02 C73.82 16.18, 64.87 10.27, 47.71 -6.33" stroke="#40c057" stroke-width="1" fill="none"></path><path d="M42.91 -0.71 C50.03 -1, 58.67 3.12, 64.73 7.44 C70.78 11.76, 76.24 18.27, 79.24 25.19 C82.24 32.11, 84.04 41.61, 82.7 48.97 C81.37 56.33, 76.49 63.8, 71.23 69.35 C65.96 74.9, 58.34 80.48, 51.1 82.28 C43.87 84.08, 34.65 82.54, 27.81 80.14 C20.96 77.75, 14.77 73.61, 10.04 67.92 C5.32 62.24, 0.34 53.36, -0.55 46.03 C-1.43 38.7, 1.18 30.79, 4.73 23.94 C8.29 17.08, 14.06 8.77, 20.79 4.89 C27.52 1.01, 40.67 1.15, 45.12 0.67 C49.57 0.19, 47.6 1.48, 47.48 2.03 M37.86 -1.39 C44.75 -2.23, 53.33 2.18, 59.95 5.97 C66.57 9.76, 73.7 15.17, 77.57 21.36 C81.44 27.56, 83.5 35.67, 83.17 43.12 C82.83 50.57, 80.11 59.77, 75.54 66.06 C70.97 72.36, 62.72 78.16, 55.74 80.91 C48.76 83.65, 40.86 84.1, 33.65 82.55 C26.45 81, 18.13 76.76, 12.52 71.61 C6.91 66.46, 1.83 58.89, -0.02 51.65 C-1.87 44.4, -1.45 35.16, 1.43 28.15 C4.32 21.13, 11.1 14.41, 17.29 9.55 C23.48 4.68, 34.96 0.51, 38.57 -1.03 C42.17 -2.58, 38.99 -0.86, 38.91 0.27" stroke="#000000" stroke-width="2" fill="none"></path></g><g stroke-linecap="round" transform="translate(575 129) rotate(0 41.5 41.5)"><path d="M8.5 16.66 C8.5 16.66, 8.5 16.66, 8.5 16.66 M8.5 16.66 C8.5 16.66, 8.5 16.66, 8.5 16.66 M1.57 37.32 C8.74 25.8, 20.16 18.91, 27.25 5.49 M1.11 37.44 C12.34 25.88, 23.54 13.32, 28.7 4.31 M7.22 42.95 C14.5 32.47, 25.32 23.95, 42.84 4.82 M6.5 44.09 C20.05 28.18, 32.38 13.17, 40.45 3.71 M6.81 52.64 C25.53 33.69, 42.15 12.24, 54.47 0.36 M8.71 53.68 C25.05 33.48, 44.11 14.01, 52.7 2.23 M9.9 64.35 C28.87 45.75, 46.5 25.26, 60.32 5.79 M10 65.22 C19.89 51.49, 30.28 39.08, 59.94 5.89 M14.41 71.57 C30.57 54.66, 43.69 38.98, 66.42 11.64 M14.96 69.93 C26.79 56.85, 38.98 43.94, 66.05 9.69 M20.8 73.56 C33.33 60.04, 47.72 48.37, 74.92 13.78 M21.77 75.43 C37.54 54.85, 55.62 35.5, 73.6 14.03 M27.16 79.85 C44.35 62.35, 60.71 44.19, 77.96 21.04 M26.29 82.2 C37.4 68.36, 48.14 58.06, 76.8 22.3 M35.78 81.63 C49.5 65.76, 65.43 47.05, 80.17 29.51 M35.74 82.86 C51.39 66.46, 64.48 48.94, 81.1 29.09 M45.3 83.19 C58.74 68.02, 73.62 49.71, 86.12 38.24 M45.93 83.57 C53.91 74.57, 62.54 62.94, 85.6 35.8 M61.15 79.7 C68.37 69.52, 76.25 58.32, 85.64 50.63 M60.7 79.77 C67.48 72.22, 72.65 64.38, 85.55 50.05 M22.72 77.51 C22.72 77.51, 22.72 77.51, 22.72 77.51 M22.72 77.51 C22.72 77.51, 22.72 77.51, 22.72 77.51 M40.24 81.48 C32.91 78.51, 27.54 69.05, 9.94 56.34 M40.84 83.16 C30.87 73.38, 21.27 66.39, 10.53 56.54 M48.75 79.9 C35.26 64.69, 21.4 56.36, -0.44 38.3 M48.27 79.35 C31.55 64.3, 15.44 50.03, 0.97 38.34 M58.35 75.12 C38.63 61.27, 18.64 43.34, 3.14 30.49 M56.77 74.5 C36.24 58.37, 15.71 38.75, 4.48 29.92 M67.82 75.21 C54.16 60.51, 38.74 49.53, 7.63 21.84 M67.82 73.9 C50.08 60.03, 32.04 44.17, 7.57 22.58 M71.5 66.28 C50.55 50.71, 31.91 32.95, 11.6 15.44 M72.18 66.91 C55.9 53.81, 39.49 40.36, 9.53 13.18 M75.82 62.92 C64.21 49.62, 52.6 38.52, 16.24 9.33 M77.37 61.28 C60.04 47.69, 44.03 31.77, 16.58 8.93 M83.04 55.15 C65.76 40.97, 47.35 23.77, 23.97 5.41 M82.53 54.09 C70.49 44.83, 58.64 33.14, 23.49 4.23 M81.67 43.07 C69.77 34.83, 57.45 23, 31.34 -2.75 M81.89 44.34 C69.66 33.78, 56.13 21.76, 29.58 -1.62 M82.14 36.14 C67.32 22.52, 52.13 7.24, 39.2 -2.47 M83.5 34.11 C72.76 26.07, 62.94 18.21, 39.91 -2.99 M87.88 25.94 C73.56 17.54, 63.19 5.92, 53.24 -3.79 M87.36 27.31 C76.32 17.34, 65.69 8.08, 52.91 -1.87" stroke="#40c057" stroke-width="1" fill="none"></path><path d="M26.43 2.48 C32.96 -0.68, 43.74 -1.66, 51.21 0.09 C58.68 1.83, 66.07 7.35, 71.25 12.93 C76.43 18.51, 80.72 26.27, 82.32 33.57 C83.91 40.87, 83.56 49.75, 80.81 56.73 C78.06 63.72, 71.97 71, 65.82 75.46 C59.66 79.92, 51.09 83.2, 43.87 83.5 C36.64 83.81, 28.98 81.08, 22.47 77.29 C15.96 73.51, 8.48 67.16, 4.81 60.8 C1.13 54.43, -0.19 46.43, 0.42 39.09 C1.02 31.75, 2.68 22.97, 8.43 16.74 C14.18 10.5, 29.51 4.4, 34.92 1.66 C40.33 -1.08, 40.97 -0.18, 40.89 0.32 M56.99 2.18 C63.51 4.74, 69.34 12.32, 73.86 18.75 C78.37 25.19, 83.29 33.38, 84.06 40.8 C84.83 48.21, 82.28 56.91, 78.49 63.25 C74.7 69.6, 68.15 75.76, 61.32 78.86 C54.49 81.97, 44.86 82.67, 37.51 81.87 C30.16 81.06, 23.21 78.58, 17.22 74.01 C11.23 69.44, 4.18 61.4, 1.57 54.42 C-1.04 47.44, -0.31 39.44, 1.57 32.12 C3.44 24.8, 7.49 15.63, 12.81 10.51 C18.14 5.39, 26.19 2.59, 33.5 1.42 C40.82 0.25, 52.81 3.09, 56.7 3.48 C60.59 3.87, 57.12 3.3, 56.84 3.75" stroke="#000000" stroke-width="2" fill="none"></path></g><g stroke-linecap="round" transform="translate(10 340) rotate(0 41.5 41.5)"><path d="M8.19 17.72 C8.19 17.72, 8.19 17.72, 8.19 17.72 M8.19 17.72 C8.19 17.72, 8.19 17.72, 8.19 17.72 M0.46 39.11 C7.73 32.58, 11.2 25.3, 27.15 4.73 M0.35 38.99 C8.76 30.24, 16.43 18.86, 29.12 5.82 M6.45 44.08 C18.12 28.25, 32.22 15.55, 41.38 5.1 M5.1 44.28 C19.42 30.06, 32.81 13.86, 41.6 3.93 M7.41 56.39 C23.67 34.47, 39.83 18.71, 53.53 2.67 M8.2 53.75 C22.4 38.25, 37.57 20.97, 53.02 3.74 M9.52 65.04 C27.52 43.17, 43.97 24.56, 60.42 8.88 M10.21 64.28 C27.13 46.09, 43.69 26, 59.94 7.85 M17.35 70.73 C33.72 47.7, 50.32 28.51, 66.87 10.25 M16.37 71.08 C29.77 53.94, 43.74 37.68, 66.65 10.04 M20.78 74.91 C36.57 57.86, 52.51 38.23, 74.64 15.58 M21.38 75.73 C32.56 63.45, 45.93 47.71, 73.97 15.62 M26.79 83.46 C48.39 60.75, 67.31 34.46, 78.38 21.31 M25.21 82.97 C39.97 66.91, 54.15 50.36, 79.22 21.79 M35.52 85.13 C49.32 67.35, 63.69 51.38, 84.3 30.37 M35.03 84.17 C52.8 64.71, 71.31 42.79, 82.76 29.58 M44.47 86.45 C55.31 70.23, 67.27 56.64, 86.93 37.8 M45.4 85.34 C60.46 67.56, 72.97 51.24, 86.72 36.55 M62.35 78.3 C65.67 72.88, 73.92 68.07, 79.34 56.51 M62.02 76.71 C68.27 68.62, 76.03 61.34, 81.16 55.58 M22.02 78.32 C22.02 78.32, 22.02 78.32, 22.02 78.32 M22.02 78.32 C22.02 78.32, 22.02 78.32, 22.02 78.32 M38.03 80.54 C28.37 74.04, 19.94 67.12, 10.21 57.55 M38.42 82.38 C28.07 72.81, 18.63 64.1, 8.61 57.16 M48.01 79.71 C32.32 65.59, 18.82 52.17, 0.35 36.98 M47.54 79.24 C32.21 66.85, 15.19 51.04, 1.63 39.62 M55.9 76.04 C37.95 60.23, 19.62 44.12, 2.67 30 M56.02 76.68 C37.04 60.18, 15.26 40.94, 4 30.21 M63.73 73.39 C48.52 60.91, 34.19 46.31, 7.76 23.23 M63.7 73.33 C46.4 57.57, 30.64 43.67, 7.28 22.77 M71.11 70.45 C51.19 52.19, 35.72 37.11, 10.27 16.3 M71.49 68.98 C46.56 47.41, 23.87 25.3, 10.05 15.98 M74.79 60.17 C64.23 50.25, 48.99 40.71, 16.88 10.6 M77 60.99 C61.82 49, 46.94 35.64, 15.9 9.21 M81.12 56.19 C60.34 36.31, 40.73 20.69, 21.93 4.68 M80.87 53.84 C62.59 39.55, 45.02 23.51, 22.96 4.91 M80.36 43.65 C59.93 26.2, 39.43 9.83, 29.84 -0.56 M81.03 44.93 C61.54 27.47, 40.98 10.61, 30.23 -1.05 M80.83 35.68 C66.35 23.97, 53.75 10.29, 41.25 -1.29 M82.81 34.21 C70.36 24.53, 56.59 13.01, 39.72 -1.82 M87.59 27.38 C72.37 14.72, 59.13 6.05, 53.29 -1.28 M85.46 27.18 C78.44 21.21, 71.01 15.2, 52.6 -0.96" stroke="#fab005" stroke-width="1" fill="none"></path><path d="M49.71 1.23 C56.99 2.33, 65.79 7.38, 71.24 12.42 C76.68 17.46, 80.96 24.33, 82.36 31.44 C83.76 38.55, 82.09 47.99, 79.62 55.07 C77.15 62.15, 73.38 69.15, 67.55 73.93 C61.72 78.71, 52.24 83.03, 44.64 83.75 C37.04 84.48, 28.56 82.07, 21.97 78.28 C15.37 74.48, 8.78 67.43, 5.09 60.99 C1.4 54.54, -0.76 46.87, -0.2 39.6 C0.37 32.33, 4.18 23.36, 8.5 17.37 C12.81 11.38, 18.66 6.37, 25.69 3.68 C32.73 0.99, 46.1 1.48, 50.69 1.24 C55.28 0.99, 53.16 1.67, 53.24 2.22 M29.91 3.12 C36.41 0.51, 44.59 0.65, 51.78 2.15 C58.97 3.64, 67.76 6.43, 73.06 12.08 C78.35 17.73, 82.33 28.43, 83.56 36.04 C84.78 43.64, 83.58 50.94, 80.43 57.69 C77.28 64.45, 71.04 72.28, 64.65 76.54 C58.26 80.81, 49.45 83.25, 42.09 83.3 C34.73 83.35, 26.58 80.88, 20.49 76.82 C14.4 72.77, 8.95 65.59, 5.57 58.94 C2.18 52.3, -0.58 44.11, 0.17 36.93 C0.93 29.74, 5.12 21.61, 10.11 15.85 C15.11 10.08, 26.96 4.32, 30.14 2.33 C33.32 0.35, 29.17 3.09, 29.18 3.91" stroke="#000000" stroke-width="2" fill="none"></path></g><g stroke-linecap="round" transform="translate(503 350) rotate(0 41.5 41.5)"><path d="M8.8 16.92 C8.8 16.92, 8.8 16.92, 8.8 16.92 M8.8 16.92 C8.8 16.92, 8.8 16.92, 8.8 16.92 M-0.7 38.61 C8.02 29.59, 21.32 15.06, 29.45 7.29 M-0.58 40.11 C8.38 31.13, 16.34 20.8, 28.27 5.22 M1.04 48.33 C11.91 37.44, 24.68 26.49, 41.61 6.52 M2.17 49.56 C11.63 36.97, 21.95 26.07, 40.5 5.62 M3.05 58.92 C18.24 42.33, 30.85 28.13, 50.73 5.75 M4.09 58.21 C17.37 44.27, 31.33 27.63, 52.61 4.51 M8.85 66.95 C26.33 48.71, 41.89 29.72, 59.02 5.88 M9.72 64.99 C20.37 50.24, 32.38 36.27, 59.12 7.43 M16.21 72.18 C27.73 57.36, 40.44 42.61, 67.73 10.04 M14.57 71.16 C32.51 51.59, 50.58 30.39, 65.77 10.87 M18.99 76.09 C37.12 58.31, 57.03 38.44, 72.72 15.75 M20.86 75.92 C38.91 54.79, 58.17 32.61, 72.98 15.46 M24.66 83.32 C39.79 67.28, 54.32 51.29, 76.54 20.81 M27.01 82.88 C41.62 64.37, 59.77 43.82, 77.8 22.98 M33.53 83.2 C51.36 65.2, 66.28 44.93, 82.22 29.85 M34.75 84.71 C45.03 71.62, 54.19 60.77, 81.8 29.92 M45.65 82.74 C61.84 66.09, 74.9 48.15, 88.92 34.52 M46.03 83.14 C60.98 66.69, 73.36 50.08, 86.49 36.78 M63.35 76.42 C72.69 64.6, 81.01 55.69, 86.58 48.93 M63.43 77.84 C71.69 66.82, 79.65 57.76, 86 50.48 M22.63 79.14 C22.63 79.14, 22.63 79.14, 22.63 79.14 M22.63 79.14 C22.63 79.14, 22.63 79.14, 22.63 79.14 M35.79 79.79 C30.11 73.37, 17.66 65.72, 9.62 57.14 M37.46 81.09 C26.74 73.52, 19.28 65.79, 9.82 56.62 M48.81 80.33 C29.77 65.85, 16.78 48.94, 0.33 39.18 M48.25 78.74 C37.12 70.24, 27.05 61.59, 0.37 38.67 M56.46 77.04 C40.89 60.44, 21.24 45.57, 4.27 32.75 M55.84 77.32 C37.35 60.29, 15.85 42.52, 3.7 30.3 M66.26 75.23 C43.89 57.64, 26.08 39.73, 6.61 22.59 M64.95 73.59 C46.26 56.54, 26.25 40.76, 7.35 23.18 M70.13 67.38 C55.86 54.28, 38.98 39.79, 11.95 14.71 M70.75 68.32 C53.28 51.79, 35.29 35.32, 9.69 14.63 M78.06 61.79 C61 50.06, 46.75 36.09, 17.33 10.51 M76.41 61.96 C63.66 51.54, 49.45 38.61, 16.93 10.84 M81.47 57.14 C70.51 46.85, 57.25 36.43, 24.79 3.54 M80.42 56.35 C65.45 43.35, 48.71 29.17, 23.61 4.66 M80.09 45.23 C62.45 27.49, 41.36 12.78, 28.11 -0.07 M81.36 46.45 C69.5 35.01, 56.53 22.37, 29.24 1.11 M83.85 34.74 C68.81 21.53, 51.97 9.19, 40.37 -2.24 M81.82 35.21 C66.2 21.46, 51.09 8, 39.85 -0.17 M84.74 27.36 C74.07 18.56, 60.69 7.01, 50.57 -0.24 M86.11 28.71 C79.15 23.35, 72.75 16.07, 52.49 -1.18" stroke="#fab005" stroke-width="1" fill="none"></path><path d="M49.9 1.66 C56.83 2.71, 64.26 7.09, 69.73 12.25 C75.19 17.41, 80.75 25.28, 82.68 32.6 C84.6 39.92, 83.85 49.25, 81.28 56.16 C78.71 63.07, 73.23 69.69, 67.26 74.06 C61.29 78.43, 52.92 81.56, 45.46 82.39 C38 83.22, 29.3 82.52, 22.5 79.03 C15.7 75.55, 8.48 68.1, 4.66 61.46 C0.84 54.82, -1.09 46.58, -0.41 39.17 C0.27 31.76, 4.2 22.9, 8.75 16.98 C13.3 11.06, 19.47 6.29, 26.89 3.66 C34.31 1.03, 48.78 1.39, 53.26 1.21 C57.74 1.03, 54.13 1.76, 53.77 2.59 M44.28 -1.33 C51.86 -1.11, 61.9 4.77, 68.15 9.77 C74.41 14.77, 79.36 21.68, 81.81 28.68 C84.26 35.69, 84.69 44.7, 82.86 51.81 C81.03 58.91, 76.52 66.01, 70.84 71.31 C65.15 76.61, 56.17 82.24, 48.76 83.6 C41.34 84.96, 33.24 82.36, 26.33 79.46 C19.42 76.57, 11.61 72.19, 7.31 66.24 C3.01 60.28, 1 51.29, 0.53 43.73 C0.06 36.16, 0.75 27.39, 4.47 20.85 C8.19 14.31, 16 7.91, 22.85 4.49 C29.71 1.07, 41.89 0.97, 45.58 0.32 C49.27 -0.33, 45.27 -0.16, 45.01 0.57" stroke="#000000" stroke-width="2" fill="none"></path></g><g stroke-linecap="round" transform="translate(126 343) rotate(0 41.5 41.5)"><path d="M11.25 12.43 C11.25 12.43, 11.25 12.43, 11.25 12.43 M11.25 12.43 C11.25 12.43, 11.25 12.43, 11.25 12.43 M1.96 33.83 C10.14 26.22, 17.76 17.12, 33.68 2.17 M3.4 34.85 C15.38 20.17, 26.13 6.65, 31.6 0.79 M5.41 46.78 C12.06 35.54, 21.16 26.65, 36.81 5.67 M3.8 45.82 C11.72 37.07, 20.08 28.92, 38.33 5.72 M3.49 57.89 C14.5 46.18, 20.98 33.9, 47.38 4.48 M4.16 57.89 C15.31 43.45, 27.72 29.34, 47.79 6.32 M9.49 64.12 C20.74 49.32, 32.84 35.15, 58.45 6.13 M9.53 64.55 C19.88 50.38, 30.84 38.6, 60.68 4.69 M14.78 68.68 C26.27 56.55, 34.74 43.81, 65.31 8.99 M14.75 69.47 C27.25 55.95, 38.64 42.97, 67.25 9.06 M18.45 74.54 C33.56 61.63, 45.36 46.22, 73.19 14.54 M19.28 75.86 C33.08 60.19, 46.86 44.32, 72.13 16.02 M27.38 79.37 C45.13 56.18, 68.25 32.31, 78.83 21.85 M28.22 79.39 C45.66 56.84, 66.29 33.94, 78.91 20.96 M32.94 81.66 C47.36 68.85, 55.15 58.19, 81.04 26.93 M34.16 82.26 C51.43 65.26, 65.98 46.21, 81.75 29.33 M42.17 86.31 C53.37 76.09, 66.07 61.35, 82.59 37.85 M41.36 86.72 C53.6 74.28, 66.12 58.39, 84.39 37.71 M57 82.73 C60.57 76.25, 65.35 69.19, 78.3 54.13 M56.07 83.07 C62.4 75.12, 69.56 66.9, 79.27 55.13 M16.72 73.75 C16.72 73.75, 16.72 73.75, 16.72 73.75 M16.72 73.75 C16.72 73.75, 16.72 73.75, 16.72 73.75 M40.22 83.71 C26.14 74.48, 16.65 63.11, 3.87 52.79 M37.87 81.31 C26.94 71.57, 14.08 61.83, 5.44 53.86 M47.69 79.09 C32.04 64.78, 12.38 51.25, 3.56 40.82 M47.69 79.13 C32.16 68.02, 18.04 53.53, 4.59 42.32 M55.49 78.85 C44.49 66.21, 34.3 57.48, 3.06 31.49 M57.14 77.48 C40.32 61.12, 21.49 45.85, 3.82 29.98 M63.3 75.21 C50.72 61.04, 41.16 50.87, 7.52 24.51 M65.61 72.4 C42.2 53.38, 20.5 35.3, 7.07 24.16 M70.31 66.88 C54.1 55.25, 40.47 40.32, 10.62 15.25 M71.44 67.59 C54.96 53.85, 37.59 38.18, 9.83 14.49 M77.85 62.38 C59.15 47.1, 38.21 30.39, 14.6 9.23 M75.64 61.7 C63.86 51.65, 51.11 40.5, 14.28 9.26 M83.24 54.8 C66.21 40.69, 47.14 24.82, 19.84 5.55 M80.82 55.03 C57.46 35.62, 33.83 14.01, 21.83 4.92 M82.66 45.89 C66.09 28.63, 47.7 12.74, 30.68 -0.32 M83.08 47.53 C65.78 31.72, 47.88 16.74, 30.11 0.67 M86.09 36.65 C67.43 20.77, 51.41 6.21, 37.12 -2.58 M84.01 37.33 C67.8 22.92, 51.78 8.77, 37.67 -3.53 M75.82 20.17 C69.91 12.72, 61.1 6.08, 50.67 -5.13 M78.33 21.59 C67.01 11.53, 57.91 3.82, 48.92 -3.14" stroke="#40c057" stroke-width="1" fill="none"></path><path d="M32.25 0.49 C39.13 -1.63, 49.31 -0.64, 56.36 2.15 C63.41 4.94, 70.08 11.23, 74.54 17.23 C78.99 23.23, 82.61 30.88, 83.08 38.16 C83.56 45.45, 80.96 54.4, 77.39 60.94 C73.83 67.48, 68.35 73.63, 61.7 77.42 C55.04 81.22, 44.97 84.3, 37.47 83.69 C29.98 83.08, 22.53 78.35, 16.71 73.74 C10.89 69.14, 5 62.89, 2.54 56.08 C0.09 49.27, 0.49 40.2, 1.97 32.89 C3.45 25.58, 5.57 17.52, 11.42 12.24 C17.28 6.95, 32.16 3.08, 37.1 1.17 C42.05 -0.74, 41.15 0.28, 41.09 0.8 M32.84 -0.84 C39.98 -2.58, 51.35 -0.32, 58.45 2.87 C65.55 6.05, 71.57 11.91, 75.43 18.27 C79.29 24.64, 81.39 33.67, 81.61 41.06 C81.83 48.45, 80.29 56.18, 76.76 62.62 C73.22 69.06, 66.97 76.29, 60.4 79.71 C53.84 83.12, 44.75 84.29, 37.37 83.13 C29.98 81.96, 21.75 77.71, 16.09 72.72 C10.43 67.74, 5.67 60.06, 3.41 53.22 C1.15 46.38, 0.64 38.71, 2.52 31.67 C4.39 24.64, 9.54 16.11, 14.66 10.98 C19.77 5.86, 30 2.63, 33.2 0.91 C36.39 -0.81, 33.26 0.15, 33.81 0.66" stroke="#000000" stroke-width="2" fill="none"></path></g><g stroke-linecap="round" transform="translate(575 10) rotate(0 41.5 41.5)"><path d="M3.87 24.56 C3.87 24.56, 3.87 24.56, 3.87 24.56 M3.87 24.56 C3.87 24.56, 3.87 24.56, 3.87 24.56 M1.11 37.11 C8.94 34.27, 11.25 26.39, 26.72 11.86 M2.62 39.53 C9.79 31.57, 15.61 21.9, 24.65 12.21 M1.85 49.25 C12.96 40.28, 24.05 28.88, 46.56 0.94 M3.07 49.96 C13.09 37.28, 24.84 23.91, 45.66 1.78 M6.07 58.24 C15.8 45.36, 27.89 34.15, 54.57 4.36 M5.36 58.28 C17.64 46.26, 27.24 33.73, 53.34 4.91 M12.17 67.49 C25.66 51.58, 38.45 33.35, 58.97 6.71 M10.21 65.27 C29 42.35, 48.66 20.59, 60.53 7.18 M16.12 73.08 C28.15 58.5, 40.22 44.19, 67.4 11.5 M15.1 72.91 C29.56 57.53, 42.38 39.64, 68.23 11.02 M21.48 75.91 C34.21 66.71, 44.84 51.53, 74.1 18.66 M21.31 76.39 C36.57 59.77, 50.83 42.28, 73.8 17.18 M30.06 81.57 C49.04 60.53, 68.11 35.09, 77.02 23.9 M29.62 80.02 C45.1 63.94, 58.54 45.58, 79.19 23.99 M35.15 84.7 C46.07 72.01, 54.74 61.61, 84.68 27.64 M36.66 85.45 C49.74 67.89, 65.12 50, 84.76 30.25 M46.11 85.59 C59.51 69.14, 71.64 57.64, 84.71 40.13 M46.51 86.25 C61.5 67.16, 76.38 48.83, 86.96 40.31 M56.5 86.15 C65.18 73.76, 76.8 63.1, 85.69 52.52 M57.92 85.8 C63.22 77.41, 70.53 69.52, 87.25 51 M10.48 68.73 C10.48 68.73, 10.48 68.73, 10.48 68.73 M10.48 68.73 C10.48 68.73, 10.48 68.73, 10.48 68.73 M31.9 79.61 C25.57 69.08, 17.85 64.83, 2.58 51.42 M33.19 76.93 C21.64 68.42, 9.95 58.06, 2.06 51.36 M47.43 77.4 C38.66 73.85, 27.64 64.91, 6.11 41.08 M45.84 78.74 C32.29 67.03, 18.56 55.79, 5.6 43.18 M57.43 79.36 C39.99 63.97, 25.13 51.8, 8.5 35.04 M57.72 78.35 C39.99 60.92, 21.73 46.51, 6.06 33.92 M65.79 71.86 C43.02 55.09, 20.3 35.31, 5.56 22.83 M64.16 73.64 C41.98 54.61, 21.84 37.27, 6.15 22.07 M69.43 69.3 C56 55.48, 40.7 41.99, 10.27 16.31 M70.37 68.31 C53.17 53.66, 35.83 37.36, 10.2 15.64 M76.64 62.23 C57.07 44.19, 34.25 26.82, 16.81 9.33 M76.8 63.99 C55.33 43, 31.09 23.08, 17.14 9.88 M82.42 57.36 C60.34 37.24, 38.64 20.29, 20.46 4.21 M81.63 56.15 C60.61 36.19, 38.88 19.16, 21.58 5.59 M82.71 47.54 C66.02 31.19, 51.78 16.14, 29.85 0.41 M83.93 48.05 C67 32.37, 47.95 15.5, 31.03 1.83 M79.9 35.25 C67.93 22.78, 56.27 14.24, 37.39 -0.57 M80.37 34.11 C65.79 21.73, 51.46 8.52, 39.47 -1.35 M79.08 23.75 C67.97 11.28, 54.29 -1.23, 47.04 -7.96 M80.42 23.08 C71.73 15.43, 61.16 7.07, 46.09 -5.64" stroke="#40c057" stroke-width="1" fill="none"></path><path d="M41.96 -0.88 C49.23 -1.39, 57.76 2.84, 63.99 7.11 C70.23 11.39, 76.17 17.99, 79.36 24.76 C82.54 31.52, 84.21 40.33, 83.09 47.72 C81.96 55.11, 77.62 63.42, 72.61 69.11 C67.6 74.79, 59.94 79.88, 53.02 81.83 C46.09 83.78, 38.21 83.07, 31.07 80.83 C23.92 78.6, 15.18 73.83, 10.13 68.42 C5.08 63.02, 1.84 55.66, 0.77 48.38 C-0.3 41.1, 0.55 31.52, 3.7 24.75 C6.86 17.97, 12.78 11.91, 19.72 7.74 C26.67 3.56, 40.42 0.71, 45.39 -0.31 C50.35 -1.33, 49.42 0.8, 49.51 1.6 M20.65 6.07 C26.84 2.58, 38.27 0.77, 46.15 1.36 C54.03 1.94, 62.04 5.14, 67.93 9.58 C73.81 14.02, 79.11 21.27, 81.45 28 C83.78 34.73, 83.54 42.76, 81.94 49.96 C80.34 57.16, 77.33 65.92, 71.84 71.19 C66.36 76.46, 56.55 80.01, 49.05 81.58 C41.55 83.16, 33.7 83.41, 26.83 80.64 C19.96 77.87, 12.33 71, 7.83 64.98 C3.34 58.97, 0.32 51.78, -0.14 44.55 C-0.6 37.32, 1.34 28.21, 5.08 21.58 C8.82 14.95, 19.46 7.57, 22.3 4.78 C25.14 1.98, 21.74 4.44, 22.11 4.82" stroke="#000000" stroke-width="2" fill="none"></path></g><g stroke-linecap="round"><g transform="translate(259 465) rotate(0 101.33400376066567 -0.5234044320042699)"><path d="M-0.39 -0.38 C33.62 -0.36, 169.38 -0.59, 203.06 -0.63 M1.6 -1.62 C35.64 -1.38, 169.47 0.24, 202.67 0.57" stroke="#000000" stroke-width="2" fill="none"></path></g><g transform="translate(259 465) rotate(0 101.33400376066567 -0.5234044320042699)"><path d="M173.74 12.28 C179.51 7.96, 185.69 4.84, 201.21 -0.63 M174.16 11.36 C179.68 8.28, 186.11 6.02, 202.51 0.34" stroke="#000000" stroke-width="2" fill="none"></path></g><g transform="translate(259 465) rotate(0 101.33400376066567 -0.5234044320042699)"><path d="M173.97 -8.24 C179.56 -8.11, 185.69 -6.78, 201.21 -0.63 M174.39 -9.16 C179.86 -7.87, 186.24 -5.74, 202.51 0.34" stroke="#000000" stroke-width="2" fill="none"></path></g></g><g transform="translate(321 417) rotate(0 35.5 13)"><text x="0" y="18" font-family="Virgil, Segoe UI Emoji" font-size="20px" fill="#000000" text-anchor="start" style="white-space: pre;" direction="ltr">Rebase</text></g><g stroke-linecap="round"><g transform="translate(49 423) rotate(0 -0.44743518496244405 19.400965790846385)"><path d="M-1.13 -0.88 C-1.34 5.61, -1.71 31.89, -1.71 38.44 M0.47 1.27 C0.7 7.96, 1.03 33.32, 0.63 39.68" stroke="#000000" stroke-width="2" fill="none"></path></g></g><g stroke-linecap="round"><g transform="translate(542 433) rotate(0 -0.6540069319307804 19.64127852612171)"><path d="M0.5 -0.02 C0.14 6.6, -1.71 32.56, -1.8 38.88 M-0.7 -1.07 C-0.7 5.82, 0.43 33.73, 0.49 40.36" stroke="#000000" stroke-width="2" fill="none"></path></g></g><g stroke-linecap="round"><g transform="translate(50 544) rotate(0 0.5619619369040834 13.2579320352757)"><path d="M0.41 -0.18 C0.35 4.56, -0.32 23.46, -0.15 27.83 M-0.83 -1.31 C-0.56 3.15, 1.66 21.45, 1.96 26.14" stroke="#000000" stroke-width="2" fill="none"></path></g></g><g stroke-linecap="round"><g transform="translate(543 554) rotate(0 -0.302954664154754 13.567282821983099)"><path d="M-0.02 -0.8 C0.27 3.77, 0.89 23.24, 0.88 27.94 M-1.49 1.39 C-1.29 5.6, -0.76 22.33, -0.13 26.31" stroke="#000000" stroke-width="2" fill="none"></path></g></g><g stroke-linecap="round"><g transform="translate(166 425) rotate(0 -0.45087398950943225 17.05165239085443)"><path d="M-1.09 0.32 C-1 5.81, -0.53 27.85, -0.32 33.43 M0.54 -0.56 C0.51 5.05, -1.26 28.74, -1.44 34.67" stroke="#000000" stroke-width="2" fill="none"></path></g></g><g stroke-linecap="round"><g transform="translate(615 92) rotate(0 0.0864311299799283 16.344788070851934)"><path d="M-0.8 -0.12 C-0.73 5.37, 0.74 27.11, 0.94 32.94 M0.98 -1.23 C0.93 4.38, 0.67 28.22, 0.48 33.92" stroke="#000000" stroke-width="2" fill="none"></path></g></g><g stroke-linecap="round"><g transform="translate(167 545) rotate(0 -0.31943658682052956 14.205719386734984)"><path d="M0.19 -1.13 C0.31 3.5, 0.48 23.19, 0.53 28 M-1.17 0.89 C-1.15 5.71, -0.33 24.87, -0.14 29.54" stroke="#000000" stroke-width="2" fill="none"></path></g></g><g stroke-linecap="round"><g transform="translate(616 212) rotate(0 -0.2747146785725363 14.386854711719792)"><path d="M-0.12 0.94 C-0.29 5.8, -1.22 23.83, -1.06 28.39 M-1.64 0.38 C-1.45 4.95, 0.73 21.58, 1.09 26.47" stroke="#000000" stroke-width="2" fill="none"></path></g></g><g stroke-linecap="round"><g transform="translate(582 309) rotate(0 -10.281673754793587 19.366182358530352)"><path d="M1.07 -1.13 C-2.26 5.35, -17.46 32.14, -21.14 38.9 M0.18 0.89 C-3.14 7.47, -18.07 33.27, -21.64 39.86" stroke="#000000" stroke-width="2" fill="none"></path></g></g></svg>