<?xml version="1.0" encoding="UTF-8" standalone="no"?>
<svg
   version="1.1"
   viewBox="0 0 1002 778"
   width="1002"
   height="778"
   id="svg82"
   sodipodi:docname="ordinary-commit.svg"
   inkscape:version="1.2.1 (9c6d41e410, 2022-07-14)"
   xmlns:inkscape="http://www.inkscape.org/namespaces/inkscape"
   xmlns:sodipodi="http://sodipodi.sourceforge.net/DTD/sodipodi-0.dtd"
   xmlns="http://www.w3.org/2000/svg"
   xmlns:svg="http://www.w3.org/2000/svg">
  <sodipodi:namedview
     id="namedview84"
     pagecolor="#ffffff"
     bordercolor="#666666"
     borderopacity="1.0"
     inkscape:showpageshadow="2"
     inkscape:pageopacity="0.0"
     inkscape:pagecheckerboard="0"
     inkscape:deskcolor="#d1d1d1"
     showgrid="false"
     inkscape:zoom="0.93341731"
     inkscape:cx="459.60151"
     inkscape:cy="401.2139"
     inkscape:window-width="1920"
     inkscape:window-height="1011"
     inkscape:window-x="0"
     inkscape:window-y="0"
     inkscape:window-maximized="1"
     inkscape:current-layer="svg82" />
  <!-- svg-source:excalidraw -->
  <defs
     id="defs4">
    <style
       id="style2">
      @font-face {
        font-family: &quot;Virgil&quot;;
        src: url(&quot;https://excalidraw.com/Virgil.woff2&quot;);
      }
      @font-face {
        font-family: &quot;Cascadia&quot;;
        src: url(&quot;https://excalidraw.com/Cascadia.woff2&quot;);
      }
    </style>
  </defs>
  <rect
     x="0"
     y="0"
     width="1002"
     height="778"
     fill="#ffffff"
     id="rect6" />
  <g
     stroke-linecap="round"
     transform="translate(10 10) rotate(0 491 379)"
     id="g10">
    <path
       d="M0.73 -0.07 C258.95 -0.26, 518.77 -1.58, 982.6 -0.22 M982.24 -0.72 C984.81 272.06, 983.97 545.5, 981.53 757.57 M981.21 758.77 C778.1 759.48, 573.16 759.94, 0.18 758 M-0.27 757.82 C0.57 540.28, -0.16 323.97, 0.37 0.23"
       stroke="#ffffff"
       stroke-width="4.5"
       fill="none"
       stroke-dasharray="8 12"
       id="path8" />
  </g>
  <g
     stroke-linecap="round"
     transform="translate(378.5 98.75) rotate(0 67.5 67.5)"
     id="g16">
    <path
       d="M16.42 23.55 C16.42 23.55, 16.42 23.55, 16.42 23.55 M16.42 23.55 C16.42 23.55, 16.42 23.55, 16.42 23.55 M8.47 56.51 C21.68 44.35, 32.81 29.61, 46.23 12.41 M8.4 57.02 C23.05 41.24, 37.58 24.85, 47.65 13.23 M4.14 84.29 C31.21 56.11, 53.96 31.79, 77.06 5.08 M6.63 84.53 C19.53 69.01, 35.01 53, 74.87 5.21 M12.21 102.26 C31.79 79.77, 48.42 62.21, 90.93 8.65 M12.26 101.27 C44.71 65.03, 74.66 30.36, 92.36 9.89 M23.02 116.39 C52.8 82.53, 80.91 43.95, 106.99 15.42 M21.91 116.13 C53.8 76.19, 86.34 38.72, 107.22 14.98 M34.68 126.48 C61.42 92.49, 87.65 61.95, 121.92 25.16 M33.91 126.56 C54.56 103.68, 74.6 79.16, 120.9 25.55 M47.36 133.74 C80.77 96.82, 115.56 56.56, 131.03 36.72 M46.47 136.26 C78.77 98.51, 109.95 62.88, 132.19 35.72 M67.81 138.2 C90.84 108.79, 113.09 80.87, 137.37 54.19 M66.11 136.76 C85.52 114.57, 104.03 95.09, 136.17 54.98 M93.08 129.81 C106.77 113.37, 119.9 97.47, 134.03 84.97 M93.19 130.65 C103.48 118.41, 112.82 107.31, 132.43 84.35 M14.04 108.84 C14.04 108.84, 14.04 108.84, 14.04 108.84 M14.04 108.84 C14.04 108.84, 14.04 108.84, 14.04 108.84 M66.88 133.7 C52.72 121.23, 37.18 105.47, 3.61 78.25 M66.91 134.48 C47.34 115.82, 26.79 98.31, 4.55 79.68 M88.26 127.9 C67.3 112.41, 46.66 97.07, 4.86 57.89 M85.8 130.27 C67.38 112.59, 49.76 97.68, 4.85 58.37 M102.06 121.77 C79.97 104.81, 61.69 87.67, 10.33 43.62 M102.28 122.02 C76.06 98.91, 49.21 76.77, 11.3 43.35 M113.01 113.31 C89.02 90.04, 59.28 66.23, 16.91 26.26 M114.4 111.79 C91.38 91.54, 68.23 72.18, 17.64 28.15 M127.61 101.43 C99.87 76.29, 71.4 54.5, 27.5 11.34 M126.8 102.39 C105.01 81.15, 81.71 61.44, 25.33 13.98 M133.8 88.57 C107.3 59.99, 77.89 34.82, 40.79 3.02 M134.27 86.18 C99.28 55.17, 60.18 21.66, 41.22 5.79 M142.81 71.1 C113.23 48.18, 82.88 20.17, 58.41 0.22 M143.47 71.54 C123.62 55.89, 106.19 40.28, 60.5 0.55 M137.54 49.58 C116.77 27.69, 90.97 5.14, 75.93 -6.87 M139.14 47.27 C125.55 36.5, 113.24 23.44, 75.68 -8.15"
       stroke="#40c057"
       stroke-width="2"
       fill="none"
       id="path12" />
    <path
       d="M98.32 7.46 C106.88 10.59, 114.72 17.92, 120.75 25.49 C126.79 33.06, 132.54 43.12, 134.52 52.89 C136.5 62.66, 135.05 74.56, 132.62 84.11 C130.19 93.67, 126.15 102.93, 119.94 110.23 C113.74 117.54, 104.47 123.9, 95.39 127.94 C86.31 131.98, 75.11 134.43, 65.45 134.49 C55.79 134.56, 45.94 132.55, 37.42 128.32 C28.9 124.08, 20.25 116.92, 14.35 109.1 C8.45 101.29, 4.06 90.96, 2.04 81.42 C0.02 71.87, -0.14 61.44, 2.24 51.82 C4.62 42.2, 10.13 31.34, 16.31 23.67 C22.49 16.01, 30.58 9.86, 39.33 5.83 C48.07 1.79, 58.53 -1.07, 68.78 -0.55 C79.04 -0.02, 94.99 6.78, 100.86 8.96 C106.72 11.14, 104.41 11.59, 103.95 12.52 M91.5 3.5 C100.39 5.85, 110.3 13.25, 117.13 20.73 C123.96 28.22, 129.78 38.89, 132.46 48.43 C135.14 57.98, 134.96 68.47, 133.2 77.99 C131.44 87.51, 127.12 97.32, 121.9 105.56 C116.67 113.81, 110.42 122.49, 101.86 127.47 C93.29 132.45, 80.42 135.09, 70.49 135.44 C60.56 135.79, 51.12 133.34, 42.27 129.59 C33.43 125.84, 24.2 120.31, 17.4 112.97 C10.6 105.62, 4.14 95.08, 1.45 85.53 C-1.24 75.98, -0.52 65.36, 1.25 55.66 C3.01 45.96, 6.37 35.26, 12.06 27.33 C17.75 19.41, 26.69 12.8, 35.37 8.12 C44.05 3.45, 54.63 -0.06, 64.14 -0.71 C73.65 -1.37, 87.91 3.05, 92.45 4.19 C96.98 5.33, 91.66 4.92, 91.37 6.15"
       stroke="#000000"
       stroke-width="4"
       fill="none"
       id="path14" />
  </g>
  <g
     stroke-linecap="round"
     transform="translate(379.5 381.75) rotate(0 67.5 67.5)"
     id="g22">
    <path
       d="M15.34 23.93 C15.34 23.93, 15.34 23.93, 15.34 23.93 M15.34 23.93 C15.34 23.93, 15.34 23.93, 15.34 23.93 M9.84 54.6 C17.72 46.21, 27.16 35.19, 47.72 12.21 M8.93 55.39 C16.33 47.52, 24.59 37.56, 46.98 11.55 M6.62 84.36 C19.25 66.35, 35.47 51.33, 75.79 3.72 M5.55 84.68 C22.78 64.26, 39.97 43.99, 74.12 4.06 M11.93 98.77 C36.29 70.67, 60.43 44.15, 92.67 10.5 M13.47 100.1 C41.22 65.92, 69.33 34.34, 92.34 9.41 M23.4 113.97 C54.59 77.53, 85.92 39.3, 108.61 15.38 M22.06 114.86 C56.29 76.6, 90.72 35.88, 107.84 15.54 M32.65 125.62 C52.17 102.63, 71.46 79.72, 120.69 25.94 M33.85 124.94 C63.62 89.43, 94.94 53.87, 119.59 25.2 M46.62 137.13 C64.22 111.46, 81.38 91.28, 132.99 35.51 M45.84 134.83 C72.78 105.52, 97.86 74.6, 132.43 35.4 M68.89 134.56 C86.17 110.93, 106.39 90.89, 135.19 57.79 M67.82 134.97 C87.59 113.71, 106.34 89.7, 135.64 55.6 M91.18 130.14 C100.93 118.93, 110.48 110.19, 137.81 78.51 M93.82 130.76 C105.67 113.72, 118.27 99.88, 137.14 79.92 M14.34 108.49 C14.34 108.49, 14.34 108.49, 14.34 108.49 M14.34 108.49 C14.34 108.49, 14.34 108.49, 14.34 108.49 M68.22 135.54 C44.96 113.13, 20.72 90.98, 2.57 80 M68.7 134.24 C54.58 122.54, 39.23 109.34, 2.87 78.3 M87.52 129.73 C69.77 111.63, 49.64 95.76, 5.27 55.02 M88.93 130.57 C54.3 99.57, 20.21 71.44, 4.29 57.18 M104.28 121.28 C66.92 88.37, 28.75 55.12, 12.29 41.98 M103.13 122.44 C68.56 92.74, 34.07 63.03, 10.1 40.85 M115.4 109.67 C94.39 94.19, 72.48 77.91, 16.32 27.24 M113.53 110.62 C94.17 91.7, 73.1 72.67, 17.02 26.03 M127.1 101.93 C95.44 73.94, 60.17 44.84, 24.54 13.75 M126.55 100.42 C93.61 70.26, 58.09 39.98, 24.89 12.84 M134.99 85.35 C109.91 63.93, 82.21 38.87, 40.86 6.28 M135.9 87 C113.82 69.35, 93.25 50.07, 40.87 5.56 M143.89 72.59 C124.93 56.79, 107.58 41.53, 59.92 0.47 M144.35 71.92 C114.9 48.27, 87.05 22.37, 60.4 0.16 M139.6 44.67 C118.93 29.45, 99.22 12.23, 77.4 -9.44 M138.47 46.75 C115.37 25.69, 93.21 6.99, 75.53 -8.37"
       stroke="#40c057"
       stroke-width="2"
       fill="none"
       id="path18" />
    <path
       d="M97.48 7.59 C106.27 10.81, 116.04 18.57, 121.94 26.12 C127.84 33.68, 130.94 43.19, 132.88 52.9 C134.82 62.6, 135.89 74.89, 133.58 84.35 C131.28 93.8, 125.49 102.15, 119.06 109.64 C112.63 117.13, 103.62 125.12, 94.99 129.3 C86.36 133.49, 76.75 134.89, 67.26 134.76 C57.77 134.62, 46.81 132.82, 38.05 128.5 C29.29 124.17, 20.78 116.73, 14.72 108.81 C8.65 100.89, 3.87 90.61, 1.67 80.96 C-0.53 71.31, -0.81 60.44, 1.51 50.9 C3.82 41.35, 9.15 31.04, 15.55 23.69 C21.95 16.33, 30.99 10.64, 39.89 6.75 C48.79 2.86, 58.69 -0.01, 68.94 0.34 C79.19 0.69, 95.65 6.99, 101.41 8.83 C107.18 10.66, 104.1 10.36, 103.54 11.35 M53.59 1.47 C62.4 -1.2, 75.28 -1.11, 85.11 1.35 C94.94 3.81, 105.13 9.76, 112.56 16.25 C119.99 22.73, 125.78 31.13, 129.71 40.25 C133.63 49.37, 136.4 61.25, 136.12 70.96 C135.84 80.67, 132.67 89.79, 128.04 98.5 C123.41 107.21, 116.45 117.49, 108.33 123.21 C100.22 128.94, 89.26 131.38, 79.35 132.84 C69.45 134.31, 58.41 134.36, 48.91 131.98 C39.41 129.61, 29.66 124.84, 22.38 118.59 C15.09 112.34, 8.75 103.44, 5.22 94.48 C1.68 85.53, 0.5 74.63, 1.16 64.86 C1.82 55.1, 4.62 44.44, 9.17 35.89 C13.72 27.34, 21.07 19.36, 28.46 13.58 C35.85 7.8, 48.88 3.19, 53.5 1.21 C58.12 -0.77, 55.57 0.39, 56.18 1.71"
       stroke="#000000"
       stroke-width="4"
       fill="none"
       id="path20" />
  </g>
  <g
     stroke-linecap="round"
     transform="translate(557.5 564.75) rotate(0 67.5 67.5)"
     id="g28">
    <path
       d="M17.05 22.77 C17.05 22.77, 17.05 22.77, 17.05 22.77 M17.05 22.77 C17.05 22.77, 17.05 22.77, 17.05 22.77 M9.95 55.43 C23.02 40.93, 33.88 26.93, 46.65 11.74 M10.19 56.18 C24.2 37.38, 39.75 19.99, 47.53 10.94 M4.8 83.34 C24.64 63.47, 41.43 43.42, 75.57 3.88 M7.11 83.51 C25.24 63.08, 42.65 41.96, 76.45 4.52 M13.05 98.41 C36.97 69.88, 61.8 44, 92.29 8.66 M14 100.28 C42.09 65.14, 73.29 31.57, 92.73 8.65 M22.49 113.97 C42.32 89.39, 65.47 62.03, 105.56 15.71 M20.53 116.05 C48.1 84.74, 74.27 54.95, 107.69 15.84 M32.3 127.5 C54.29 103.07, 73.28 81.65, 119.71 28.82 M33.87 125.88 C51.81 105.57, 70.31 83.71, 119.08 26.84 M44.96 134.35 C78.63 103.11, 109.08 67.33, 131.46 38.12 M44.64 135.49 C80.87 96.52, 115.15 56.07, 130.84 37.34 M65.69 136.4 C83.15 121.49, 95.72 104.21, 133.79 57.24 M67.22 136.51 C82.56 119.08, 97.8 101.34, 134.96 56.66 M93.88 129.57 C109.5 113.76, 124.22 98.19, 137.29 81.77 M93.2 129.47 C102.55 119.19, 114.29 106.27, 135.81 82.76 M12.66 107.38 C12.66 107.38, 12.66 107.38, 12.66 107.38 M12.66 107.38 C12.66 107.38, 12.66 107.38, 12.66 107.38 M67.24 132.91 C52.65 118.7, 35.3 105.05, 3.64 78.25 M66.81 134.03 C43.86 113.93, 20.32 93.43, 3.17 77.49 M87.06 130.84 C67.49 110.39, 48.22 93.95, 2.73 56.28 M86.39 128.86 C68.84 112.77, 49.81 97.39, 1.93 57.06 M101.59 120.52 C79.88 100.28, 55.73 82.96, 7.34 40.82 M100.19 121.28 C79.42 102.54, 59.54 85.8, 8.74 40.29 M114.38 109.67 C76.34 77.67, 39.13 44.59, 18.69 25.37 M113.66 110.03 C76.71 78.64, 41.78 45.97, 17.86 25.34 M127.86 98.86 C90.4 68.63, 53.19 35.5, 26.82 14.03 M126.98 99.81 C99.46 75.93, 70.46 52.09, 25.99 13.88 M133.5 83.56 C98.76 54.84, 62.97 23.74, 41.62 3.41 M132.21 83.8 C110.04 63.12, 86.33 44.24, 41.15 4.42 M135.11 63.23 C117.88 50.85, 104.45 40.31, 59.87 -0.51 M134.51 64.32 C110.39 44.12, 85.62 23.11, 60.81 1.79 M138.02 49.97 C115.88 28.33, 95.19 6.11, 74.74 -5.78 M140.31 47.97 C118.48 29.78, 98.3 12.61, 75.27 -6.76"
       stroke="#40c057"
       stroke-width="2"
       fill="none"
       id="path24" />
    <path
       d="M41.4 5.8 C49.52 1.19, 61.59 -1.34, 71.15 -0.87 C80.71 -0.4, 90.41 3.81, 98.76 8.62 C107.1 13.44, 115.42 20.24, 121.23 28.01 C127.03 35.78, 131.66 45.78, 133.6 55.25 C135.54 64.72, 135.39 75.49, 132.87 84.82 C130.35 94.15, 125.08 103.75, 118.49 111.22 C111.9 118.68, 102.21 125.59, 93.32 129.63 C84.43 133.67, 74.91 135.99, 65.13 135.45 C55.36 134.92, 43.45 131.11, 34.69 126.42 C25.93 121.73, 18.16 115.2, 12.57 107.31 C6.99 99.42, 2.97 88.88, 1.15 79.1 C-0.67 69.32, -0.95 57.99, 1.65 48.65 C4.25 39.32, 9.95 30.47, 16.77 23.09 C23.59 15.71, 37.79 7.44, 42.59 4.37 C47.38 1.29, 45.21 3.46, 45.54 4.64 M69.01 -1.38 C78.55 -1.96, 91.74 4.05, 100.56 8.72 C109.38 13.39, 116.13 18.78, 121.91 26.64 C127.69 34.49, 133.41 46.07, 135.24 55.85 C137.06 65.64, 135.74 76.04, 132.86 85.35 C129.98 94.66, 124.57 104.3, 117.95 111.73 C111.32 119.15, 101.92 126.16, 93.13 129.92 C84.34 133.69, 74.76 134.81, 65.21 134.31 C55.66 133.82, 44.77 131.2, 35.84 126.96 C26.92 122.71, 17.5 116.48, 11.65 108.85 C5.8 101.21, 2.34 90.88, 0.74 81.16 C-0.86 71.44, -0.76 60.14, 2.04 50.53 C4.84 40.92, 11.29 31.03, 17.52 23.51 C23.75 16, 30.76 9.21, 39.44 5.46 C48.13 1.71, 64.62 1.76, 69.64 1.01 C74.66 0.26, 69.43 -0.08, 69.58 0.98"
       stroke="#000000"
       stroke-width="4"
       fill="none"
       id="path26" />
  </g>
  <g
     stroke-linecap="round"
     transform="translate(816.5 592.75) rotate(0 67.5 67.5)"
     id="g34">
    <path
       d="M14.03 25.45 C14.03 25.45, 14.03 25.45, 14.03 25.45 M14.03 25.45 C14.03 25.45, 14.03 25.45, 14.03 25.45 M8.7 56.09 C21.31 43.3, 30.88 29.09, 46.07 14.1 M8.49 56.21 C20.59 42.1, 31.67 27.38, 46.43 13.43 M3.13 84.27 C23.61 59.85, 46.89 38.24, 75.9 4.88 M4.59 86.21 C22.06 66.43, 39.37 45.5, 73.82 4.08 M11.7 102.03 C36.25 75.66, 59.04 48.5, 92.88 10.11 M11.66 100.96 C44.72 65.27, 76.63 29.08, 91.79 7.86 M20.98 114.5 C57.39 74.2, 90 34.17, 108.47 16.75 M20.41 115.13 C41.1 93.67, 61.39 70.44, 107.86 15.79 M33.12 125.35 C58.78 96.04, 84.31 68.26, 121.16 23.11 M33.22 124.18 C54.36 99.63, 74.89 75.34, 119.45 24.24 M44.85 134.17 C80.17 98.1, 113.14 58.45, 134.36 36.56 M46.69 134.66 C68.42 109.44, 90.39 85.14, 132.34 34.51 M65.79 140.21 C89.01 114.51, 110.18 85.12, 134.54 54.49 M64.46 137.98 C89.92 109.1, 114.85 80.04, 136.3 56.8 M78.18 143.58 C96.28 125.78, 114.84 106.46, 133.51 83.11 M80.53 144.5 C100.13 123.15, 117.7 101.42, 133.93 83 M14.73 109.57 C14.73 109.57, 14.73 109.57, 14.73 109.57 M14.73 109.57 C14.73 109.57, 14.73 109.57, 14.73 109.57 M69.35 134.9 C51.77 121.51, 37.93 109.19, 3.83 77.32 M69.23 134.24 C43.49 114.03, 19.62 92.16, 4.98 79.67 M86.63 130.98 C58.33 108.34, 32.88 81.59, 4.86 57.82 M88.11 131.46 C58.36 104.97, 29.93 79.32, 3.85 58.35 M104.21 124.24 C80.25 101.35, 54.13 82.99, 9.05 39.3 M103.72 122.44 C69.63 94.52, 36.39 66.46, 8.36 40.72 M115.47 114.09 C83.5 85.73, 51.1 56.03, 16.39 23 M115.63 113.01 C95.93 95.6, 75.37 78.69, 13.66 24.44 M126.01 103.61 C98.3 77.48, 70.69 55.02, 29.21 15.49 M127.55 101.65 C92.31 73.16, 58.22 42.74, 28.92 14.17 M135.62 84.68 C102.61 56.39, 66.28 30.64, 41.79 4.8 M133.77 86.48 C111.88 65.62, 89.9 47.25, 40.46 4.66 M140.22 72.05 C122.36 53.17, 99.33 36.84, 60.66 -1.72 M142.69 72.46 C111.45 44.41, 80.42 17.87, 58.58 0.56 M139.27 48.82 C121.54 35.6, 108.98 18.57, 73.9 -8.51 M138.71 48.66 C117.71 29.46, 98.12 11.03, 74.38 -7.67"
       stroke="#40c057"
       stroke-width="2"
       fill="none"
       id="path30" />
    <path
       d="M68.39 -0.64 C77.67 -1.86, 87.75 1.65, 96.56 5.96 C105.38 10.26, 115.11 17.25, 121.3 25.2 C127.49 33.15, 131.82 44.19, 133.72 53.65 C135.62 63.11, 134.85 72.57, 132.68 81.96 C130.52 91.35, 126.75 102.15, 120.73 109.99 C114.7 117.84, 105.34 124.88, 96.55 129.02 C87.75 133.15, 77.81 135.07, 67.96 134.79 C58.1 134.52, 46.35 131.61, 37.43 127.36 C28.51 123.11, 20.54 116.77, 14.42 109.29 C8.29 101.82, 2.94 92.13, 0.66 82.5 C-1.62 72.87, -1.49 61.02, 0.75 51.5 C2.99 41.97, 7.83 32.85, 14.1 25.37 C20.37 17.9, 28.72 10.99, 38.39 6.66 C48.06 2.34, 66.04 0.37, 72.13 -0.6 C78.22 -1.56, 75.17 -0.2, 74.94 0.88 M69.86 -0.88 C78.8 -1.75, 88.15 3.36, 96.82 7.7 C105.49 12.04, 115.97 17.72, 121.87 25.17 C127.77 32.62, 130.18 42.69, 132.24 52.42 C134.31 62.14, 136.16 73.83, 134.25 83.53 C132.34 93.22, 127.01 102.83, 120.79 110.57 C114.57 118.32, 105.83 125.86, 96.92 130 C88.01 134.13, 77.31 135.98, 67.32 135.36 C57.32 134.74, 46.01 130.62, 36.93 126.28 C27.86 121.94, 18.72 116.71, 12.86 109.34 C7 101.96, 3.4 91.8, 1.75 82.03 C0.09 72.25, 0.64 60.09, 2.94 50.7 C5.23 41.31, 9.61 33.16, 15.52 25.69 C21.43 18.21, 29.42 10.01, 38.41 5.84 C47.39 1.66, 64.47 1.56, 69.41 0.65 C74.34 -0.26, 67.99 -0.48, 68.03 0.38"
       stroke="#000000"
       stroke-width="4"
       fill="none"
       id="path32" />
  </g>
  <g
     stroke-linecap="round"
     id="g48">
    <g
       transform="translate(441.9992985811002 244.91698410487595) rotate(0 2.1912743073496017 63.2248681720483)"
       id="g38">
      <path
         d="M1.12 -1.03 C1.49 20.08, 1.44 106.22, 1.76 127.48 M0.25 1.04 C1.06 21.73, 3.74 104.56, 4.13 125.68"
         stroke="#000000"
         stroke-width="1"
         fill="none"
         id="path36" />
    </g>
    <g
       transform="translate(441.9992985811002 244.91698410487595) rotate(0 2.1912743073496017 63.2248681720483)"
       id="g42">
      <path
         d="M-8.59 96.69 C-2.8 106.01, -1.45 112.01, 3.78 125.32 M-6.54 98.19 C-4.72 104.53, -0.78 112.27, 4.62 125.77"
         stroke="#000000"
         stroke-width="1"
         fill="none"
         id="path40" />
    </g>
    <g
       transform="translate(441.9992985811002 244.91698410487595) rotate(0 2.1912743073496017 63.2248681720483)"
       id="g46">
      <path
         d="M11.92 96.15 C12.36 105.8, 8.34 111.94, 3.78 125.32 M13.98 97.65 C10.41 104.07, 8.98 111.96, 4.62 125.77"
         stroke="#000000"
         stroke-width="1"
         fill="none"
         id="path44" />
    </g>
  </g>
  <g
     stroke-linecap="round"
     id="g62">
    <g
       transform="translate(495.3158456852277 502.19088278202) rotate(0 37.15121835835271 37.40504497178648)"
       id="g52">
      <path
         d="M-1.06 -0.97 C11.68 11.52, 62.67 61.89, 75.36 74.72 M0.58 1.13 C13.34 13.76, 62.53 63.65, 74.87 75.78"
         stroke="#000000"
         stroke-width="1"
         fill="none"
         id="path50" />
    </g>
    <g
       transform="translate(495.3158456852277 502.19088278202) rotate(0 37.15121835835271 37.40504497178648)"
       id="g56">
      <path
         d="M46.06 64.53 C51.79 66.93, 59.66 69.98, 73 74.43 M47.38 62.96 C57.63 67.01, 67.23 71.5, 74.1 75.87"
         stroke="#000000"
         stroke-width="1"
         fill="none"
         id="path54" />
    </g>
    <g
       transform="translate(495.3158456852277 502.19088278202) rotate(0 37.15121835835271 37.40504497178648)"
       id="g60">
      <path
         d="M60.58 50.02 C63.26 55.32, 68.11 61.38, 73 74.43 M61.89 48.45 C66.81 57.75, 71.19 67.45, 74.1 75.87"
         stroke="#000000"
         stroke-width="1"
         fill="none"
         id="path58" />
    </g>
  </g>
  <g
     stroke-linecap="round"
     id="g76">
    <g
       transform="translate(700.0173908762129 637.831777878605) rotate(0 53.102924582449134 10.892063638573916)"
       id="g66">
      <path
         d="M-0.74 0.01 C17 3.73, 88.78 19.26, 106.95 22.82 M1.07 -1.03 C18.56 2.31, 87.92 17.19, 105.74 21.07"
         stroke="#000000"
         stroke-width="1"
         fill="none"
         id="path64" />
    </g>
    <g
       transform="translate(700.0173908762129 637.831777878605) rotate(0 53.102924582449134 10.892063638573916)"
       id="g70">
      <path
         d="M76.03 24.32 C87.36 25.32, 95.08 21.73, 104.1 22.86 M75.44 24.4 C84.39 24.04, 91.57 23.33, 106.4 20.86"
         stroke="#000000"
         stroke-width="1"
         fill="none"
         id="path68" />
    </g>
    <g
       transform="translate(700.0173908762129 637.831777878605) rotate(0 53.102924582449134 10.892063638573916)"
       id="g74">
      <path
         d="M80.35 4.26 C90.28 12.1, 96.52 15.39, 104.1 22.86 M79.76 4.34 C87.65 9.3, 93.69 13.86, 106.4 20.86"
         stroke="#000000"
         stroke-width="1"
         fill="none"
         id="path72" />
    </g>
  </g>
  <g
     transform="matrix(1.9531667,0,0,1.9531667,213.82555,12.356824)"
     id="g80">
    <text
       x="0"
       y="25"
       font-family="Virgil, 'Segoe UI Emoji'"
       font-size="28px"
       fill="#000000"
       text-anchor="start"
       style="white-space:pre"
       direction="ltr"
       id="text78">«Обычный» коммит</text>
  </g>
</svg>
